<svg width="928" height="687" fill="none" xmlns="http://www.w3.org/2000/svg"><g clip-path="url(#clip0)"><path style="mix-blend-mode:screen" d="M446.18 704.999c191.941 0 347.541-157.82 347.541-352.5S638.121 0 446.18 0C254.238 0 98.639 157.819 98.639 352.499c0 194.68 155.599 352.5 347.541 352.5z" fill="url(#paint0_radial)"/><path style="mix-blend-mode:screen" d="M593.465 744.892c154.686 0 280.084-127.187 280.084-284.08 0-156.893-125.398-284.08-280.084-284.08s-280.084 127.187-280.084 284.08c0 156.893 125.398 284.08 280.084 284.08z" fill="url(#paint1_linear)"/><path d="M518.29 239.79c.317-3.003 1.163-6.113.846-9.116a19.38 19.38 0 00-2.538-6.756l-.317.214c-1.163 1.395-3.278.858-4.864-.107-7.718-4.611-10.256-16.408-5.181-23.914l.846-.215a110.974 110.974 0 01-2.749-11.367c-1.057-5.899-2.855-13.191-8.564-14.478l-.529-.536c-10.682 9.578-23.604 16.224-37.535 19.303v.536c-4.229 4.719-10.679 6.864-16.917 7.293-6.238.429-12.37-.858-18.503-2.145-6.132-1.287-11.842-2.681-17.128-5.684-10.256-6.005-16.283-17.265-21.781-27.882a59.569 59.569 0 01-4.864-11.582c-1.586-5.684-1.903-11.475 1.163-16.301l.529-.214a86.695 86.695 0 01-3.807-15.443h-.105a196.832 196.832 0 01-50.963 11.689c-13.639 1.502-28.971 2.467-38.169 12.547 11.842-1.286 34.257-1.394 38.169 15.014 5.287 22.521 9.516 33.245-6.344 48.258-11.525 11.046-24.213 21.985-33.2 27.883 5.921.107 11.314-.536 17.023-3.646v4.289h1.163v2.038c.634 5.469-3.489 10.188-6.978 14.37-3.489 4.182-6.767 9.866-4.547 14.799v.644a63.372 63.372 0 0119.138 6.541c2.114 1.18 4.229 2.36 6.238 3.647 4.335 2.681 8.459 5.683 12.582 8.793l9.41 7.293 2.009-2.681c2.326-21.877 13.745-41.288 24.741-60.162 1.163 2.895 47.686-.322 52.866-.322l13.111.214c9.833.537 19.772 1.287 29.394 2.038-.106 6.113-2.644 12.011-4.547 17.802h.423c1.798 3.432 2.326 7.4 3.912 10.938 2.538 5.791 7.613 9.974 12.054 14.371l.528.643.952-.965a272.241 272.241 0 0033.411-15.764c4.547-2.574 9.199-5.577 10.891-10.51a28.567 28.567 0 01-1.269-11.367z" fill="url(#paint2_radial)"/><path d="M325.329 160.646c-3.912-16.408-26.327-16.3-38.169-15.014l-.74.858a8.582 8.582 0 01-2.767 2.343 8.464 8.464 0 01-3.472.982c-4.335.429-9.304-1.287-14.591.75-3.383 1.287-6.767 2.681-9.198 5.363-2.432 2.681-3.595 6.863-1.586 9.866-2.538-3.968-14.168 5.683-21.57 12.761l.952.536c-.317 22.414 10.785 41.395 28.759 54.371l.634.215c-.423 1.072-.74 2.252-1.057 3.324a48.123 48.123 0 0112.582-.858l8.67.644h2.009c8.987-5.898 21.675-16.837 33.2-27.883 15.86-15.013 11.63-25.737 6.344-48.258z" fill="url(#paint3_radial)"/><path style="mix-blend-mode:screen" opacity=".29" d="M303.971 785c108.321 0 196.132-89.065 196.132-198.931 0-109.867-87.811-198.931-196.132-198.931s-196.133 89.064-196.133 198.931C107.838 695.935 195.65 785 303.971 785z" fill="url(#paint4_linear)"/><path style="mix-blend-mode:overlay" d="M499.258 332.553c87.474 0 158.386-71.924 158.386-160.647 0-88.722-70.912-160.646-158.386-160.646-87.475 0-158.387 71.924-158.387 160.646 0 88.723 70.912 160.647 158.387 160.647z" fill="url(#paint5_radial)"/><path style="mix-blend-mode:soft-light" d="M252.161 356.574c33.577 0 60.796-27.607 60.796-61.663 0-34.055-27.219-61.663-60.796-61.663s-60.796 27.608-60.796 61.663c0 34.056 27.219 61.663 60.796 61.663z" fill="url(#paint6_radial)"/><path opacity=".29" d="M154.062 257.859a45.506 45.506 0 00-22.597 5.99 45.8 45.8 0 0135.423-2.76c11.701 3.883 21.403 12.326 26.971 23.471a47.752 47.752 0 012.72 35.953c-3.826 11.877-12.145 21.724-23.124 27.376 9.726-4.418 17.657-12.101 22.458-21.756a47.703 47.703 0 003.903-31.261c-2.276-10.566-8.067-20.014-16.4-26.755-8.333-6.741-18.699-10.363-29.354-10.258z" fill="url(#paint7_linear)"/><path opacity=".29" d="M646.976 299.964a28.836 28.836 0 00-14.333 3.765 30.145 30.145 0 0112.31-2.738c7.782 0 15.245 3.138 20.748 8.723 5.502 5.585 8.594 13.16 8.594 21.059a29.776 29.776 0 01-4.09 15.039 29.207 29.207 0 01-11.087 10.806c6.124-2.772 11.12-7.599 14.149-13.671a30.013 30.013 0 002.478-19.668c-1.425-6.65-5.064-12.598-10.303-16.845a28.906 28.906 0 00-18.466-6.47z" fill="url(#paint8_linear)"/><path opacity=".29" d="M558.78 642.283a24.35 24.35 0 00-12.141 3.252 23.995 23.995 0 0110.455-2.396 24.89 24.89 0 0115.374 5.306 25.53 25.53 0 018.966 13.742 25.857 25.857 0 01-1.186 16.437 25.379 25.379 0 01-10.844 12.269c5.18-2.456 9.38-6.631 11.906-11.836a25.846 25.846 0 001.991-16.794c-1.238-5.665-4.343-10.732-8.801-14.364a24.897 24.897 0 00-15.72-5.616z" fill="url(#paint9_linear)"/><path d="M849.549 88.259l-.318.965c8.776 6.542 13.746 11.475 12.794 12.976-.952 1.502-7.296-.429-16.917-4.826a374.406 374.406 0 01-37.641-20.054c-13.851-8.257-26.01-16.3-34.68-22.735-8.67-6.434-14.379-11.796-13.428-13.405.952-1.608 8.036.644 18.609 5.577l.634-.75c-15.859-7.293-27.067-10.51-28.759-7.722-1.691 2.788 6.661 11.153 20.724 21.662a393.814 393.814 0 0034.468 22.735c13.323 7.936 25.905 14.585 36.478 19.518 15.86 7.293 27.067 10.51 28.653 7.721 1.586-2.788-6.555-11.153-20.617-21.662z" fill="#FCEE21" opacity=".53"/><path style="mix-blend-mode:screen" d="M770.566 59.947a28.542 28.542 0 00-1.269 4.29 43.022 43.022 0 002.582 27.614c3.884 8.652 10.517 15.732 18.839 20.107a41.349 41.349 0 0027.059 4.021c9.209-1.769 17.567-6.621 23.735-13.779-10.574-4.933-23.156-11.582-36.478-19.518a393.664 393.664 0 01-34.468-22.735zm49.271-27.132a41.201 41.201 0 00-22.432.762 41.718 41.718 0 00-18.804 12.43l-.634.75a49.891 49.891 0 00-5.181 7.828c8.67 6.435 20.829 14.478 34.68 22.735a374.406 374.406 0 0037.641 20.054 41.937 41.937 0 004.123-8.15l.317-.965a28.66 28.66 0 001.269-4.29c2.575-10.95.759-22.489-5.05-32.08-5.809-9.593-15.136-16.453-25.929-19.074z" fill="url(#paint10_linear)"/><path d="M66.814 533.307l.423.536c7.084-2.359 11.736-3.325 12.264-2.252.53 1.072-3.172 4.075-9.41 7.828-6.238 3.754-15.436 8.687-25.798 13.62A268.475 268.475 0 0118.07 563.87c-6.978 2.467-12.265 3.539-12.688 2.359-.423-1.179 3.49-4.396 10.362-8.472l-.211-.536C5.278 563.334-.855 568.482.097 570.519c.951 2.038 8.776.644 19.983-3.324a259.7 259.7 0 0026.222-10.724c9.621-4.505 18.185-9.009 25.058-13.084 10.256-6.22 16.494-11.26 15.543-13.405-.952-2.145-8.776-.536-20.09 3.325z" fill="#F0F" opacity=".53"/><path style="mix-blend-mode:screen" d="M20.081 567.195l1.903 2.466a28.655 28.655 0 0016.31 9.231 28.405 28.405 0 0018.46-2.876c5.667-3.015 10.18-7.861 12.826-13.771a29.554 29.554 0 001.781-18.858c-6.873 4.075-15.437 8.58-25.058 13.084a259.7 259.7 0 01-26.222 10.724zm4.335-38.714a29.213 29.213 0 00-8.38 13.118 29.566 29.566 0 00-.501 15.622l.211.537a29.002 29.002 0 002.326 6.112c6.979-2.466 16.177-6.22 26.222-10.831 10.044-4.611 19.454-9.759 25.798-13.62a30.837 30.837 0 00-2.854-5.576l-.423-.536a13.263 13.263 0 00-1.904-2.36c-5.058-5.756-12.157-9.247-19.745-9.709-7.589-.462-15.049 2.142-20.75 7.243z" fill="url(#paint11_linear)"/><path d="M469.125 107.884c-23.684 0-23.05.643-23.05-23.379 0 24.022.634 23.379-23.05 23.379 23.684 0 23.05-.644 23.05 23.378 0-24.022-.634-23.378 23.05-23.378zm101.924 438.077c-12.159-9.33-12.159-8.794-2.855-21.126-9.304 12.332-8.67 12.225-20.829 2.895 12.159 9.33 12.054 8.794 2.855 21.127 9.199-12.333 8.67-12.226 20.829-2.896zM217.587 36.462c-11.842 12.761-11.208 12.761-23.79.75 12.582 12.011 12.582 11.368.74 24.13 11.842-12.762 11.102-12.762 23.79-.751-12.688-12.011-12.582-11.368-.74-24.13zm562.07 370.408c-8.141 10.188-7.612 10.081-17.657 1.823 10.045 8.258 9.939 7.722 1.797 17.909 8.142-10.187 7.613-10.08 17.658-1.823-10.045-8.257-9.939-7.721-1.798-17.909zM290.648 536.846c-9.833 12.118-9.198 12.118-21.146 2.144 11.948 9.974 11.948 9.33 2.115 21.448 9.833-12.118 9.198-12.118 21.146-2.144-11.948-9.974-11.948-9.33-2.115-21.448zm-47.58-255.233c-9.833 12.118-9.198 12.118-21.146 2.145 11.948 9.973 11.948 9.33 2.115 21.448 9.833-12.118 9.198-12.118 21.146-2.145-11.948-9.973-11.948-9.33-2.115-21.448zM34.142 411.16c-8.035-2.038-7.93-1.716-6.026-9.866-1.903 8.15-1.586 8.043-9.622 6.112 8.036 1.931 7.824 1.609 5.921 9.759 1.903-8.15 1.692-8.043 9.727-6.005zm613.247-100.806c-8.036-2.038-7.93-1.716-6.027-9.866-1.903 8.15-1.586 8.043-9.622 6.112 8.036 1.931 7.824 1.609 5.921 9.759 1.903-8.15 1.692-8.043 9.728-6.005zM903.26 609.555c-8.036-2.038-7.93-1.716-6.027-9.867-1.903 8.151-1.586 8.044-9.622 6.113 8.036 1.931 7.824 1.609 5.921 9.759 1.903-8.15 1.692-8.043 9.728-6.005zM201.199 656.74c-8.036-2.037-7.93-1.715-6.027-9.866-1.903 8.151-1.586 8.043-9.621 6.113 8.035 1.93 7.824 1.609 5.921 9.759 1.903-8.15 1.691-8.043 9.727-6.006zm-97.168-185.311c-6.027 2.252-5.815 2.359-7.93-3.754 2.115 6.113 2.326 5.791-3.806 8.043 6.132-2.252 5.815-2.359 8.036 3.861-2.22-6.22-2.327-5.898 3.7-8.15zM448.93 510.25c-2.961-3.539-2.961-3.324.528-6.327-3.489 3.003-3.277 3.003-6.238-.536 2.961 3.539 2.961 3.324-.529 6.327 3.49-3.003 3.278-3.003 6.239.536zM644.744 99.09c-13.005-3.11-12.688-2.68-9.621-15.764-3.067 13.083-2.644 12.869-15.543 9.759 12.899 3.11 12.688 2.68 9.622 15.764 3.066-13.083 2.537-12.869 15.542-9.759zM928 383.813c-12.794 7.4-12.265 7.507-19.561-5.469 7.296 12.976 7.401 12.44-5.392 19.84 12.793-7.4 12.265-7.507 19.56 5.576-7.295-13.083-7.401-12.547 5.393-19.947zM524.845 668.537c-8.142 10.188-7.613 10.08-17.657 1.823 10.044 8.257 9.938 7.721 1.797 17.909 8.141-10.188 7.613-10.081 17.657-1.823-10.044-8.258-9.939-7.721-1.797-17.909z" fill="#fff"/></g><defs><linearGradient id="paint1_linear" x1="335.897" y1="690.197" x2="1129.45" y2="-.028" gradientUnits="userSpaceOnUse"><stop offset=".05" stop-opacity="0"/><stop offset=".18" stop-color="#030300" stop-opacity=".01"/><stop offset=".28" stop-color="#0C0D02" stop-opacity=".06"/><stop offset=".36" stop-color="#1C1D04" stop-opacity=".13"/><stop offset=".45" stop-color="#333508" stop-opacity=".23"/><stop offset=".53" stop-color="#50530C" stop-opacity=".37"/><stop offset=".6" stop-color="#747712" stop-opacity=".53"/><stop offset=".68" stop-color="#9EA318" stop-opacity=".73"/><stop offset=".75" stop-color="#CED51F" stop-opacity=".95"/><stop offset=".76" stop-color="#D9E021"/></linearGradient><linearGradient id="paint4_linear" x1="-182307" y1="243259" x2="-395686" y2="413727" gradientUnits="userSpaceOnUse"><stop offset=".05" stop-opacity="0"/><stop offset=".18" stop-color="#030300" stop-opacity=".01"/><stop offset=".28" stop-color="#0C0D02" stop-opacity=".06"/><stop offset=".36" stop-color="#1C1D04" stop-opacity=".13"/><stop offset=".45" stop-color="#333508" stop-opacity=".23"/><stop offset=".53" stop-color="#50530C" stop-opacity=".37"/><stop offset=".6" stop-color="#747712" stop-opacity=".53"/><stop offset=".68" stop-color="#9EA318" stop-opacity=".73"/><stop offset=".75" stop-color="#CED51F" stop-opacity=".95"/><stop offset=".76" stop-color="#D9E021"/></linearGradient><linearGradient id="paint7_linear" x1="131.397" y1="302.908" x2="200.571" y2="302.908" gradientUnits="userSpaceOnUse"><stop stop-color="#976FE4"/><stop offset="1" stop-color="#EF9EA3"/></linearGradient><linearGradient id="paint8_linear" x1="17214.6" y1="3073.8" x2="18343" y2="3073.8" gradientUnits="userSpaceOnUse"><stop stop-color="#976FE4"/><stop offset="1" stop-color="#EF9EA3"/></linearGradient><linearGradient id="paint9_linear" x1="12760.4" y1="12628.9" x2="13583.4" y2="12628.9" gradientUnits="userSpaceOnUse"><stop stop-color="#976FE4"/><stop offset="1" stop-color="#EF9EA3"/></linearGradient><linearGradient id="paint10_linear" x1="771.485" y1="108.528" x2="890.34" y2="5.23" gradientUnits="userSpaceOnUse"><stop offset=".05" stop-opacity="0"/><stop offset=".18" stop-color="#030300" stop-opacity=".01"/><stop offset=".28" stop-color="#0C0D02" stop-opacity=".06"/><stop offset=".36" stop-color="#1C1D04" stop-opacity=".13"/><stop offset=".45" stop-color="#333508" stop-opacity=".23"/><stop offset=".53" stop-color="#50530C" stop-opacity=".37"/><stop offset=".6" stop-color="#747712" stop-opacity=".53"/><stop offset=".68" stop-color="#9EA318" stop-opacity=".73"/><stop offset=".75" stop-color="#CED51F" stop-opacity=".95"/><stop offset=".76" stop-color="#D9E021"/></linearGradient><linearGradient id="paint11_linear" x1="-30.525" y1="564.513" x2="109.203" y2="535.01" gradientUnits="userSpaceOnUse"><stop offset=".05" stop-opacity="0"/><stop offset=".17" stop-color="#030003" stop-opacity=".01"/><stop offset=".26" stop-color="#0D000D" stop-opacity=".05"/><stop offset=".35" stop-color="#1D001D" stop-opacity=".12"/><stop offset=".43" stop-color="#350035" stop-opacity=".21"/><stop offset=".5" stop-color="#530053" stop-opacity=".32"/><stop offset=".58" stop-color="#780078" stop-opacity=".47"/><stop offset=".65" stop-color="#A300A3" stop-opacity=".64"/><stop offset=".71" stop-color="#D500D5" stop-opacity=".83"/><stop offset=".76" stop-color="#F0F"/></linearGradient><radialGradient id="paint0_radial" cx="0" cy="0" r="1" gradientUnits="userSpaceOnUse" gradientTransform="matrix(1786.06 0 0 1811.54 1012.05 815.724)"><stop offset=".05" stop-opacity="0"/><stop offset=".16" stop-color="#030003" stop-opacity=".01"/><stop offset=".25" stop-color="#0D000D" stop-opacity=".05"/><stop offset=".33" stop-color="#1D001D" stop-opacity=".12"/><stop offset=".4" stop-color="#350035" stop-opacity=".21"/><stop offset=".47" stop-color="#530053" stop-opacity=".32"/><stop offset=".54" stop-color="#780078" stop-opacity=".47"/><stop offset=".61" stop-color="#A300A3" stop-opacity=".64"/><stop offset=".67" stop-color="#D500D5" stop-opacity=".83"/><stop offset=".72" stop-color="#F0F"/></radialGradient><radialGradient id="paint2_radial" cx="0" cy="0" r="1" gradientUnits="userSpaceOnUse" gradientTransform="matrix(74.4988 0 0 75.5616 281.545 187.574)"><stop stop-color="#1D1D1B"/><stop offset=".28" stop-color="#1D1D1B" stop-opacity=".45"/><stop offset=".6" stop-color="#1D1D1B" stop-opacity=".11"/><stop offset="1" stop-color="#1D1D1B" stop-opacity="0"/></radialGradient><radialGradient id="paint3_radial" cx="0" cy="0" r="1" gradientUnits="userSpaceOnUse" gradientTransform="matrix(5557.47 0 0 5271.37 72907.5 18937.2)"><stop stop-color="#1D1D1B"/><stop offset=".28" stop-color="#1D1D1B" stop-opacity=".45"/><stop offset=".6" stop-color="#1D1D1B" stop-opacity=".11"/><stop offset="1" stop-color="#1D1D1B" stop-opacity="0"/></radialGradient><radialGradient id="paint5_radial" cx="0" cy="0" r="1" gradientUnits="userSpaceOnUse" gradientTransform="matrix(158.408 0 0 160.668 499.892 173.59)"><stop offset=".01" stop-color="#FDFDFE"/><stop offset=".04" stop-color="#FDFDFE" stop-opacity=".94"/><stop offset=".15" stop-color="#FDFDFE" stop-opacity=".72"/><stop offset=".26" stop-color="#FDFDFE" stop-opacity=".53"/><stop offset=".38" stop-color="#FDFDFE" stop-opacity=".37"/><stop offset=".5" stop-color="#FDFDFE" stop-opacity=".23"/><stop offset=".61" stop-color="#FDFDFE" stop-opacity=".13"/><stop offset=".74" stop-color="#FDFDFE" stop-opacity=".06"/><stop offset=".86" stop-color="#FDFDFE" stop-opacity=".01"/><stop offset="1" stop-color="#FDFDFE" stop-opacity="0"/></radialGradient><radialGradient id="paint6_radial" cx="0" cy="0" r="1" gradientUnits="userSpaceOnUse" gradientTransform="matrix(60.7536 0 0 61.6203 252.161 294.922)"><stop stop-color="#FDFDFE"/><stop offset=".02" stop-color="#FDFDFE" stop-opacity=".98"/><stop offset=".39" stop-color="#FDFDFE" stop-opacity=".57"/><stop offset=".69" stop-color="#FDFDFE" stop-opacity=".26"/><stop offset=".9" stop-color="#FDFDFE" stop-opacity=".07"/><stop offset="1" stop-color="#FDFDFE" stop-opacity="0"/></radialGradient><clipPath id="clip0"><path fill="#fff" d="M0 0h928v785H0z"/></clipPath></defs></svg>