<svg width="36" height="45" fill="none" xmlns="http://www.w3.org/2000/svg"><path d="M34.635.695H1.3a.957.957 0 00-.957.958V43.74c0 .53.428.958.957.958h33.334a.957.957 0 00.957-.958V1.653a.957.957 0 00-.957-.958z" fill="#413068"/><path d="M32.88 23.678H3.376v2.49H32.88v-2.49zm0 5.906H3.376v2.49H32.88v-2.49zm0 5.746H3.376v2.489H32.88v-2.49z" fill="#56408B"/><path d="M22.992 15.538a3.673 3.673 0 00-1.755-2.873c.323-.468.49-1.026.479-1.596a3.194 3.194 0 00-2.552-3.192V5.802h-2.073v1.916h-.638V5.802H14.22v1.916h-.957v2.075h.957v7.022h-.957v2.075h.957v1.277h2.233V18.89h.638v1.277h2.073V18.89a3.667 3.667 0 003.828-3.352zm-4.625-5.745a1.276 1.276 0 01.319 2.394h-2.233V9.793h1.914zm.797 7.022h-2.711v-2.394h2.711a1.275 1.275 0 01.902 2.18c-.239.24-.563.374-.902.374v-.16z" fill="#fff"/></svg>