<svg width="157" height="296" fill="none" xmlns="http://www.w3.org/2000/svg"><path d="M156.265.955h-1.276v7.23h1.276V.955z" fill="#413068"/><path d="M90.395 270.047a5.893 5.893 0 01-3.6-1.18 5.906 5.906 0 01-2.142-3.129l-3.508-13.087a5.969 5.969 0 01.554-4.531 5.958 5.958 0 0110.929 1.339l3.509 13.087a6.069 6.069 0 01-4.306 7.342l-1.436.159zm33.015-36.07a6.537 6.537 0 01-2.871-.798l-11.803-6.544a5.75 5.75 0 01-2.232-7.98 6.058 6.058 0 017.974-2.394l11.803 6.544a6.063 6.063 0 012.392 8.139 6.215 6.215 0 01-5.263 3.033z" fill="#EF9EA3"/><path d="M59.454 105.336L91.83 123.85l-4.945 34.315-27.432-15.641v-37.188z" fill="#fff"/><path d="M81.942 263.663l-22.807-73.098-1.276-66.555a8.78 8.78 0 018.453-8.938 8.765 8.765 0 016.25 2.458 8.773 8.773 0 012.681 6.161l1.276 64.16 19.777 69.747-14.354 6.065z" fill="#fff"/><path opacity=".25" d="M76.36 181.946l-.957-52.031-16.747 26.175.479 34.475 6.539 20.269 22.967 21.228-9.25-33.357-7.816-4.31a1.27 1.27 0 01-.775-1.254 1.27 1.27 0 01.137-.501l5.423-10.694z" fill="#EF9EA3"/><path d="M115.276 232.86c-1.436 0-4.307-2.714-5.582-3.512l-44.658-21.706a18.825 18.825 0 01-8.905-9.856 18.845 18.845 0 01-.186-13.286l19.298-60.809c1.595-4.629 8.453-3.352 12.92-1.756 4.465 1.596 6.538 4.469 8.612 13.407 2.073 8.938 3.987 15.96-3.35 23.621l-3.19 3.671-17.862 27.771a1.278 1.278 0 00.637 1.756l47.529 26.334-5.263 14.365z" fill="#fff"/><path d="M53.712 165.986a2.719 2.719 0 002.233.159l26.954-12.449a3.992 3.992 0 00.16-6.863l-38.757-22.344a8.123 8.123 0 00-8.294 0L8.416 139.492v.638a1.603 1.603 0 00.638 1.117l44.658 24.739z" fill="url(#paint0_linear)"/><path d="M53.712 164.549a2.233 2.233 0 002.233 0l26.954-12.289a3.987 3.987 0 002.033-3.386 3.993 3.993 0 00-1.874-3.477l-38.756-22.345a8.133 8.133 0 00-8.294 0L8.416 139.491l45.296 25.058z" fill="#56408B"/><path d="M51 162.634l24.563-10.853a3.508 3.508 0 001.74-3.032 3.514 3.514 0 00-1.74-3.033l-39.235-22.664-27.273 16.28L51 162.634z" fill="#413068"/><path d="M26.12 132.469a4.63 4.63 0 01-3.828-1.756 5.11 5.11 0 01.479-7.182l21.69-18.674a4.628 4.628 0 001.436-2.394l11.962-37.826a5.106 5.106 0 016.293-3.075 5.104 5.104 0 013.436 6.108l-11.484 39.582c-.797 2.713-.478 2.713-2.552 4.628L29.47 131.192a4.622 4.622 0 01-3.35 1.277z" fill="#F2B1B5"/><path d="M64.238 61.286h-1.276c1.117 1.276-1.435 5.267-1.913 6.863l-8.453 37.506c-.798 2.714-.32 4.948-2.393 6.863l-20.415 16.759c-.957.798-6.06 1.596-7.177 1.596h-.319a4.623 4.623 0 003.828 1.756 4.643 4.643 0 003.35-1.277l24.083-19.312c2.073-1.916 1.754-1.916 2.551-4.629l11.484-39.582a5.112 5.112 0 00-3.35-6.543z" fill="#B68588"/><path d="M58.656 85.067h-1.594a5.74 5.74 0 01-4.109-5.063 5.75 5.75 0 01.28-2.28l3.988-13.087a5.586 5.586 0 014.932-4.106 5.578 5.578 0 012.245.276 5.74 5.74 0 014.053 4.947 5.752 5.752 0 01-.225 2.235l-3.987 13.247a5.905 5.905 0 01-5.583 3.83z" fill="#623FE9"/><path d="M74.605 56.338l15.152 8.778a17.39 17.39 0 018.612 15.003s-1.594 25.856-1.594 34.474c0 8.619 1.594 30.006 1.594 30.006-10.367 6.544-42.903-16.28-42.903-16.28l2.074-31.601-2.074-29.368a12.775 12.775 0 016.4-11.023 12.751 12.751 0 0112.74.01z" fill="#623FE9"/><path d="M72.053 71.82l-.319-2.714s-.797-7.66-.797-10.055l1.914-13.726h8.134v16.759c0 2.234-6.699 9.736-8.932 9.736z" fill="#F2B1B5"/><path d="M1.08 101.825h.479a2.712 2.712 0 011.913.16l46.412 26.494a4.305 4.305 0 012.074 3.352l4.147 31.761c0 .319-.16.479-.479.638l-.638.479-48.007-26.973a5.105 5.105 0 01-1.754-3.831l-4.147-32.08z" fill="#7866A2"/><path d="M.442 103.102c0-1.277.957-1.756 1.914-1.117l47.05 26.973a4.782 4.782 0 011.914 3.511l4.465 30.963c0 1.277-.957 1.756-2.073 1.117L6.343 138.374a5.258 5.258 0 01-1.754-3.99L.442 103.102z" fill="#56408B"/><path d="M24.047 130.713a9.252 9.252 0 014.625 5.427c.638 2.234-.319 3.671-2.233 2.873a8.295 8.295 0 01-4.785-5.267c-.638-2.394.32-3.671 2.393-3.033z" fill="#BBB3D1"/><path opacity=".2" d="M96.775 114.593c0-5.905.797-19.95 1.276-28.25l-.957-5.905a5.107 5.107 0 00-5.901-4.15c-2.712.32 1.594 28.091 1.594 28.091 1.276 7.98-4.146 17.396-10.845 22.025l-14.035 9.736c3.19 1.755 6.698 3.671 10.207 5.267l9.57-6.704a30.63 30.63 0 009.41-10.374c-.16-3.99-.32-7.501-.32-9.736z" fill="#EF9EA3"/><path d="M62.644 147.312c-1.595 0-1.755-1.117-2.712-2.554a12.021 12.021 0 00-1.116-1.915c-.32-.319-3.828 2.075-4.147 1.596-.319-.479-1.754-1.436-.478-2.394l35.885-27.611-3.03-35.751a5.589 5.589 0 013.668-6.065 5.261 5.261 0 016.38 4.15s6.379 37.825 4.465 43.731l-32.217 21.067-1.435 2.394a4.625 4.625 0 01-2.712 2.235 9.416 9.416 0 00-2.551 1.117z" fill="#F2B1B5"/><path d="M97.094 76.767a4.949 4.949 0 00-3.668-3.99c.956.638-2.871 3.99-2.552 5.267.319 1.277 10.845 35.592 8.931 41.497l-32.217 21.227-1.435 2.394a4.941 4.941 0 01-2.712 2.075c-.831.358-1.632.786-2.392 1.277a1.749 1.749 0 001.595.798 9.418 9.418 0 012.552-1.117 4.626 4.626 0 002.711-2.235l1.435-2.394 32.218-21.067c1.914-5.906-4.466-43.732-4.466-43.732zm-40.033 65.278c-.16-.319-2.233.798-3.35 1.437l.958.957c.16.319 1.914-.798 3.03-1.277 1.117-.478-.319-.957-.638-1.117z" fill="#B68588"/><path d="M88.64 96.877c-2.87 0-.478-2.873-.797-5.745l-1.595-12.769a6.068 6.068 0 015.104-6.543 5.737 5.737 0 015.707 2.95c.365.667.593 1.4.673 2.157l1.594 12.768c.479 3.192 3.35 6.225.16 6.544l-10.845.638z" fill="#623FE9"/><path d="M65.514 136.938h-5.741a1.596 1.596 0 01-1.436-1.596 1.439 1.439 0 011.436-1.437h5.741a1.598 1.598 0 011.595 1.437 1.756 1.756 0 01-1.594 1.596z" fill="#F2B1B5"/><path d="M84.813 265.259l-2.073 6.863a20.275 20.275 0 01-4.945 8.619l-6.22 6.384-2.073.958a2.703 2.703 0 00-1.798 1.924 2.718 2.718 0 00.681 2.545 7.97 7.97 0 0010.208 1.276l25.678-17.237a3.66 3.66 0 001.793-2.459 3.666 3.666 0 00-.677-2.967l-8.293-8.938-1.755.638a3.673 3.673 0 01-2.073 2.714l-2.233 1.276a4.143 4.143 0 01-5.263-1.755.483.483 0 00-.558-.399.487.487 0 00-.4.558z" fill="#623FE9"/><path d="M85.77 265.259h-.32c0-.159.16-.159.32 0zm19.617 5.906l-1.435-1.437a3.668 3.668 0 01.677 2.968 3.681 3.681 0 01-1.794 2.459l-25.837 17.237a7.657 7.657 0 01-8.932-.319l.32.478a7.971 7.971 0 0010.207 1.277l25.678-17.237a3.673 3.673 0 001.116-5.426z" fill="#312075"/><path d="M86.089 275.793l.478-1.436-3.987-1.437a4.788 4.788 0 01-.638 1.277l4.147 1.596zm-3.828 6.703l.479-1.276-3.988-1.596-.957 1.117h-.16l4.626 1.755zm1.914-3.351l.478-1.437-3.668-1.276a8.923 8.923 0 00-.797 1.276l3.987 1.437zm4.306-8.14l-4.784-1.756-.479 1.277 4.785 1.756.478-1.277z" fill="#fff"/><path d="M119.901 232.541l3.509 6.384a21.255 21.255 0 012.552 9.416l.319 8.938-.957 2.235a2.872 2.872 0 002.551 3.99 7.978 7.978 0 007.975-6.384l5.901-30.485a3.988 3.988 0 00-3.19-4.628l-12.28-.319-.638 1.596a3.829 3.829 0 01.478 3.511l-.797 2.394a3.822 3.822 0 01-4.785 2.554c-.479 0-.798.478-.638.798z" fill="#623FE9"/><path d="M138.561 222.007h-1.914a4.153 4.153 0 013.031 4.628l-5.902 30.485a7.98 7.98 0 01-6.539 6.224h.638a7.98 7.98 0 007.975-6.384l5.901-30.484a3.995 3.995 0 00-.704-2.871 3.984 3.984 0 00-2.486-1.598z" fill="#312075"/><path d="M128.195 239.084l-.638-1.436-3.828 1.915c.147.455.363.886.638 1.277l3.828-1.756zm2.073 7.502l-.638-1.437-3.828 1.915c.144.41.198.845.16 1.277l4.306-1.755zm-.957-3.831l-.638-1.277-3.509 1.596c.16.479.16.958.319 1.437l3.828-1.756zm-2.712-8.778l-4.784 2.234.797 1.277 4.625-2.234-.638-1.277zM81.304 58.572l-9.25 13.248 8.293 7.82 2.393-19.79-1.436-1.278zM72.053 71.82l-1.275-14.524-6.859 19.152 8.135-4.628z" fill="#fff"/><path d="M81.145 57.615l-6.061.957c-11.803 4.15-17.066 1.277-19.937-6.703-.478-1.117-.637-4.31-.956-5.586l-1.276-1.596-.957-3.99a9.582 9.582 0 014.407-9.865 9.566 9.566 0 013.567-1.308L76.2 26.811l4.945 30.804z" fill="#F2B1B5"/><path d="M53.552 23.14c-2.073 1.437-4.146 3.192-4.465 5.746.033 1.229.14 2.455.319 3.671.478 2.713.638 5.426 2.392 7.82 0-1.276-.638-7.182 2.233-6.224 2.87.958 1.754 1.756 2.711 2.713a5.103 5.103 0 004.147 1.437c3.509-.48 5.742-4.47 9.091-5.108a3.984 3.984 0 012.392.16 1.435 1.435 0 01.957.958c2.871 3.67-1.913 7.98.16 11.81h.16c.318.16.478-.16.637-.478.16-.32 2.871-3.831 3.35-.32.478 3.511-.957 10.055 2.233 10.374 3.19.32 3.987-5.426 4.944-7.66.957-2.235.478-3.512.957-5.267a16.291 16.291 0 000-7.821 21.715 21.715 0 01-.32-3.192c.239-1.427.398-2.865.48-4.31a7.823 7.823 0 00-2.074-4.947 9.885 9.885 0 00-4.466-2.235h-.638c-.478-.478-.319-1.117-.638-1.755a2.234 2.234 0 00-1.914-1.596h-2.552l-8.931 1.117c-2.483.05-4.906.767-7.018 2.075l-1.754 1.277-2.393 1.755z" fill="#413068"/><path d="M50.841 33.195a9.583 9.583 0 01-.319-3.67c.16-2.554 2.233-4.31 4.466-5.746l2.392-1.756 1.755-1.277a14.984 14.984 0 016.858-2.075l8.931-.957a7.808 7.808 0 012.712-.16l-1.436-.638h-2.552l-8.931 1.117c-2.483.05-4.906.767-7.018 2.075l-1.754 1.277-2.393 1.755c-2.073 1.437-4.146 3.192-4.465 5.746a30.87 30.87 0 00.319 3.67c.478 2.714.638 5.428 2.392 7.822v-2.075a28.744 28.744 0 01-.957-5.108z" fill="#56408B"/><path d="M81.623 45.006a3.193 3.193 0 01-3.19 3.192 3.187 3.187 0 01-3.092-1.932 3.197 3.197 0 01-.257-1.26 3.354 3.354 0 013.27-4.079 3.348 3.348 0 013.262 2.592c.113.489.116.997.007 1.487z" fill="#F2B1B5"/><defs><linearGradient id="paint0_linear" x1="85.02" y1="144.822" x2="8.48" y2="144.822" gradientUnits="userSpaceOnUse"><stop stop-color="#623FE9"/><stop offset=".17" stop-color="#6D49E8"/><stop offset=".7" stop-color="#8C65E5"/><stop offset="1" stop-color="#976FE4"/></linearGradient></defs></svg>