<svg width="70" height="42" fill="none" xmlns="http://www.w3.org/2000/svg"><path d="M66.624.118H3.465A3.191 3.191 0 00.275 3.31v34.506a3.191 3.191 0 003.19 3.192h63.159a3.19 3.19 0 003.19-3.192V3.31a3.19 3.19 0 00-3.19-3.192z" fill="#413068"/><path d="M35.045 4.587H7.134v2.49h27.91v-2.49zm-13.876 5.426H7.134v2.49h14.035v-2.49z" fill="#56408B"/><path d="M4.103 35.23a105.685 105.685 0 017.337-9.895 5.582 5.582 0 013.19-2.234c1.914-.32 3.668 1.117 5.103 2.394a12.28 12.28 0 005.742 3.67c2.711.48 5.423-.957 7.975-2.234a19.462 19.462 0 005.9-4.31c1.436-1.914 2.234-4.308 4.148-5.745a2.39 2.39 0 011.116-.479 2.072 2.072 0 011.914.798 19.157 19.157 0 012.552 5.108 5.746 5.746 0 003.668 3.99c2.393.479 4.466-1.596 5.742-3.671 1.276-2.075 2.233-4.629 4.306-5.905a1.914 1.914 0 012.073-.16c.798.32.957 1.277.957 2.234l.957 10.375c.16 1.436.32 4.947-.478 6.065H4.103z" fill="url(#paint0_linear)"/><defs><linearGradient id="paint0_linear" x1="10591.4" y1="2430.04" x2="13068" y2="2430.04" gradientUnits="userSpaceOnUse"><stop stop-color="#E967CD"/><stop offset=".33" stop-color="#EF83AC"/><stop offset="1" stop-color="#FEC55E"/></linearGradient></defs></svg>