<svg width="122" height="53" fill="none" xmlns="http://www.w3.org/2000/svg"><path d="M114.203.28H6.866A6.86 6.86 0 00.008 7.141v38.066a6.86 6.86 0 006.858 6.863h107.337a6.86 6.86 0 006.858-6.863V7.142a6.86 6.86 0 00-6.858-6.863z" fill="#413068"/><path d="M9.258 7.461H7.025v37.411h2.233V7.462zm5.582 0h-2.233v37.411h2.233V7.462zm5.742 0h-2.233v37.411h2.233V7.462zm5.582 0h-2.233v37.411h2.233V7.462zm5.742 0h-2.233v37.411h2.233V7.462zm5.582 0h-2.233v37.411h2.233V7.462z" fill="#56408B"/><path d="M9.258 44.968H7.025V28.369h2.233v16.599zm5.582-23.302h-2.233v23.302h2.233V21.666zm5.742-3.511h-2.233v26.813h2.233V18.155zm5.582 3.51h-2.233v23.303h2.233V21.666zm5.742-6.862h-2.233v30.165h2.233V14.803zm5.582-3.83h-2.233v33.995h2.233V10.972z" fill="url(#paint0_linear)"/><path d="M62.688 13.845a6.228 6.228 0 01-3.766 5.878 6.216 6.216 0 01-6.85-1.319A6.226 6.226 0 0156.626 7.78a6.059 6.059 0 016.06 6.065zm52.791-5.107H66.037v1.644h49.442V8.738zm0 4.788H66.037v1.644h49.442v-1.644zm-28.708 4.788H66.037v1.644h20.734v-1.644zM62.688 37.467a6.23 6.23 0 01-3.532 6.644 6.215 6.215 0 01-7.345-1.616 6.227 6.227 0 014.736-10.26 6.217 6.217 0 016.14 5.232zm52.791-5.107H66.037v1.643h49.442V32.36zm0 4.788H66.037v1.643h49.442v-1.643zm-28.708 4.788H66.037v1.644h20.734v-1.644z" fill="#56408B"/><path d="M58.86 14.643c.16-.16.319 0 .16.16l-2.234 3.83h-.319l-2.392-3.83c-.16 0 0-.32.16-.16l2.392.798 2.233-.798z" fill="#413068"/><path d="M54.075 13.845l2.393-4.788h.318l2.233 4.788c.16.16 0 .16 0 .16l-2.392.958-2.552-.958v-.16z" fill="#00A651"/><path d="M54.075 13.845l2.393-4.788h.318l2.233 4.788c.16.16 0 .16 0 .16l-2.392.958-2.552-.958v-.16z" fill="#413068"/><path d="M56.627 12.409V8.898h-.16l-2.392 4.788 2.552-1.277z" fill="#3C2B5E"/><path d="M56.627 8.898v3.511l2.392 1.596-2.233-4.788-.159-.32z" fill="#4E3A7D"/><path d="M57.265 40.34H55.19a.957.957 0 01-.956-.798v-.48h3.03a.479.479 0 00.478-.478c0-.32-.16-.479-.319-.479H55.83a1.594 1.594 0 01-1.595-1.596 1.916 1.916 0 011.913-1.915h2.074a.957.957 0 01.797.957v.48h-2.87a.638.638 0 00-.639.638l.32.319h1.594a1.594 1.594 0 011.595 1.756 1.756 1.756 0 01-1.754 1.596z" fill="#413068"/><defs><linearGradient id="paint0_linear" x1="8005.96" y1="3354.44" x2="8588.71" y2="3354.44" gradientUnits="userSpaceOnUse"><stop stop-color="#E967CD"/><stop offset=".33" stop-color="#EF83AC"/><stop offset="1" stop-color="#FEC55E"/></linearGradient></defs></svg>