<svg width="84" height="44" fill="none" xmlns="http://www.w3.org/2000/svg"><path d="M80.523.314H3.968a3.19 3.19 0 00-3.19 3.192v37.076a3.19 3.19 0 003.19 3.192h76.555a3.19 3.19 0 003.19-3.192V3.506a3.19 3.19 0 00-3.19-3.192z" fill="#413068"/><path d="M9.709 3.825H4.924v2.442H9.71V3.825zM78.45 7.656H41.448v2.441H78.45V7.656zm0 7.022H41.448v2.442H78.45v-2.442zm0 6.863H41.448v2.442H78.45v-2.442zm-15.79 6.863H41.448v2.442H62.66v-2.442zM9.709 10.528H4.924v2.442H9.71v-2.442zm0 6.704H4.924v2.442H9.71v-2.442zm0 6.863H4.924v2.442H9.71v-2.442zm0 6.703H4.924v2.442H9.71v-2.442zm0 6.704H4.924v2.441H9.71v-2.441zM26.137 4.463v11.332l7.974 8.14a11.491 11.491 0 003.35-8.14c0-3.005-1.194-5.887-3.317-8.013a11.32 11.32 0 00-8.007-3.319z" fill="#56408B"/><path d="M17.524 7.815a11.011 11.011 0 00-3.349 7.98h11.324V4.463a11.32 11.32 0 00-7.975 3.352z" fill="url(#paint0_linear)"/><path d="M25.499 16.434H14.175c0 3.005 1.193 5.887 3.317 8.012a11.32 11.32 0 008.007 3.32 10.997 10.997 0 007.975-3.352l-7.975-7.98z" fill="#56408B"/><defs><linearGradient id="paint0_linear" x1="14.191" y1="10.161" x2="25.515" y2="10.161" gradientUnits="userSpaceOnUse"><stop stop-color="#E967CD"/><stop offset=".33" stop-color="#EF83AC"/><stop offset="1" stop-color="#FEC55E"/></linearGradient></defs></svg>