<svg width="94" height="31" fill="none" xmlns="http://www.w3.org/2000/svg"><path d="M89.004.127H5.272a4.308 4.308 0 00-4.307 4.31v21.546c0 2.38 1.928 4.31 4.307 4.31h83.732a4.308 4.308 0 004.307-4.31V4.437c0-2.38-1.928-4.31-4.307-4.31z" fill="#413068"/><path d="M89.004.127H5.272a4.305 4.305 0 00-4.307 4.31V7.15H93.47V4.437a4.47 4.47 0 00-4.466-4.31zM21.7 19.12a7.186 7.186 0 01-4.357 6.763 7.173 7.173 0 01-7.894-1.527 7.184 7.184 0 015.233-12.259c1.86 0 3.646.74 4.962 2.057a7.025 7.025 0 012.055 4.966zm63.955-6.544H25.527v1.9h60.128v-1.9zm0 5.586H25.527v1.9h60.128v-1.9zm-37.64 5.586H25.527v1.9h22.488v-1.9z" fill="#56408B"/><path d="M9.418 3.638a.958.958 0 11-1.916 0 .958.958 0 011.916 0zm3.828 0a.958.958 0 01-.797.958.957.957 0 010-1.915.957.957 0 01.797.957zm3.987 0a.958.958 0 11-1.916 0 .958.958 0 011.916 0z" fill="#413068"/></svg>