<svg width="79" height="72" fill="none" xmlns="http://www.w3.org/2000/svg"><path d="M70.505 63.608c-9.57 11.81-31.899 9.736-50.08-4.788C2.241 44.296-4.936 23.07 4.474 11.1c9.41-11.97 31.898-9.736 50.08 4.788 18.182 14.524 25.36 35.91 15.95 47.721z" fill="url(#paint0_linear)"/><path opacity=".39" d="M70.505 63.608c-9.57 11.81-31.899 9.736-50.08-4.788C2.241 44.296-4.936 23.07 4.474 11.1c9.41-11.97 31.898-9.736 50.08 4.788 18.182 14.524 25.36 35.91 15.95 47.721z" fill="#231F20"/><path d="M74.651 60.735c-9.41 11.811-31.738 9.736-49.92-4.788C6.549 41.423-.63 20.196 8.78 8.385c9.41-11.81 31.899-9.736 50.08 4.629 18.183 14.364 25.2 35.91 15.79 47.721z" fill="url(#paint1_linear)"/><path d="M50.887 47.967c1.276-1.756.957-4.628-.638-7.342a4.943 4.943 0 003.19-1.755c1.754-2.235.797-6.225-1.914-9.417l2.392-3.032-4.944-3.831-2.233 2.873-1.595-1.277 2.233-2.873-4.944-3.83-2.233 2.713-2.392-1.915-2.552 3.192 2.392 1.915-8.293 10.534-2.393-2.075-2.551 3.192 2.392 2.075-1.595 1.915 4.944 3.99 1.595-2.075 1.595 1.277-1.595 2.075 4.945 3.83 1.594-2.074c4.785 3.83 10.367 4.628 12.6 1.915zM47.06 30.889c1.595 1.277 2.233 3.192 1.436 4.15a2.87 2.87 0 01-3.35.16l-5.422-4.31 2.87-3.51 4.466 3.51zm-6.38 11.97l-6.38-5.106 2.87-3.51 4.467 3.51 1.595 1.118.478.319c1.914 1.596 3.03 3.83 2.233 4.788-.797.958-3.19.479-5.263-1.117z" fill="#fff"/><defs><linearGradient id="paint0_linear" x1=".392" y1="37.385" x2="74.588" y2="37.385" gradientUnits="userSpaceOnUse"><stop stop-color="#5DDAF4"/><stop offset="1" stop-color="#976FE4"/></linearGradient><linearGradient id="paint1_linear" x1="28679.3" y1="16386.8" x2="32130.5" y2="16386.8" gradientUnits="userSpaceOnUse"><stop stop-color="#5DDAF4"/><stop offset="1" stop-color="#976FE4"/></linearGradient></defs></svg>