<svg width="39" height="51" fill="none" xmlns="http://www.w3.org/2000/svg"><path d="M35.736 31.598C40.521 18.99 37.97 6.221 30.154 2.55h-.319l-.478-.319-1.914-.479C19.309.316 9.739 8.136 5.273 20.107c-4.465 11.97-2.392 24.898 5.104 28.888h-.319l1.436.479h.16a5.58 5.58 0 001.754.479h.16c8.133 1.436 17.543-6.225 22.168-18.355z" fill="url(#paint0_linear)"/><path opacity=".39" d="M35.736 31.598C40.521 18.99 37.97 6.221 30.154 2.55h-.319l-.478-.319-1.914-.479C19.309.316 9.739 8.136 5.273 20.107c-4.465 11.97-2.392 24.898 5.104 28.888h-.319l1.436.479h.16a5.58 5.58 0 001.754.479h.16c8.133 1.436 17.543-6.225 22.168-18.355z" fill="#231F20"/><path d="M33.025 30.8c-4.944 12.928-15.79 21.068-24.083 17.876-8.294-3.192-11.324-16.28-6.38-29.367C7.507 6.22 18.192-1.76 26.645 1.433 35.1 4.625 37.97 17.713 33.026 30.8z" fill="url(#paint1_linear)"/><defs><linearGradient id="paint0_linear" x1="-3712.42" y1="9310.86" x2="-3077.42" y2="9660.96" gradientUnits="userSpaceOnUse"><stop stop-color="#976FE4"/><stop offset="1" stop-color="#EF9EA3"/></linearGradient><linearGradient id="paint1_linear" x1="-3782.41" y1="9309.92" x2="-3146.38" y2="9660.59" gradientUnits="userSpaceOnUse"><stop stop-color="#976FE4"/><stop offset="1" stop-color="#EF9EA3"/></linearGradient></defs></svg>