<svg width="145" height="144" fill="none" xmlns="http://www.w3.org/2000/svg"><path d="M98.026 101.866c10.2-6.453 9.426-25.999-1.73-43.657C85.142 40.55 67.83 31.467 57.63 37.919c-10.2 6.454-9.426 26 1.73 43.658 11.154 17.658 28.466 26.742 38.667 20.289z" fill="url(#paint0_linear)"/><path opacity=".39" d="M98.026 101.866c10.2-6.453 9.426-25.999-1.73-43.657C85.142 40.55 67.83 31.467 57.63 37.919c-10.2 6.454-9.426 26 1.73 43.658 11.154 17.658 28.466 26.742 38.667 20.289z" fill="#231F20"/><path d="M72.674 39.258c-14.992-7.98-26.795-.479-26.157 16.44.638 16.917 13.557 37.347 28.709 45.327 15.151 7.98 26.794.479 25.997-16.44-.798-16.917-13.397-37.506-28.549-45.327z" fill="url(#paint1_linear)"/><path style="mix-blend-mode:screen" d="M108.253 107.777c19.807-19.82 19.807-51.956 0-71.777-19.807-19.82-51.92-19.82-71.727 0-19.806 19.82-19.806 51.956 0 71.777 19.807 19.82 51.92 19.82 71.727 0z" fill="url(#paint2_radial)"/><defs><linearGradient id="paint0_linear" x1="5474.95" y1="18704.7" x2="6977.71" y2="18695.4" gradientUnits="userSpaceOnUse"><stop stop-color="#5DDAF4"/><stop offset="1" stop-color="#976FE4"/></linearGradient><linearGradient id="paint1_linear" x1="6549.2" y1="16868.7" x2="8429.41" y2="16868.7" gradientUnits="userSpaceOnUse"><stop stop-color="#5DDAF4"/><stop offset="1" stop-color="#976FE4"/></linearGradient><radialGradient id="paint2_radial" cx="0" cy="0" r="1" gradientUnits="userSpaceOnUse" gradientTransform="matrix(3229.74 0 0 3232.01 13702.4 25203.3)"><stop stop-color="#5DDAF4"/><stop offset=".02" stop-color="#59D1EA"/><stop offset=".11" stop-color="#44A0B3"/><stop offset=".21" stop-color="#327584"/><stop offset=".3" stop-color="#23515B"/><stop offset=".4" stop-color="#16343A"/><stop offset=".5" stop-color="#0C1D20"/><stop offset=".61" stop-color="#050D0E"/><stop offset=".72" stop-color="#010304"/><stop offset=".84"/></radialGradient></defs></svg>