<svg width="89" height="91" fill="none" xmlns="http://www.w3.org/2000/svg"><path d="M64.998 71.474c11.713-10.298 11.406-29.811-.687-43.585-12.092-13.774-31.39-16.593-43.103-6.296-11.713 10.298-11.405 29.811.687 43.586 12.092 13.774 31.39 16.592 43.103 6.295z" fill="url(#paint0_linear)"/><path opacity=".39" d="M64.998 71.474c11.713-10.298 11.406-29.811-.687-43.585-12.092-13.774-31.39-16.593-43.103-6.296-11.713 10.298-11.405 29.811.687 43.586 12.092 13.774 31.39 16.592 43.103 6.295z" fill="#231F20"/><path d="M65.108 71.781c13.001-8.61 15.343-27.986 5.23-43.275-10.112-15.289-28.85-20.702-41.85-12.09-13.001 8.61-15.343 27.986-5.23 43.275 10.112 15.288 28.849 20.702 41.85 12.09z" fill="url(#paint1_linear)"/><path d="M51.079 53.565c.638.319.638 1.117 0 1.277l-17.066 1.915a.797.797 0 01-.797-.798l3.509-17.397c.16-.639 1.116-.479 1.276.16l4.146 9.416 8.932 5.427z" fill="#F2F2F2"/><path d="M39.436 36.008l20.733-3.67c.32-.16.639.319.639.638L53.79 52.447c0 .32-.32.32-.479.16l-9.57-5.746-4.624-10.214c0-.32 0-.639.319-.639z" fill="#F2F2F2"/><path d="M50.76 41.275l9.888-8.778h-.479l-20.733 3.67h-.32l11.644 5.108zm9.888-8.778l-9.888 8.778 2.87 11.492c.16-.16.16-.16.16-.32l7.018-19.471a.638.638 0 00-.16-.479z" fill="#F2F2F2"/><path style="mix-blend-mode:screen" d="M43.222 88.505c23.871 0 43.222-19.365 43.222-43.252C86.444 21.365 67.094 2 43.222 2 19.352 2 0 21.365 0 45.253 0 69.14 19.351 88.505 43.222 88.505z" fill="url(#paint2_radial)"/><defs><linearGradient id="paint0_linear" x1="451.44" y1="14386.7" x2="2611.03" y2="14386.7" gradientUnits="userSpaceOnUse"><stop stop-color="#5DDAF4"/><stop offset="1" stop-color="#976FE4"/></linearGradient><linearGradient id="paint1_linear" x1="-1419.34" y1="14104.1" x2="720.323" y2="14397" gradientUnits="userSpaceOnUse"><stop stop-color="#5DDAF4"/><stop offset="1" stop-color="#976FE4"/></linearGradient><radialGradient id="paint2_radial" cx="0" cy="0" r="1" gradientUnits="userSpaceOnUse" gradientTransform="matrix(43.2062 0 0 43.2366 43.206 45.237)"><stop stop-color="#02242B"/><stop offset=".02" stop-color="#59D1EA"/><stop offset=".11" stop-color="#44A0B3"/><stop offset=".21" stop-color="#327584"/><stop offset=".3" stop-color="#23515B"/><stop offset=".4" stop-color="#16343A"/><stop offset=".5" stop-color="#0C1D20"/><stop offset=".61" stop-color="#050D0E"/><stop offset=".72" stop-color="#010304"/><stop offset=".84"/></radialGradient></defs></svg>