<svg width="103" height="104" fill="none" xmlns="http://www.w3.org/2000/svg"><path d="M70.035 56.852C65.888 70.42 52.491 78.24 40.21 74.57c-12.28-3.671-18.82-17.876-14.673-31.283S42.922 21.9 55.203 25.57c12.28 3.671 18.979 17.876 14.832 31.282z" fill="url(#paint0_linear)"/><path opacity=".39" d="M70.035 56.852C65.888 70.42 52.491 78.24 40.21 74.57c-12.28-3.671-18.82-17.876-14.673-31.283S42.922 21.9 55.203 25.57c12.28 3.671 18.979 17.876 14.832 31.282z" fill="#231F20"/><path d="M74.182 57.65c-4.147 13.407-17.544 21.387-29.825 17.557-12.28-3.83-18.82-17.716-14.673-31.282 4.146-13.567 17.384-21.387 29.665-17.557 12.28 3.83 18.98 17.716 14.833 31.283z" fill="url(#paint1_linear)"/><path style="mix-blend-mode:screen" d="M77.287 77.916c14.2-14.21 14.2-37.251 0-51.462-14.201-14.211-37.226-14.211-51.427 0-14.2 14.21-14.2 37.252 0 51.463 14.201 14.21 37.226 14.21 51.427 0z" fill="url(#paint2_radial)"/><defs><linearGradient id="paint0_linear" x1="32375.1" y1="2915.07" x2="33149.6" y2="1632.49" gradientUnits="userSpaceOnUse"><stop stop-color="#976FE4"/><stop offset="1" stop-color="#EF9EA3"/></linearGradient><linearGradient id="paint1_linear" x1="32497.3" y1="2931.47" x2="33271.8" y2="1648.89" gradientUnits="userSpaceOnUse"><stop stop-color="#976FE4"/><stop offset="1" stop-color="#EF9EA3"/></linearGradient><radialGradient id="paint2_radial" cx="0" cy="0" r="1" gradientUnits="userSpaceOnUse" gradientTransform="matrix(36.3321 0 0 36.3577 51.677 52.233)"><stop stop-color="#EF9EA3"/><stop offset=".01" stop-color="#EA9A9F"/><stop offset=".1" stop-color="#B3777A"/><stop offset=".2" stop-color="#83575A"/><stop offset=".3" stop-color="#5B3C3E"/><stop offset=".4" stop-color="#3A2628"/><stop offset=".5" stop-color="#201516"/><stop offset=".61" stop-color="#0E090A"/><stop offset=".72" stop-color="#040202"/><stop offset=".84"/></radialGradient></defs></svg>