<svg width="87" height="88" fill="none" xmlns="http://www.w3.org/2000/svg"><path d="M55.037 48.106c3.03-8.3 1.435-16.439-3.668-18.833h-.479l-1.276-.32c-5.263-.957-11.483 4.15-14.513 11.971-3.03 7.82-1.436 16.28 3.508 18.833h-.159l.797.32 1.276.319h.16c5.104.479 11.324-4.47 14.354-12.29z" fill="url(#paint0_linear)"/><path opacity=".39" d="M55.037 48.106c3.03-8.3 1.435-16.439-3.668-18.833h-.479l-1.276-.32c-5.263-.957-11.483 4.15-14.513 11.971-3.03 7.82-1.436 16.28 3.508 18.833h-.159l.797.32 1.276.319h.16c5.104.479 11.324-4.47 14.354-12.29z" fill="#231F20"/><path d="M53.282 47.468c-3.19 8.618-10.207 13.726-15.79 11.65-5.581-2.074-7.336-10.533-4.146-18.992 3.19-8.459 10.367-13.726 15.79-11.651 5.422 2.075 7.336 10.534 4.146 18.993z" fill="url(#paint1_linear)"/><path style="mix-blend-mode:screen" d="M65.06 65.839c11.96-11.967 11.96-31.37 0-43.337-11.958-11.967-31.347-11.967-43.306 0-11.958 11.967-11.958 31.37 0 43.337 11.96 11.967 31.348 11.967 43.307 0z" fill="url(#paint2_radial)"/><defs><linearGradient id="paint0_linear" x1="3437.82" y1="7256.97" x2="3707.7" y2="7405.76" gradientUnits="userSpaceOnUse"><stop stop-color="#976FE4"/><stop offset="1" stop-color="#EF9EA3"/></linearGradient><linearGradient id="paint1_linear" x1="3428.79" y1="7252.13" x2="3699.61" y2="7401.44" gradientUnits="userSpaceOnUse"><stop stop-color="#976FE4"/><stop offset="1" stop-color="#EF9EA3"/></linearGradient><radialGradient id="paint2_radial" cx="0" cy="0" r="1" gradientUnits="userSpaceOnUse" gradientTransform="matrix(1178.96 0 0 1179.79 17914.6 8734.84)"><stop stop-color="#EF9EA3"/><stop offset=".01" stop-color="#EA9A9F"/><stop offset=".1" stop-color="#B3777A"/><stop offset=".2" stop-color="#83575A"/><stop offset=".3" stop-color="#5B3C3E"/><stop offset=".4" stop-color="#3A2628"/><stop offset=".5" stop-color="#201516"/><stop offset=".61" stop-color="#0E090A"/><stop offset=".72" stop-color="#040202"/><stop offset=".84"/></radialGradient></defs></svg>