<svg width="89" height="89" fill="none" xmlns="http://www.w3.org/2000/svg"><path opacity=".39" d="M65.14 55.712c3.18-5.694-2.22-14.772-12.062-20.277-9.842-5.504-20.398-5.35-23.578.343-3.18 5.694 2.22 14.773 12.062 20.277 9.842 5.504 20.399 5.35 23.579-.343z" fill="#231F20"/><path d="M36.705 32.217c-9.09 0-12.76 6.703-8.134 14.524 4.625 7.82 16.109 14.205 25.36 14.205 9.25 0 12.759-6.704 8.133-14.684-4.625-7.98-16.108-14.205-25.359-14.045z" fill="url(#paint0_linear)"/><path style="mix-blend-mode:screen" d="M68.19 64.484c10.948-13.244 9.095-32.863-4.14-43.82-13.235-10.956-32.84-9.101-43.788 4.143-10.949 13.244-9.095 32.862 4.14 43.819 13.234 10.956 32.839 9.102 43.787-4.142z" fill="url(#paint1_radial)"/><path d="M65.14 55.712c3.18-5.694-2.22-14.772-12.062-20.277-9.842-5.504-20.398-5.35-23.578.343-3.18 5.694 2.22 14.773 12.062 20.277 9.842 5.504 20.399 5.35 23.579-.343z" fill="url(#paint2_linear)"/><defs><linearGradient id="paint0_linear" x1="19493" y1="-11416.7" x2="20106.2" y2="-11749.4" gradientUnits="userSpaceOnUse"><stop stop-color="#5DDAF4"/><stop offset="1" stop-color="#976FE4"/></linearGradient><linearGradient id="paint2_linear" x1="11825.4" y1="-7841.47" x2="12210.5" y2="-8053.52" gradientUnits="userSpaceOnUse"><stop stop-color="#5DDAF4"/><stop offset="1" stop-color="#976FE4"/></linearGradient><radialGradient id="paint1_radial" cx="0" cy="0" r="1" gradientUnits="userSpaceOnUse" gradientTransform="matrix(1213.55 0 0 1214.41 25442.9 5887.03)"><stop stop-color="#5DDAF4"/><stop offset=".02" stop-color="#59D1EA"/><stop offset=".11" stop-color="#44A0B3"/><stop offset=".21" stop-color="#327584"/><stop offset=".3" stop-color="#23515B"/><stop offset=".4" stop-color="#16343A"/><stop offset=".5" stop-color="#0C1D20"/><stop offset=".61" stop-color="#050D0E"/><stop offset=".72" stop-color="#010304"/><stop offset=".84"/></radialGradient></defs></svg>