<svg width="68" height="69" fill="none" xmlns="http://www.w3.org/2000/svg"><path d="M46.212 54.467c11.552-7.8 15.558-22.07 8.948-31.873-6.61-9.804-21.333-11.429-32.884-3.63-11.551 7.8-15.557 22.07-8.947 31.873 6.61 9.804 21.332 11.429 32.883 3.63z" fill="url(#paint0_linear)"/><path opacity=".39" d="M46.212 54.467c11.552-7.8 15.558-22.07 8.948-31.873-6.61-9.804-21.333-11.429-32.884-3.63-11.551 7.8-15.557 22.07-8.947 31.873 6.61 9.804 21.332 11.429 32.883 3.63z" fill="#231F20"/><path d="M41.624 49.532C54.08 43.318 59.907 29.71 54.64 19.14 49.373 8.57 35.007 5.038 22.552 11.252 10.097 17.466 4.269 31.073 9.536 41.644c5.267 10.57 19.633 14.102 32.088 7.888z" fill="url(#paint1_linear)"/><path d="M39.581 27.56c.319-.48.957-.32.957.159v13.087c0 .32-.32.639-.638.48l-12.76-4.31a.479.479 0 01.16-.798l7.496-2.235 4.785-6.384z" fill="#fff"/><path d="M25.227 34.742l-.798-15.96c0-.16.32-.48.479-.32l14.035 7.022c.16 0 .32.16.16.48l-5.264 6.543-8.134 2.554c-.16 0-.478 0-.478-.32z" fill="#BEF0FB"/><path d="M30.171 26.761l-5.582-8.3v.32l.797 15.96c0 .16.16.16.16.32l4.625-8.3z" fill="#F2F2F2"/><path d="M24.589 18.462l5.582 8.3 8.932-1.118h-.16l-14.035-7.023-.32-.16z" fill="#F2F2F2"/><defs><linearGradient id="paint0_linear" x1="12029.7" y1="-21516.2" x2="12217.2" y2="-22970.8" gradientUnits="userSpaceOnUse"><stop stop-color="#5DDAF4"/><stop offset="1" stop-color="#976FE4"/></linearGradient><linearGradient id="paint1_linear" x1="12144.2" y1="-20259.3" x2="12519.8" y2="-21675" gradientUnits="userSpaceOnUse"><stop stop-color="#5DDAF4"/><stop offset="1" stop-color="#976FE4"/></linearGradient></defs></svg>