<svg width="37" height="29" fill="none" xmlns="http://www.w3.org/2000/svg"><path d="M21.895 24.597c-9.57 3.352-19.139.958-21.372-5.267C-1.71 13.106 4.351 5.126 13.92 1.774 23.49-1.578 33.06.816 35.292 7.2c2.233 6.385-3.828 14.046-13.397 17.397z" fill="url(#paint0_linear)"/><path opacity=".39" d="M21.895 24.597c-9.57 3.352-19.139.958-21.372-5.267C-1.71 13.106 4.351 5.126 13.92 1.774 23.49-1.578 33.06.816 35.292 7.2c2.233 6.385-3.828 14.046-13.397 17.397z" fill="#231F20"/><path d="M22.692 27.15c-9.57 3.353-19.139.958-21.371-5.426C-.912 15.34 5.148 7.68 14.877 4.327c9.73-3.351 19.14-.957 21.213 5.427 2.073 6.384-3.828 14.045-13.398 17.397z" fill="url(#paint1_linear)"/><defs><linearGradient id="paint0_linear" x1="6711.21" y1="5576.22" x2="7509.36" y2="5576.22" gradientUnits="userSpaceOnUse"><stop stop-color="#976FE4"/><stop offset="1" stop-color="#EF9EA3"/></linearGradient><linearGradient id="paint1_linear" x1="6722.31" y1="5618.64" x2="7519.36" y2="5618.64" gradientUnits="userSpaceOnUse"><stop stop-color="#976FE4"/><stop offset="1" stop-color="#EF9EA3"/></linearGradient></defs></svg>