<svg width="265" height="205" fill="none" xmlns="http://www.w3.org/2000/svg"><path d="M228.749 136.192l2.552-.319-2.871-9.895-4.944 1.436 5.263 8.778z" fill="#F2B1B5"/><path d="M184.73 144.491l4.944.479c2.719.32 5.472.158 8.134-.479l30.942-8.299-5.264-8.778-36.842 4.948a7.327 7.327 0 01-3.19-.32l-21.212-8.618 4.465 5.107 18.023 15.96z" fill="#56408B"/><path d="M231.301 135.873l6.858 1.756 1.117-.479c.26-.203.459-.476.572-.786.112-.311.135-.647.066-.97L238 127.573a3.19 3.19 0 00-3.668-2.553l-5.902.957 2.871 9.896z" fill="#D77EDB"/><path d="M237.043 136.99a1.597 1.597 0 00.638-1.756l-1.914-7.82a2.72 2.72 0 00-1.914-2.235h.479a3.192 3.192 0 013.668 2.554l1.914 7.821a1.758 1.758 0 01-.638 1.755l-1.117.479-1.595-.319.479-.479z" fill="#071835"/><path d="M56.34 47.612l-4.467-1.277V44.58l6.38 1.596 1.914 1.755.319-.638-.479-.958-4.784-3.83a2.554 2.554 0 01-.798-1.596v-.958l6.54 4.31 4.146 1.755 3.03 5.107.638 4.948 23.605 19.79 28.868 2.714-3.349 13.247-32.377-6.703-19.777-23.302-3.19-2.873-3.509-5.586-5.741-1.915-.638-.639-.479-1.117 7.177 1.596v-1.437l-3.03-2.234z" fill="#E1D7C5"/><path d="M56.34 47.612l-4.467-1.277V44.58l6.38 1.596 1.914 1.755.319-.638-.479-.958-4.784-3.83a2.554 2.554 0 01-.798-1.596v-.958l6.54 4.31 4.146 1.755 3.03 5.107.638 4.948 23.605 19.79 28.868 2.714-3.349 13.247-32.377-6.703-19.777-23.302-3.19-2.873-3.509-5.586-5.741-1.915-.638-.639-.479-1.117 7.177 1.596v-1.437l-3.03-2.234z" fill="#F2B1B5"/><path d="M1.315 39.313l29.825 28.09a2.87 2.87 0 002.551.798l36.843-5.427a3.349 3.349 0 002.233-1.596l.478-1.276L39.752 32.13.996 35.482l-.32.639a2.875 2.875 0 00.639 3.192z" fill="#413068"/><path d="M.996 35.482l31.26 29.367a2.71 2.71 0 002.392.798l38.598-5.746-32.218-30.484L.996 35.482z" fill="#56408B"/><path d="M8.492 38.195l24.88 23.462a3.04 3.04 0 001.914.639l30.144-3.99a.637.637 0 00.32-1.118L43.74 36.44 8.491 38.195zM4.026 4.36L.996 34.045A1.757 1.757 0 002.59 36.28l40.192-1.915a2.87 2.87 0 002.233-1.756l3.03-29.686c.478-.958-.479-2.075-1.595-2.075L6.259 2.763A2.391 2.391 0 004.026 4.36z" fill="#413068"/><path d="M5.302 4.998l-3.03 30.325a1.597 1.597 0 001.595 2.074l40.191-1.915a2.87 2.87 0 002.393-1.596l2.87-30.325a1.597 1.597 0 00-1.594-2.074L7.535 3.402a2.391 2.391 0 00-2.233 1.596z" fill="#56408B"/><path d="M7.535 6.594L4.824 33.567a1.438 1.438 0 001.435 1.915l35.886-1.755a2.39 2.39 0 002.073-1.437L46.77 5.317a1.438 1.438 0 00-1.436-1.915L9.608 5.157a2.232 2.232 0 00-2.073 1.437z" fill="#334A88"/><path d="M7.535 6.594L4.824 33.567a1.438 1.438 0 001.435 1.915l35.886-1.755a2.39 2.39 0 002.073-1.437L46.77 5.317a1.438 1.438 0 00-1.436-1.915L9.608 5.157a2.232 2.232 0 00-2.073 1.437z" fill="#695598"/><path d="M87.6 77.937l-21.372 1.276-27.433-15.481-3.828-2.713-3.668-5.746a3.99 3.99 0 00-1.914 3.83v2.395l-.638 2.074-1.435.48-4.945-4.63c-1.116.16.479 5.427.957 6.385l1.117.957 9.25 3.033 5.264 1.117 22.169 19.312a8.45 8.45 0 004.944 2.075h23.605l-2.074-14.364z" fill="#F2B1B5"/><path d="M30.183 59.103l-.638 2.075v-2.075a4.631 4.631 0 01.478-2.553c.16.16 0 .16 0 .16l.16 2.393zm-7.656.32l.479.478a31.454 31.454 0 001.116 3.512l.957 2.234 9.25 1.756 2.233.957a18.18 18.18 0 014.785 2.873l19.299 15.642c1.435 1.117 5.263 1.117 7.177 1.117l21.531 2.075.319 2.394H66.228a8.45 8.45 0 01-4.944-2.075l-22.17-19.312-5.263-1.117-9.25-3.033-1.117-.958c-.478-1.117-2.073-6.384-.957-6.543z" fill="#B68588"/><path d="M240.871 181.2l3.987 1.118 3.509-7.023 2.871-1.756-6.859-2.713-3.508 10.374z" fill="#F2B1B5"/><path d="M240.871 181.2l-50.24-12.13a22.622 22.622 0 01-7.975-3.192l-55.981-34.155 15.63-26.015s14.514 1.436 19.139 15.801l34.61 33.676 48.325 15.641-3.508 10.374z" fill="#56408B"/><path d="M183.454 162.686c2.552 1.596 5.103 3.671 7.815 4.31l50.08 12.928 2.871-9.098h.159l-3.508 10.374-50.24-12.129a22.642 22.642 0 01-7.975-3.193l-55.981-34.155 2.711-5.905 54.068 36.868z" fill="#413068"/><path d="M253.63 174.657l9.57 17.396a8.948 8.948 0 01.797 6.065l-.319 1.437a6.539 6.539 0 01-2.711 3.511 5.264 5.264 0 01-5.742 0 10.69 10.69 0 01-3.668-4.309l-7.177-16.759 3.189-6.224 3.509-2.075c.957-.638 1.914-.16 2.552.958z" fill="#F3B800"/><path d="M252.514 172.741l10.686 19.312a8.948 8.948 0 01.797 6.065l-.319 1.437a6.539 6.539 0 01-2.711 3.511 5.264 5.264 0 01-5.742 0 10.684 10.684 0 01-3.668-4.309l-7.177-16.759 3.189-6.224 2.074-3.831a2.233 2.233 0 012.871.798z" fill="#071835"/><path d="M252.354 175.455l9.251 17.556a8.947 8.947 0 01.797 6.065l-.319 1.436a6.541 6.541 0 01-2.711 3.512 5.423 5.423 0 01-5.742-.16c-1.595-.957-1.435-1.915-2.233-3.671l-2.871-7.342-6.858-11.491 4.306-4.629 2.393-4.309c2.073-1.277 3.349 2.075 3.987 3.033zM143.9 104.91l-9.41-5.586a19.147 19.147 0 01-8.453-10.534l-6.858-21.547-5.742-2.234-11.164 5.107a12.442 12.442 0 00-6.54 7.342l-8.133.479 2.073 14.524 6.858.798a8.944 8.944 0 001.595 7.661l5.263 6.543a43.948 43.948 0 004.625 4.788l7.337 7.023a36.508 36.508 0 014.306 4.309l10.686 11.971s2.712-17.716 13.557-30.644z" fill="#D77EDB"/><path d="M143.421 104.591l.479.319c-6.858 8.14-10.367 18.195-12.121 24.579a66.568 66.568 0 0111.642-24.898zm-44.817-5.267l5.742 5.745c1.276 1.756 1.435 3.991 3.03 5.427l8.613 7.98a41.682 41.682 0 014.306 4.788l10.367 10.534a19.07 19.07 0 01-.319 1.756l-10.686-11.97a36.517 36.517 0 00-4.306-4.31l-7.337-7.022a44.13 44.13 0 01-4.625-4.788l-5.263-6.544a8.942 8.942 0 01-1.595-7.661c.19 2.16.902 4.24 2.073 6.065z" fill="#A15FA4"/><path d="M89.513 48.25a9.251 9.251 0 003.35-2.713l-.957-1.755c1.754-10.215 14.992-8.779 14.992-8.779 6.38.32 8.453 14.684 8.453 14.684-1.116 9.257-9.729 13.407-9.729 13.407l7.496 2.074-14.354 8.14s1.435-8.459-3.19-11.491a6.228 6.228 0 01-5.263-6.703l.478-4.948-1.435-1.118c-.319-.319-.16-.638.16-.798z" fill="#F2B1B5"/><path d="M96.212 42.983c1.276-8.299 9.729-7.022 13.078-7.022 4.626 3.192 6.061 13.726 6.061 13.726-1.116 9.257-9.729 13.407-9.729 13.407l7.496 2.074-8.612 4.948a26.731 26.731 0 00-1.276-5.107 12.774 12.774 0 01-1.117-5.427 7.814 7.814 0 01.16-2.075c.957-3.51-1.276-6.703-4.147-8.937a3.83 3.83 0 01-1.914-3.352v-2.235z" fill="#B68588"/><path d="M107.695 26.385c2.143.21 4.241.749 6.221 1.596 5.582 2.873 7.336 9.576 10.686 14.843a28.072 28.072 0 0012.44 10.693c3.509 1.596 7.496 2.394 10.367 4.948 5.582 5.107 4.466 14.684 9.091 20.589 1.914 2.234 4.306 3.67 6.379 5.746 4.466 4.469 4.945 10.853-1.754 12.928-6.699 2.074-7.177.16-11.962-2.714-4.785-2.873-12.6-1.117-16.268-5.745-1.595-1.756-2.073-4.31-3.509-6.065-1.435-1.756-4.625-3.033-7.177-3.99a32.213 32.213 0 01-12.281-6.863 14.213 14.213 0 01-4.465-12.769c.478-1.915 1.595-3.83 1.435-5.905-.159-2.075-3.987-4.15-6.22-5.905-5.104-3.83-11.483-13.567-4.944-19.312 3.19-2.714 7.815-2.554 11.961-2.075z" fill="url(#paint0_linear)"/><path d="M108.971 93.418l-11.004 7.183a8.625 8.625 0 01-1.436-7.342h-1.435l13.875.16z" fill="#A15FA4"/><path opacity=".64" d="M161.763 86.076c-2.073-2.074-4.625-3.51-6.38-5.745-4.784-5.906-3.668-15.322-9.25-20.43-2.711-2.713-6.699-3.51-10.208-5.107a26.161 26.161 0 01-12.44-10.693c-3.349-5.267-5.263-11.97-10.686-14.684a17.373 17.373 0 00-6.22-1.756c-4.147-.478-8.931-.478-11.962 2.235-.16 0-.16 0-.16.16l1.277-1.596c3.19-2.714 7.815-2.554 11.962-2.075 2.142.21 4.24.749 6.22 1.596 5.582 2.873 7.336 9.576 10.686 14.843a28.072 28.072 0 0012.44 10.693c3.509 1.596 7.496 2.394 10.367 4.948 5.582 5.107 4.466 14.684 9.091 20.589 1.914 2.234 4.306 3.67 6.38 5.746 2.073 2.075 4.625 8.459 1.275 11.332 1.914-2.873.638-6.863-2.392-10.056z" fill="#F9D8DA"/><defs><linearGradient id="paint0_linear" x1="25617.4" y1="13871.6" x2="29303.6" y2="14429.7" gradientUnits="userSpaceOnUse"><stop stop-color="#E967CD"/><stop offset=".33" stop-color="#EF83AC"/><stop offset="1" stop-color="#FEC55E"/></linearGradient></defs></svg>