<svg width="200" height="42" fill="none" xmlns="http://www.w3.org/2000/svg"><g clip-path="url(#clip0)" fill="#fff"><path fill-rule="evenodd" clip-rule="evenodd" d="M56 25.243h5.476c.075 1.69 1.379 3.187 3.838 3.187 2.198 0 3.725-1.075 3.762-2.803.038-1.19-.484-2.227-3.092-2.995l-3.092-.883c-5.663-1.805-6.631-5.223-6.631-7.603 0-4.723 3.911-7.91 8.829-7.91 4.955 0 8.68 3.033 8.68 8.102h-5.439c0-1.766-1.155-2.995-3.316-2.995-1.9 0-3.315 1.075-3.315 2.65 0 .69.26 1.957 2.757 2.687l3.055.998c6.221 1.844 7.115 5.453 7.04 7.987-.074 5.26-4.693 7.757-9.238 7.757-5.589 0-9.314-3.418-9.314-8.179zm48.454-10.357l-6.31 17.094h-4.462l-3.54-10.871-3.384 10.871h-4.463l-6.501-17.094h5.693l3.193 10.176 3.155-10.176h4.578l3.154 10.176 3.193-10.176h5.694zm8.866 0V31.98h-5.774V14.886h5.774zm-7.217-7.02c0-1.628 1.63-2.866 3.546-2.866s3.464 1.238 3.464 2.866c0 1.627-1.548 2.9-3.464 2.9s-3.546-1.273-3.546-2.9zm16.48 14.821v9.705h-5.346V14.043h5.346v2.672c.961-1.847 3.076-3.065 5.191-3.065 4.038 0 6.577 2.554 6.577 7.78v10.962h-5.346v-9.784c0-2.436-1.308-3.654-3.115-3.654-1.884 0-3.307.943-3.307 3.733zm29.087.772c0-2.703-2.066-4.248-4.245-4.248-2.217 0-4.209 1.7-4.209 4.248 0 2.703 1.992 4.402 4.209 4.402 2.141 0 4.245-1.776 4.245-4.402zm-9.83 9.72c.584 1.646 2.593 2.87 4.31 2.87 3.872 0 4.932-2.794 4.712-6.355-.803 1.646-2.995 2.604-5.114 2.604-4.383 0-8.511-3.638-8.511-9.267 0-5.743 4.128-9.38 8.511-9.38 2.119 0 4.274.956 5.114 2.603v-2.221h4.932v15.393c0 7.696-3.58 11.41-9.644 11.41-3.762 0-6.977-2.22-8.401-5.552 1.278-.65 2.812-1.455 4.091-2.106zm24.469-9.682c0 2.588 1.957 4.364 4.227 4.364 2.309 0 4.227-1.7 4.227-4.364 0-2.587-1.918-4.286-4.227-4.286-2.231 0-4.227 1.583-4.227 4.286zm.576 8.317h-5.112V5h5.112v11.566c.852-1.599 2.926-2.492 5.074-2.492 4.445 0 8.371 3.534 8.371 9.112 0 5.467-3.926 9-8.371 9-2.148 0-4.222-.93-5.074-2.529v2.157zM200.33 14.68l-10.625 26.156h-5.423l4.132-10.41-6.641-15.746h5.46l3.8 9.959 3.837-9.96h5.46z"/><path d="M26.913 19.105a4.737 4.737 0 00-.39-1.275c-.302-.658-.723-1.152-.771-1.216a6.51 6.51 0 00-5.355-2.58 31.662 31.662 0 00-17.591 5.068.366.366 0 01-.56-.345c.896-9.315 8.752-16.6 18.314-16.6 8.109 0 14.99 5.24 17.441 12.515.026.076.265 1.057.718 2.941.006.017.01.035.013.053.148.936.228 1.894.228 2.87 0 10.152-8.238 18.38-18.4 18.38-1.19 0-2.351-.114-3.477-.33a.366.366 0 01-.28-.461 27.532 27.532 0 017.934-12.596c.113-.095.226-.196.337-.303a6.46 6.46 0 002-4.69 6.477 6.477 0 00-.161-1.431zm-3.59 4.794a29.708 29.708 0 00-8.605 13.661.364.364 0 01-.471.243C7.798 35.45 3.05 29.44 2.279 22.616l-.03-.285.147-.33a29.727 29.727 0 0118.025-5.81 4.353 4.353 0 013.22 7.424 6.34 6.34 0 01-.319.284zM0 20.537a20.701 20.701 0 00.542 4.694l.047.189c.035.144.072.289.11.432l.07.256a20.294 20.294 0 00.276.894l.06.18a20.544 20.544 0 0012.388 12.642c.149.054.283.105.42.151a20.69 20.69 0 006.647 1.099c11.336 0 20.56-9.213 20.56-20.537S31.895 0 20.56 0C9.223 0 0 9.213 0 20.537z"/></g><defs><clipPath id="clip0"><path fill="#fff" d="M0 0h200v42H0z"/></clipPath></defs></svg>