<svg width="48" height="48" fill="none" xmlns="http://www.w3.org/2000/svg"><path d="M42.138 24.63l.192-.274a4.798 4.798 0 00-1.178-6.687 4.783 4.783 0 00-6.205.622c-2.637-1.222-5.75-2.019-9.124-2.231a8.394 8.394 0 016.476-5.128A3.192 3.192 0 0035.2 12.8a3.201 3.201 0 000-6.401 3.19 3.19 0 00-2.992 2.1 10.823 10.823 0 00-8.929 7.525c-3.793.094-7.303.912-10.225 2.266a4.784 4.784 0 00-6.206-.622 4.799 4.799 0 00-1.177 6.687l.192.275c-.676 1.308-1.062 2.706-1.062 4.17 0 7.07 8.597 12.799 19.2 12.799 10.605 0 19.2-5.729 19.2-12.8 0-1.463-.386-2.861-1.063-4.17zM28.801 23.2a1.999 1.999 0 110 4 2 2 0 010-4zm-9.6 0a1.999 1.999 0 110 4 2 2 0 010-4zm-3.2 8.687l1.697-1.696a8.883 8.883 0 006.303 2.606 8.884 8.884 0 006.303-2.606l1.697 1.696c-4.42 4.42-11.585 4.416-16 0z" fill="#fff"/></svg>