<svg width="192" height="192" fill="none" xmlns="http://www.w3.org/2000/svg"><path d="M92 28h72.052A3.867 3.867 0 01168 31.948c0 3.944.052 12.052.052 12.052" stroke="#242650" stroke-width="8" stroke-linejoin="round"/><path d="M188 56v-4a8 8 0 00-8-8H92V12a8 8 0 00-8-8H12a8 8 0 00-8 8v44m184 120v4a8 8 0 01-8 8H12a8 8 0 01-8-8v-4M92 44H36m24 60V72h72v32m-72 24v15.384L96 160l36-16.616V128M60 88h72m-36 20v52m-20-52h40m12 8h20a3.917 3.917 0 014 4v32a3.917 3.917 0 004 4h16m-20-52V80a3.917 3.917 0 014-4h16m0 40h-12m-96 0H44a3.918 3.918 0 01-4-4V80a3.916 3.916 0 00-4-4H20m20 52v24a3.915 3.915 0 01-4 4H20" stroke="#242650" stroke-width="8" stroke-linejoin="round"/><path clip-rule="evenodd" d="M180 164a8 8 0 100-16 8 8 0 000 16zm0-40a8 8 0 100-16 8 8 0 000 16zm0-40a8 8 0 100-16 8 8 0 000 16zM12 84a8 8 0 100-16 8 8 0 000 16zm0 40a8 8 0 100-16 8 8 0 000 16zm0 40a8 8 0 100-16 8 8 0 000 16z" stroke="#242650" stroke-width="8" stroke-linejoin="round"/><path d="M20 116h12" stroke="#242650" stroke-width="8" stroke-linejoin="round"/></svg>