<svg width="231" height="212" fill="none" xmlns="http://www.w3.org/2000/svg"><path d="M53.044 158.905h-9.61c-20.203-.12-36.865-15.879-38.13-36.065C4.036 102.653 18.6 84.932 38.63 82.284v-.332c0-21.25 17.208-38.476 38.435-38.476h4.805C81.87 22.226 99.077 5 120.304 5c21.227 0 38.435 17.226 38.435 38.476v.332c19.206 2.422 33.615 18.766 33.631 38.144v.332c20.03 2.648 34.593 20.369 33.327 40.556-1.266 20.186-17.928 35.945-38.132 36.065h-9.608m-76.87-115.429c0-10.625 8.604-19.238 19.217-19.238" stroke="#242650" stroke-width="9.6" stroke-linejoin="round"/><path d="M115.5 144.476v14.429a4.706 4.706 0 01-4.804 4.809H72.261a4.7 4.7 0 00-3.428 1.378 4.712 4.712 0 00-1.376 3.432v19.238m62.456-24.048h28.826a4.7 4.7 0 013.428 1.378 4.711 4.711 0 011.376 3.432v19.238m-48.043 0v-14.429" stroke="#242650" stroke-width="9.6" stroke-linejoin="round"/><path clip-rule="evenodd" d="M67.457 207c5.306 0 9.608-4.307 9.608-9.619 0-5.313-4.302-9.619-9.608-9.619-5.307 0-9.61 4.306-9.61 9.619 0 5.312 4.303 9.619 9.61 9.619zm48.043 0c5.307 0 9.609-4.307 9.609-9.619 0-5.313-4.302-9.619-9.609-9.619s-9.609 4.306-9.609 9.619c0 5.312 4.302 9.619 9.609 9.619zm48.043 0c5.307 0 9.609-4.307 9.609-9.619 0-5.313-4.302-9.619-9.609-9.619-5.306 0-9.608 4.306-9.608 9.619 0 5.312 4.302 9.619 9.608 9.619zM134.717 81.952c.033-9.344-6.646-17.361-15.835-19.005-9.189-1.645-18.23 3.56-21.433 12.337-3.203 8.777.358 18.589 8.442 23.261v31.503h19.218V98.545a19.24 19.24 0 009.608-16.593z" stroke="#242650" stroke-width="9.6" stroke-linejoin="round"/><path d="M110.696 81.952h9.608" stroke="#242650" stroke-width="9.6" stroke-linejoin="round"/></svg>