<svg width="256" height="200" fill="none" xmlns="http://www.w3.org/2000/svg"><path fill-rule="evenodd" clip-rule="evenodd" d="M160 92c0 26.468 21.532 48 48 48s48-21.532 48-48-21.532-48-48-48-48 21.532-48 48zm8 0c0-22.056 17.944-40 40-40s40 17.944 40 40-17.944 40-40 40-40-17.944-40-40z" fill="#242650"/><path d="M208 156c-26.468 0-48-21.532-48-48 0-2.212 1.788-4 4-4 2.212 0 4 1.788 4 4 0 22.056 17.944 40 40 40s40-17.944 40-40c0-2.212 1.788-4 4-4 2.212 0 4 1.788 4 4 0 26.468-21.532 48-48 48zm-80 43.96c-21.512 0-43.024-8.188-59.4-24.564a3.996 3.996 0 010-5.656 3.996 3.996 0 015.656 0c29.632 29.624 77.852 29.624 107.484 0a3.996 3.996 0 015.656 0 3.996 3.996 0 010 5.656C171.024 191.772 149.512 199.96 128 199.96zm56.572-168.532a3.989 3.989 0 01-2.828-1.172C152.112.628 103.892.628 74.26 30.256a3.996 3.996 0 01-5.656 0 3.996 3.996 0 010-5.656c32.752-32.752 86.048-32.752 118.796 0a3.996 3.996 0 010 5.656 3.986 3.986 0 01-2.828 1.172z" fill="#242650"/><path d="M171.996 32a3.999 3.999 0 01-3.992-3.82 3.996 3.996 0 013.816-4.176l12.572-.572c2.068-.1 4.08 1.608 4.176 3.816a3.996 3.996 0 01-3.816 4.176l-12.572.572c-.06.004-.12.004-.184.004z" fill="#242650"/><path d="M184.568 31.428a4.004 4.004 0 01-3.992-3.8l-.572-11.428a3.996 3.996 0 013.796-4.192c2.112-.132 4.084 1.588 4.196 3.796l.572 11.428a3.996 3.996 0 01-3.796 4.192c-.068.004-.14.004-.204.004zM71.996 188a4 4 0 01-3.992-3.8l-.572-11.428a4.002 4.002 0 013.796-4.196c2.164-.188 4.084 1.588 4.196 3.796l.572 11.428a4.002 4.002 0 01-3.796 4.196c-.068.004-.136.004-.204.004z" fill="#242650"/><path d="M71.424 176.572a3.999 3.999 0 01-3.992-3.82 3.999 3.999 0 013.816-4.176l12.572-.572c2.012-.16 4.076 1.604 4.176 3.816a3.999 3.999 0 01-3.816 4.176l-12.572.572c-.056.004-.12.004-.184.004zM164 112c-2.212 0-4-1.788-4-4V92c0-2.208 1.788-4 4-4 2.212 0 4 1.792 4 4v16c0 2.212-1.788 4-4 4zm88 0c-2.212 0-4-1.788-4-4V92c0-2.208 1.788-4 4-4 2.212 0 4 1.792 4 4v16c0 2.212-1.788 4-4 4z" fill="#242650"/><path fill-rule="evenodd" clip-rule="evenodd" d="M0 92c0 26.468 21.532 48 48 48s48-21.532 48-48-21.532-48-48-48S0 65.532 0 92zm8 0c0-22.056 17.944-40 40-40s40 17.944 40 40-17.944 40-40 40S8 114.056 8 92z" fill="#242650"/><path d="M48 156c-26.468 0-48-21.532-48-48 0-2.212 1.788-4 4-4 2.212 0 4 1.788 4 4 0 22.056 17.944 40 40 40s40-17.944 40-40c0-2.212 1.788-4 4-4 2.212 0 4 1.788 4 4 0 26.468-21.532 48-48 48z" fill="#242650"/><path d="M92 112c-2.212 0-4-1.788-4-4V92c0-2.208 1.788-4 4-4 2.212 0 4 1.792 4 4v16c0 2.212-1.788 4-4 4zm-88 0c-2.212 0-4-1.788-4-4V92c0-2.208 1.788-4 4-4 2.212 0 4 1.792 4 4v16c0 2.212-1.788 4-4 4zm32 4c-2.212 0-4-1.788-4-4V72c0-2.208 1.788-4 4-4 2.212 0 4 1.792 4 4v40c0 2.212-1.788 4-4 4zm16.004-24.008c-2.212 0-4-1.792-4-4s1.788-4 4-4A4 4 0 0056 79.996 4 4 0 0052.004 76c-2.212 0-4-1.792-4-4s1.788-4 4-4C58.616 68 64 73.38 64 79.996c0 6.616-5.384 11.996-11.996 11.996z" fill="#242650"/><path d="M51.996 116c-2.212 0-4-1.788-4-4 0-2.212 1.788-4 4-4 4.416 0 8.004-3.588 8.004-8 0-4.416-3.588-8.008-8.004-8.008-2.212 0-4-1.792-4-4s1.788-4 4-4C60.82 83.992 68 91.172 68 100c0 8.824-7.18 16-16.004 16zm.008-40H32c-2.212 0-4-1.792-4-4s1.788-4 4-4h20.004c2.212 0 4 1.792 4 4s-1.788 4-4 4z" fill="#242650"/><path d="M51.996 116H32c-2.212 0-4-1.788-4-4 0-2.212 1.788-4 4-4h19.996c2.212 0 4 1.788 4 4 0 2.212-1.788 4-4 4zm.008-24.008H36c-2.212 0-4-1.792-4-4s1.788-4 4-4h16.004c2.212 0 4 1.792 4 4s-1.788 4-4 4zM44 76c-2.212 0-4-1.792-4-4v-4c0-2.208 1.788-4 4-4 2.212 0 4 1.792 4 4v4c0 2.208-1.788 4-4 4z" fill="#242650"/><path d="M44 120c-2.212 0-4-1.788-4-4v-4c0-2.212 1.788-4 4-4 2.212 0 4 1.788 4 4v4c0 2.212-1.788 4-4 4zm-16 31.2c-2.212 0-4-1.788-4-4v-16c0-2.212 1.788-4 4-4 2.212 0 4 1.788 4 4v16c0 2.212-1.788 4-4 4zm40 0c-2.212 0-4-1.788-4-4v-16c0-2.212 1.788-4 4-4 2.212 0 4 1.788 4 4v16c0 2.212-1.788 4-4 4zM48 156c-2.212 0-4-1.788-4-4v-16c0-2.212 1.788-4 4-4 2.212 0 4 1.788 4 4v16c0 2.212-1.788 4-4 4zm140.064-4.8c-2.212 0-4-1.788-4-4v-16c0-2.212 1.788-4 4-4 2.212 0 4 1.788 4 4v16c0 2.212-1.792 4-4 4zm40 0c-2.212 0-4-1.788-4-4v-16c0-2.212 1.788-4 4-4 2.212 0 4 1.788 4 4v16c0 2.212-1.792 4-4 4zm-20 4.8c-2.212 0-4-1.788-4-4v-16c0-2.212 1.788-4 4-4 2.212 0 4 1.788 4 4v16c0 2.212-1.792 4-4 4zm.12-92c-2.212 0-4.02-1.792-4.02-4s1.768-4 3.976-4h.044c2.208 0 4 1.792 4 4s-1.792 4-4 4zm0 64c-2.212 0-4.02-1.788-4.02-4 0-2.212 1.768-4 3.976-4h.044c2.208 0 4 1.788 4 4 0 2.212-1.792 4-4 4zm-16-59.712c-2.212 0-4.02-1.792-4.02-4s1.768-4 3.976-4h.044c2.208 0 4 1.792 4 4s-1.792 4-4 4zm32 55.424c-2.212 0-4.02-1.788-4.02-4 0-2.212 1.768-4 3.976-4h.044c2.208 0 4 1.788 4 4 0 2.212-1.792 4-4 4zM180.472 80c-2.212 0-4.02-1.792-4.02-4s1.768-4 3.976-4h.044c2.208 0 4 1.792 4 4s-1.792 4-4 4zm55.424 32c-2.212 0-4.02-1.788-4.02-4 0-2.212 1.768-4 3.976-4h.044a3.999 3.999 0 110 8zm-59.712-16c-2.212 0-4.02-1.792-4.02-4s1.768-4 3.976-4h.044c2.208 0 4 1.792 4 4s-1.792 4-4 4zm64 0c-2.212 0-4.02-1.792-4.02-4s1.768-4 3.976-4h.044c2.208 0 4 1.792 4 4s-1.792 4-4 4zm-59.712 16c-2.212 0-4.02-1.788-4.02-4 0-2.212 1.768-4 3.976-4h.044c2.208 0 4 1.788 4 4 0 2.212-1.792 4-4 4zM235.9 80c-2.212 0-4.02-1.792-4.02-4s1.768-4 3.976-4h.044c2.208 0 4 1.792 4 4s-1.796 4-4 4zm-43.716 43.712c-2.212 0-4.02-1.788-4.02-4 0-2.212 1.768-4 3.976-4h.044c2.208 0 4 1.788 4 4 0 2.212-1.792 4-4 4zm32.004-55.424c-2.212 0-4.02-1.792-4.02-4s1.768-4 3.976-4h.044c2.208 0 4 1.792 4 4s-1.792 4-4 4z" fill="#242650"/><path fill-rule="evenodd" clip-rule="evenodd" d="M205.172 110.828A3.989 3.989 0 00208 112a3.989 3.989 0 002.828-1.172l16-16a3.996 3.996 0 000-5.656l-16-16a3.996 3.996 0 00-5.656 0l-16 16a3.996 3.996 0 000 5.656l16 16zm2.828-8.484L197.656 92 208 81.656 218.344 92 208 102.344z" fill="#242650"/></svg>