<svg width="100" height="100" fill="none" xmlns="http://www.w3.org/2000/svg"><path fill-rule="evenodd" clip-rule="evenodd" d="M35.16 29.697a1.563 1.563 0 103.126 0V1.572c0-.864-.699-1.562-1.563-1.562H8.598a1.56 1.56 0 00-1.562 1.562c0 .864.698 1.563 1.562 1.563h26.563v26.562zm-4.687 7.813H2.348a1.561 1.561 0 01-1.562-1.563V7.822A1.56 1.56 0 012.348 6.26h28.125c.864 0 1.563.698 1.563 1.562v28.125c0 .864-.699 1.563-1.563 1.563zM3.911 34.385h25v-25h-25v25z" fill="#242650"/><path fill-rule="evenodd" clip-rule="evenodd" d="M2.348 9.384a1.56 1.56 0 01-1.105-2.667l6.25-6.25a1.56 1.56 0 012.21 0 1.56 1.56 0 010 2.21l-6.25 6.25a1.558 1.558 0 01-1.105.457zM30.473 37.51a1.56 1.56 0 01-1.105-2.667l6.25-6.25a1.56 1.56 0 012.21 0 1.56 1.56 0 010 2.21l-6.25 6.25a1.558 1.558 0 01-1.105.457zM29.37 8.927a1.558 1.558 0 002.21 0l6.25-6.25a1.56 1.56 0 000-2.21 1.56 1.56 0 00-2.21 0l-6.25 6.25a1.56 1.56 0 000 2.21zm5.79 83.251a1.563 1.563 0 103.126 0V64.053c0-.864-.699-1.562-1.563-1.562H8.598a1.56 1.56 0 00-1.562 1.562c0 .864.698 1.563 1.562 1.563h26.563v26.562zm-4.687 7.813H2.348a1.561 1.561 0 01-1.562-1.563V70.303a1.56 1.56 0 011.562-1.562h28.125c.864 0 1.563.698 1.563 1.562v28.125c0 .864-.699 1.563-1.563 1.563zM3.911 96.866h25v-25h-25v25z" fill="#242650"/><path fill-rule="evenodd" clip-rule="evenodd" d="M2.348 71.866a1.56 1.56 0 01-1.105-2.667l6.25-6.25a1.56 1.56 0 012.21 0 1.56 1.56 0 010 2.209l-6.25 6.25a1.558 1.558 0 01-1.105.458zM30.473 99.99a1.56 1.56 0 01-1.105-2.667l6.25-6.25a1.56 1.56 0 012.21 0 1.56 1.56 0 010 2.209l-6.25 6.25a1.558 1.558 0 01-1.105.458zM29.37 71.408a1.558 1.558 0 002.21 0l6.25-6.25a1.56 1.56 0 000-2.21 1.56 1.56 0 00-2.21 0l-6.25 6.25a1.56 1.56 0 000 2.21zM17.973 46.866c0 .864.699 1.562 1.563 1.562s1.562-.698 1.562-1.562v-1.143a3.128 3.128 0 011.563 2.705v6.25a3.126 3.126 0 01-1.563 2.706v-1.143a1.561 1.561 0 10-3.125 0v1.143a3.127 3.127 0 01-1.562-2.706v-6.25a3.13 3.13 0 011.562-2.706v1.144zm3.125-4.49v-6.448a1.56 1.56 0 00-1.562-1.562c-.864 0-1.563.698-1.563 1.562v6.448a6.26 6.26 0 00-4.687 6.052v6.25a6.26 6.26 0 004.687 6.053v6.447a1.562 1.562 0 103.125 0v-6.447a6.26 6.26 0 004.688-6.053v-6.25a6.26 6.26 0 00-4.688-6.052zM46.09 87.49h6.25a6.26 6.26 0 006.051-4.687h4.886a1.56 1.56 0 001.562-1.562c0-.864-.698-1.563-1.562-1.563H58.39a6.26 6.26 0 00-6.052-4.687h-6.25a6.26 6.26 0 00-6.052 4.687h-6.448c-.864 0-1.562.699-1.562 1.563s.698 1.562 1.562 1.562h6.448a6.26 6.26 0 006.052 4.688zm8.955-7.812a3.127 3.127 0 00-2.706-1.562h-6.25a3.128 3.128 0 00-2.706 1.562h1.144c.864 0 1.562.699 1.562 1.563s-.698 1.562-1.562 1.562h-1.144a3.126 3.126 0 002.706 1.563h6.25a3.126 3.126 0 002.706-1.563h-1.143a1.561 1.561 0 01-1.563-1.562c0-.864.699-1.563 1.563-1.563h1.143zM46.09 24.99h6.25a6.26 6.26 0 006.051-4.687h4.886a1.56 1.56 0 001.562-1.562c0-.864-.698-1.563-1.562-1.563H58.39a6.26 6.26 0 00-6.052-4.687h-6.25a6.26 6.26 0 00-6.052 4.687h-6.448c-.864 0-1.562.699-1.562 1.563s.698 1.562 1.562 1.562h6.448a6.26 6.26 0 006.052 4.688zm8.955-7.812a3.127 3.127 0 00-2.706-1.562h-6.25a3.128 3.128 0 00-2.706 1.562h1.144c.864 0 1.562.699 1.562 1.563s-.698 1.562-1.562 1.562h-1.144a3.126 3.126 0 002.706 1.563h6.25a3.126 3.126 0 002.706-1.563h-1.143a1.561 1.561 0 01-1.563-1.562c0-.864.699-1.563 1.563-1.563h1.143z" fill="#242650"/><path fill-rule="evenodd" clip-rule="evenodd" d="M96.09 29.697a1.561 1.561 0 103.125 0V1.572c0-.864-.7-1.562-1.563-1.562H69.527a1.56 1.56 0 00-1.563 1.562c0 .864.698 1.563 1.563 1.563h26.562v26.562zm-4.688 7.813H63.277a1.561 1.561 0 01-1.563-1.563V7.822c0-.864.699-1.562 1.563-1.562h28.125a1.56 1.56 0 011.562 1.562v28.125c0 .864-.698 1.563-1.562 1.563zm-26.563-3.125h25v-25h-25v25z" fill="#242650"/><path fill-rule="evenodd" clip-rule="evenodd" d="M63.277 9.384a1.56 1.56 0 01-1.105-2.667l6.25-6.25a1.56 1.56 0 012.21 0c.61.611.61 1.599 0 2.21l-6.25 6.25a1.558 1.558 0 01-1.105.457zM91.402 37.51a1.56 1.56 0 01-1.105-2.667l6.25-6.25a1.56 1.56 0 012.21 0 1.56 1.56 0 010 2.21l-6.25 6.25a1.558 1.558 0 01-1.105.457zM90.297 8.927a1.558 1.558 0 002.21 0l6.25-6.25a1.56 1.56 0 000-2.21 1.56 1.56 0 00-2.21 0l-6.25 6.25a1.56 1.56 0 000 2.21zm5.793 83.251a1.561 1.561 0 103.125 0V64.053c0-.864-.7-1.562-1.563-1.562H69.527a1.56 1.56 0 00-1.563 1.562c0 .864.698 1.563 1.563 1.563h26.562v26.562zm-4.688 7.813H63.277a1.561 1.561 0 01-1.563-1.563V70.303c0-.864.699-1.562 1.563-1.562h28.125a1.56 1.56 0 011.562 1.562v28.125c0 .864-.698 1.563-1.562 1.563zm-26.563-3.125h25v-25h-25v25z" fill="#242650"/><path fill-rule="evenodd" clip-rule="evenodd" d="M63.277 71.866a1.56 1.56 0 01-1.105-2.667l6.25-6.25a1.56 1.56 0 012.21 0c.61.61.61 1.598 0 2.209l-6.25 6.25a1.558 1.558 0 01-1.105.458zM91.402 99.99a1.56 1.56 0 01-1.105-2.667l6.25-6.25a1.56 1.56 0 012.21 0c.61.61.61 1.598 0 2.209l-6.25 6.25a1.558 1.558 0 01-1.105.458zm-1.105-28.583a1.558 1.558 0 002.21 0l6.25-6.25a1.56 1.56 0 000-2.21 1.56 1.56 0 00-2.21 0l-6.25 6.25a1.56 1.56 0 000 2.21zM78.902 46.866a1.56 1.56 0 001.562 1.562c.864 0 1.563-.698 1.563-1.562v-1.143a3.128 3.128 0 011.562 2.705v6.25a3.127 3.127 0 01-1.562 2.706v-1.143a1.562 1.562 0 10-3.125 0v1.143a3.126 3.126 0 01-1.563-2.706v-6.25a3.13 3.13 0 011.563-2.706v1.144zm3.125-4.49v-6.448c0-.864-.699-1.562-1.563-1.562s-1.562.698-1.562 1.562v6.448a6.26 6.26 0 00-4.688 6.052v6.25a6.26 6.26 0 004.688 6.053v6.447a1.561 1.561 0 103.125 0v-6.447a6.26 6.26 0 004.687-6.053v-6.25a6.26 6.26 0 00-4.687-6.052z" fill="#242650"/></svg>