<svg width="231" height="232" fill="none" xmlns="http://www.w3.org/2000/svg"><path d="M119 122.036c-2.212 0-4-1.788-4-4 0-2.212 1.788-4 4-4 1.1 0 2-.9 2-2s-.9-2-2-2c-2.212 0-4-1.788-4-4 0-2.212 1.788-4 4-4 5.516 0 10 4.484 10 10s-4.484 10-10 10z" fill="#242650"/><path d="M121 138.036c-2.212 0-4-1.788-4-4 0-2.212 1.788-4 4-4 2.208 0 4-1.792 4-4s-1.792-4-4-4c-2.212 0-4-1.788-4-4 0-2.212 1.788-4 4-4 6.616 0 12 5.384 12 12s-5.384 12-12 12z" fill="#242650"/><path d="M121 122.036h-12c-2.212 0-4-1.788-4-4 0-2.212 1.788-4 4-4h12c2.212 0 4 1.788 4 4 0 2.212-1.788 4-4 4zm0 16h-16c-2.212 0-4-1.788-4-4 0-2.212 1.788-4 4-4h16c2.212 0 4 1.788 4 4 0 2.212-1.788 4-4 4zm-2-28h-14c-2.212 0-4-1.788-4-4 0-2.212 1.788-4 4-4h14c2.212 0 4 1.788 4 4 0 2.212-1.788 4-4 4z" fill="#242650"/><path d="M109 138.036c-2.212 0-4-1.788-4-4v-28c0-2.212 1.788-4 4-4 2.212 0 4 1.788 4 4v28c0 2.212-1.788 4-4 4z" fill="#242650"/><path d="M113 110.036c-2.212 0-4-1.788-4-4v-4c0-2.212 1.788-4 4-4 2.212 0 4 1.788 4 4v4c0 2.212-1.788 4-4 4zm0 32c-2.212 0-4-1.788-4-4v-4c0-2.212 1.788-4 4-4 2.212 0 4 1.788 4 4v4c0 2.212-1.788 4-4 4z" fill="#242650"/><path fill-rule="evenodd" clip-rule="evenodd" d="M77 120.036c0 20.952 17.048 38 38 38s38-17.048 38-38-17.048-38-38-38-38 17.048-38 38zm8 0c0-16.544 13.456-30 30-30s30 13.456 30 30-13.456 30-30 30-30-13.456-30-30z" fill="#242650"/><path d="M115 174.036c-20.952 0-38-17.048-38-38 0-2.212 1.788-4 4-4 2.212 0 4 1.788 4 4 0 16.544 13.456 30 30 30s30-13.456 30-30c0-2.212 1.788-4 4-4 2.212 0 4 1.788 4 4 0 20.952-17.048 38-38 38z" fill="#242650"/><path d="M81 140.036c-2.212 0-4-1.788-4-4v-16c0-2.212 1.788-4 4-4 2.212 0 4 1.788 4 4v16c0 2.212-1.788 4-4 4zm68 0c-2.212 0-4-1.788-4-4v-16c0-2.212 1.788-4 4-4 2.212 0 4 1.788 4 4v16c0 2.212-1.788 4-4 4zm-20 30.988c-2.212 0-4-1.788-4-4v-16c0-2.212 1.788-4 4-4 2.212 0 4 1.788 4 4v16c0 2.212-1.788 4-4 4zm-28 0c-2.212 0-4-1.788-4-4v-15.996c0-2.212 1.788-4 4-4 2.212 0 4 1.788 4 4v15.996c0 2.212-1.788 4-4 4z" fill="#242650"/><path fill-rule="evenodd" clip-rule="evenodd" d="M153 186.964c0 12.128 9.872 22 22 22s22-9.872 22-22-9.872-22-22-22-22 9.872-22 22zm8 0c0-7.72 6.28-14 14-14s14 6.28 14 14-6.28 14-14 14-14-6.28-14-14z" fill="#242650"/><path d="M174.996 220.964c-12.128 0-21.996-9.868-21.996-21.996 0-2.212 1.788-4 4-4 2.212 0 4 1.788 4 4 0 7.72 6.276 13.996 13.996 13.996 7.72 0 13.996-6.276 13.996-13.996 0-2.212 1.788-4 4-4 2.212 0 4 1.788 4 4 0 12.128-9.868 21.996-21.996 21.996z" fill="#242650"/><path d="M157 202.968c-2.212 0-4-1.788-4-4v-12.004c0-2.212 1.788-4 4-4 2.212 0 4 1.788 4 4v12.004c0 2.212-1.788 4-4 4zm36 0c-2.212 0-4-1.788-4-4v-8.004c0-2.212 1.788-4 4-4 2.212 0 4 1.788 4 4v8.004c0 2.212-1.788 4-4 4z" fill="#242650"/><path fill-rule="evenodd" clip-rule="evenodd" d="M41 194.964c0 9.924 8.076 18 18 18s18-8.076 18-18-8.076-18-18-18-18 8.076-18 18zm8 0c0-5.516 4.484-10 10-10s10 4.484 10 10-4.484 10-10 10-10-4.484-10-10z" fill="#242650"/><path d="M59 224.964c-9.924 0-18-8.076-18-18 0-2.212 1.788-4 4-4 2.212 0 4 1.788 4 4 0 5.516 4.484 10 10 10s10-4.484 10-10c0-2.212 1.788-4 4-4 2.212 0 4 1.788 4 4 0 9.928-8.076 18-18 18z" fill="#242650"/><path d="M45 210.964c-2.212 0-4-1.788-4-4v-12c0-2.212 1.788-4 4-4 2.212 0 4 1.788 4 4v12c0 2.212-1.788 4-4 4zm28 0c-2.212 0-4-1.788-4-4v-12c0-2.212 1.788-4 4-4 2.212 0 4 1.788 4 4v12c0 2.212-1.788 4-4 4z" fill="#242650"/><path fill-rule="evenodd" clip-rule="evenodd" d="M101 218c0 7.72 6.28 14 14 14s14-6.28 14-14-6.28-14-14-14-14 6.28-14 14zm8 0c0-3.308 2.692-6 6-6s6 2.692 6 6-2.692 6-6 6-6-2.692-6-6z" fill="#242650"/><path d="M52.817 158.905h-9.609c-20.204-.12-36.866-15.879-38.131-36.065-1.266-20.187 13.296-37.908 33.327-40.556v-.332c0-21.25 17.208-38.476 38.435-38.476h4.804C81.643 22.226 98.851 5 120.078 5c21.227 0 38.435 17.226 38.435 38.476v.332c19.206 2.422 33.615 18.766 33.63 38.144v.332c20.03 2.648 34.593 20.369 33.327 40.556-1.265 20.186-17.927 35.945-38.131 36.065h-9.609M100.86 43.476c0-10.625 8.604-19.238 19.218-19.238" stroke="#242650" stroke-width="9.6" stroke-linejoin="round"/></svg>