<svg width="120" height="104" fill="none" xmlns="http://www.w3.org/2000/svg"><path fill-rule="evenodd" clip-rule="evenodd" d="M62.804 76.136h-8.972v8.957H44.86v8.957h8.972v-8.957h8.972v-8.957zm0 8.957h8.972v17.914h-8.972V85.093zm27.733 8.957H76.933h.105-47.575C13.217 94.05 0 80.27 0 63.333c0-8.173 3.07-15.875 8.648-21.685 3.537-3.688 7.85-6.348 12.59-7.79 1.407-8.187 5.236-15.844 10.952-21.804C39.65 4.28 49.526 0 60 0c10.475 0 20.35 4.281 27.809 12.055 5.717 5.962 9.545 13.616 10.95 21.803C111.22 37.629 120 49.595 120 63.335c0 8.182-3.07 15.89-8.648 21.701-5.575 5.812-12.968 9.014-20.816 9.014zM72.653 63.84c-4.63 0-8.618-2.707-10.41-6.597h-12.43v3.298h-5.375v-3.298h-7.39v-9.236h25.195c1.792-3.89 5.779-6.597 10.41-6.597 6.307 0 11.42 5.02 11.42 11.215 0 6.193-5.113 11.215-11.42 11.215zm-6.046-11.215c0 3.279 2.707 5.937 6.046 5.937 3.34 0 6.046-2.658 6.046-5.938 0-3.279-2.707-5.937-6.046-5.937-3.34 0-6.046 2.658-6.046 5.938z" fill="#fff"/></svg>