<svg width="102" height="102" fill="none" xmlns="http://www.w3.org/2000/svg"><path fill-rule="evenodd" clip-rule="evenodd" d="M0 100.406C0 101.288.712 102 1.594 102h98.812c.882 0 1.594-.712 1.594-1.594 0-.881-.712-1.594-1.594-1.594H3.187V1.603A1.59 1.59 0 001.595.01C.712.01 0 .722 0 1.603v98.803zm35.063-76.49V17.54c0-9.665 7.865-17.53 17.53-17.53 9.667 0 17.532 7.865 17.532 17.53v6.376c0 6.432-3.483 12.067-8.662 15.117a1.588 1.588 0 01-.207.12 17.422 17.422 0 01-8.662 2.294c-3.148 0-6.106-.834-8.662-2.294a1.588 1.588 0 01-.208-.12c-5.179-3.05-8.661-8.685-8.661-15.117zm17.53-20.719c7.91 0 14.344 6.434 14.344 14.344 0 7.91-6.433 14.343-14.343 14.343S38.25 25.451 38.25 17.541 44.684 3.197 52.594 3.197zM51 38.172a14.234 14.234 0 01-4.781-1.408v-2.892c1.504.59 3.11.977 4.781 1.128v3.172zm-11.94-9.499a17.674 17.674 0 003.971 3.555v2.37a14.39 14.39 0 01-3.97-5.925zm23.096 5.926a14.39 14.39 0 003.97-5.926 17.672 17.672 0 01-3.97 3.555v2.37zm-3.187-.727v2.892a14.235 14.235 0 01-4.782 1.408V35a17.398 17.398 0 004.782-1.128zM47.812 25.51H51c0 .882.712 1.594 1.594 1.594.881 0 1.593-.712 1.593-1.594h.796a5.585 5.585 0 005.58-5.578 5.58 5.58 0 00-2.37-4.563c.49-.75.776-1.647.776-2.609a4.787 4.787 0 00-4.782-4.78 1.592 1.592 0 10-3.188 0h-3.186a1.592 1.592 0 100 3.188V22.32c-.882 0-1.594.712-1.594 1.594 0 .881.712 1.593 1.593 1.593zm4.782-3.187h2.389a2.395 2.395 0 002.392-2.39 2.397 2.397 0 00-2.391-2.394h-.631a4.786 4.786 0 01-.259 0L51 17.54v4.782h1.594zM51 11.166h3.187a1.594 1.594 0 01.096 3.184L51 14.353v-3.186zM12.75 44.625h-1.594a1.592 1.592 0 01-1.594-1.594V25.5c0-.881.713-1.594 1.594-1.594h1.594V20.72c0-.882.712-1.594 1.594-1.594.881 0 1.594.712 1.594 1.594v3.187h1.593c.882 0 1.594.713 1.594 1.594v17.531c0 .882-.712 1.594-1.594 1.594h-1.593v3.188c0 .88-.713 1.593-1.594 1.593a1.592 1.592 0 01-1.594-1.593v-3.188zm1.594-3.188h1.594V27.095H12.75v14.343h1.594zM55.78 82.876c.882 0 1.594-.712 1.594-1.594V58.97c0-.882-.712-1.594-1.594-1.594h-1.593v-1.594c0-.881-.713-1.593-1.594-1.593-.882 0-1.594.712-1.594 1.593v1.594h-1.594c-.881 0-1.593.712-1.593 1.594v22.31c0 .882.712 1.594 1.593 1.594H51v7.969a1.593 1.593 0 103.187 0v-7.969h1.594zm-1.593-3.188H51V60.564h3.187v19.124zm31.874 3.188a1.592 1.592 0 01-1.593-1.594V44.625c0-.881.712-1.594 1.594-1.594h1.593v-1.593c0-.882.713-1.594 1.594-1.594.881 0 1.594.712 1.594 1.593v1.594h1.594c.88 0 1.593.713 1.593 1.594v36.656c0 .882-.712 1.594-1.594 1.594h-1.593v1.594c0 .881-.713 1.594-1.594 1.594a1.592 1.592 0 01-1.594-1.594v-1.594h-1.594zm3.188-3.188h1.594V46.22h-3.188v33.468h1.594zM35.062 65.344c0 .881.713 1.594 1.594 1.594h1.594v7.968c0 .882.712 1.594 1.594 1.594.881 0 1.593-.712 1.593-1.594v-7.969h1.594c.882 0 1.594-.712 1.594-1.593v-6.375c0-.882-.712-1.594-1.594-1.594h-1.593v-1.594c0-.881-.713-1.593-1.594-1.593-.882 0-1.594.712-1.594 1.593v1.594h-1.594c-.881 0-1.593.712-1.593 1.594v6.375zm6.376-1.594H38.25v-3.188h3.187v3.188zm31.874 6.375a1.592 1.592 0 01-1.593-1.594V44.625c0-.881.712-1.594 1.594-1.594h1.593v-1.593c0-.882.713-1.594 1.594-1.594.881 0 1.594.712 1.594 1.593v1.594h1.594c.88 0 1.593.713 1.593 1.594v23.906c0 .882-.712 1.594-1.594 1.594h-1.593v1.594c0 .881-.713 1.594-1.594 1.594a1.592 1.592 0 01-1.594-1.594v-1.594h-1.594zm3.188-3.188h1.594V46.22h-3.188v20.718H76.5zM60.562 81.281c0 .882.713 1.594 1.594 1.594h1.594v1.594a1.593 1.593 0 103.188 0v-1.594h1.593c.882 0 1.594-.712 1.594-1.594v-12.75c0-.881-.712-1.594-1.594-1.594h-1.594v-1.593a1.592 1.592 0 10-3.188 0v1.594h-1.593c-.881 0-1.593.712-1.593 1.593v12.75zm6.376-1.594H63.75v-9.562h3.188v9.563zM30.28 66.938h-1.593v3.188c0 .881-.713 1.594-1.594 1.594a1.592 1.592 0 01-1.594-1.594v-3.188h-1.594a1.592 1.592 0 01-1.593-1.593V43.03c0-.881.712-1.593 1.593-1.593H25.5v-7.97c0-.88.712-1.593 1.594-1.593.881 0 1.593.712 1.593 1.594v7.968h1.594c.882 0 1.594.713 1.594 1.594v22.313c0 .881-.712 1.594-1.594 1.594zm-1.593-3.187H25.5V44.625h3.188V63.75z" fill="#242650"/></svg>