<svg width="104" height="90" fill="none" xmlns="http://www.w3.org/2000/svg"><path d="M21.429 61.071a1.605 1.605 0 01-1.606-1.607V43.393a1.606 1.606 0 113.212 0v16.071c0 .889-.718 1.607-1.606 1.607zm6.426-9.646a1.605 1.605 0 01-1.607-1.607c0-.889.718-1.607 1.607-1.607a1.607 1.607 0 000-3.211 1.606 1.606 0 010-3.214 4.824 4.824 0 014.816 4.82 4.825 4.825 0 01-4.816 4.82z" fill="#242650"/><path d="M27.851 61.071a1.605 1.605 0 01-1.606-1.607c0-.889.718-1.607 1.606-1.607a3.217 3.217 0 000-6.432 1.605 1.605 0 01-1.606-1.607c0-.889.718-1.607 1.606-1.607 3.543 0 6.426 2.885 6.426 6.432a6.434 6.434 0 01-6.426 6.428zM27.855 45h-8.032a1.606 1.606 0 010-3.214h8.032a1.606 1.606 0 010 3.214z" fill="#242650"/><path d="M27.851 61.072h-8.028a1.605 1.605 0 01-1.606-1.608c0-.888.718-1.607 1.606-1.607h8.028c.889 0 1.606.719 1.606 1.607 0 .89-.718 1.608-1.606 1.608zm.004-9.647h-6.426a1.605 1.605 0 01-1.606-1.607c0-.889.718-1.607 1.606-1.607h6.426c.888 0 1.606.718 1.606 1.607s-.718 1.607-1.606 1.607zM24.64 45c-.887 0-1.605-.72-1.605-1.607v-1.607a1.606 1.606 0 113.212 0v1.607c0 .887-.718 1.607-1.606 1.607z" fill="#242650"/><path d="M24.64 62.679a1.605 1.605 0 01-1.605-1.608v-1.607a1.605 1.605 0 113.212 0v1.608c0 .888-.718 1.607-1.606 1.607zM7.064 6.429c-.887 0-1.612-.72-1.612-1.608 0-.887.71-1.607 1.596-1.607h.018a1.607 1.607 0 01-.002 3.215zm4.818 0c-.886 0-1.612-.72-1.612-1.608 0-.887.71-1.607 1.596-1.607h.018a1.607 1.607 0 01-.002 3.215zm4.818 0c-.886 0-1.612-.72-1.612-1.608 0-.887.71-1.607 1.596-1.607h.018A1.607 1.607 0 0116.7 6.43z" fill="#242650"/><path fill-rule="evenodd" clip-rule="evenodd" d="M2.227 90h99.575c.889 0 1.606-.718 1.606-1.607V8.036c0-.887-.717-1.607-1.606-1.607H2.227c-.889 0-1.606.72-1.606 1.607v80.357c0 .889.717 1.607 1.606 1.607zm97.969-3.214H3.833V9.643h96.363v77.143z" fill="#242650"/><path d="M2.198 6.429c-.888 0-1.606-.72-1.606-1.608A4.826 4.826 0 015.41 0a1.606 1.606 0 010 3.214c-.887 0-1.606.722-1.606 1.607 0 .888-.718 1.608-1.606 1.608z" fill="#242650"/><path d="M2.198 9.643c-.888 0-1.606-.72-1.606-1.607V4.82a1.606 1.606 0 113.212 0v3.215c0 .887-.718 1.607-1.606 1.607zm99.575-3.214c-.888 0-1.606-.72-1.606-1.608 0-.885-.72-1.607-1.606-1.607a1.606 1.606 0 010-3.214 4.826 4.826 0 014.819 4.821c0 .888-.718 1.608-1.607 1.608z" fill="#242650"/><path d="M101.773 9.643c-.888 0-1.606-.72-1.606-1.607V4.82a1.606 1.606 0 113.212 0v3.215c0 .887-.717 1.607-1.606 1.607zm-3.212-6.429H5.41A1.606 1.606 0 015.41 0h93.15a1.606 1.606 0 010 3.214z" fill="#242650"/><path fill-rule="evenodd" clip-rule="evenodd" d="M8.58 28.928h86.728c.888 0 1.605-.72 1.605-1.607V14.464c0-.887-.717-1.607-1.605-1.607H8.58c-.888 0-1.606.72-1.606 1.607v12.857c0 .887.718 1.607 1.606 1.607zm85.121-3.214H10.186v-9.643h83.515v9.643z" fill="#242650"/><path d="M87.277 22.5H16.652a1.606 1.606 0 010-3.214h70.625a1.606 1.606 0 010 3.214z" fill="#242650"/><path fill-rule="evenodd" clip-rule="evenodd" d="M8.58 83.572h35.334c.888 0 1.606-.719 1.606-1.608V33.75c0-.887-.718-1.607-1.607-1.607H8.58c-.888 0-1.606.72-1.606 1.607v48.214c0 .89.718 1.608 1.606 1.608zm33.727-3.215h-32.12v-45h32.12v45zm17.667 3.215h35.333c.889 0 1.606-.719 1.606-1.608V33.75c0-.887-.717-1.607-1.606-1.607H59.974c-.888 0-1.606.72-1.606 1.607v48.214c0 .89.718 1.608 1.606 1.608zm33.727-3.215h-32.12v-45H93.7v45z" fill="#242650"/><path d="M70.835 47.544h-4.573v2.46h4.21c.31 0 .54.072.691.213a.693.693 0 01.233.547.747.747 0 01-.226.56c-.15.142-.383.212-.697.212h-4.211v2.85h4.73c.32 0 .558.076.718.226a.747.747 0 01.246.588c0 .237-.082.43-.246.581-.16.146-.399.219-.718.219h-5.516c-.442 0-.761-.098-.957-.294-.192-.196-.288-.513-.288-.95v-7.533c0-.292.044-.529.13-.711a.792.792 0 01.404-.404c.186-.086.424-.13.71-.13h5.36c.324 0 .563.073.718.22.16.14.239.327.239.56a.74.74 0 01-.24.574c-.154.141-.394.212-.717.212zm9.242.11h-2.215v7.28c0 .419-.093.731-.28.936-.187.2-.428.3-.725.3a.965.965 0 01-.738-.307c-.187-.205-.28-.515-.28-.93v-7.28h-2.215c-.346 0-.604-.075-.772-.225a.787.787 0 01-.253-.609c0-.26.086-.465.26-.615.177-.15.432-.226.765-.226h6.453c.351 0 .61.078.78.233.173.155.26.358.26.608a.78.78 0 01-.26.609c-.174.15-.433.225-.78.225zm4.286-.616v2.871h4.382v-2.87c0-.411.091-.719.274-.924a.943.943 0 01.731-.307c.305 0 .551.102.738.307.192.2.287.508.287.923v7.896c0 .414-.095.724-.287.93a.965.965 0 01-.738.307c-.305 0-.55-.103-.731-.308-.183-.21-.274-.52-.274-.93v-3.37h-4.382v3.37c0 .415-.095.725-.287.93a.965.965 0 01-.738.308c-.305 0-.55-.103-.732-.308-.182-.21-.273-.52-.273-.93v-7.895c0-.41.089-.718.267-.923.182-.205.428-.307.738-.307.305 0 .551.102.738.307.192.2.287.508.287.923zm-29.207 5.998h-6.424a1.605 1.605 0 01-1.606-1.607c0-.89.718-1.608 1.606-1.608h6.424c.888 0 1.606.719 1.606 1.608 0 .888-.718 1.607-1.606 1.607z" fill="#242650"/><path d="M55.156 53.036a1.6 1.6 0 01-1.136-.471l-1.606-1.607a1.606 1.606 0 112.271-2.273l1.606 1.607a1.606 1.606 0 01-1.135 2.744z" fill="#242650"/><path d="M53.55 54.643a1.606 1.606 0 01-1.136-2.743l1.606-1.608a1.606 1.606 0 112.27 2.273l-1.605 1.607a1.6 1.6 0 01-1.135.47zm1.606 11.25h-6.424a1.605 1.605 0 01-1.606-1.607c0-.889.718-1.607 1.606-1.607h6.424c.888 0 1.606.718 1.606 1.607 0 .888-.718 1.607-1.606 1.607z" fill="#242650"/><path d="M50.338 67.5c-.411 0-.823-.157-1.136-.47l-1.606-1.608a1.606 1.606 0 112.271-2.272l1.606 1.607a1.606 1.606 0 01-1.135 2.743z" fill="#242650"/><path d="M48.732 65.893a1.606 1.606 0 01-1.135-2.743l1.605-1.608a1.606 1.606 0 112.271 2.273l-1.606 1.607a1.6 1.6 0 01-1.135.47zm-4.819 4.821H8.58a1.605 1.605 0 01-1.606-1.607c0-.889.718-1.607 1.606-1.607h35.334c.888 0 1.606.718 1.606 1.607s-.718 1.607-1.607 1.607zm51.394 0H59.974a1.605 1.605 0 01-1.606-1.607c0-.889.718-1.607 1.606-1.607h35.333c.889 0 1.606.718 1.606 1.607s-.717 1.607-1.606 1.607zm-69.06 6.429H16.61a1.605 1.605 0 01-1.606-1.607c0-.889.718-1.607 1.606-1.607h9.637c.888 0 1.606.718 1.606 1.607 0 .888-.718 1.607-1.606 1.607zm9.77 0H32.67a1.605 1.605 0 01-1.606-1.607c0-.889.718-1.607 1.606-1.607h3.346c.888 0 1.605.718 1.605 1.607 0 .888-.717 1.607-1.605 1.607zm41.623 0h-9.636a1.605 1.605 0 01-1.606-1.607c0-.889.718-1.607 1.606-1.607h9.637c.888 0 1.606.718 1.606 1.607 0 .888-.718 1.607-1.606 1.607zm9.77 0h-3.345a1.605 1.605 0 01-1.606-1.607c0-.889.718-1.607 1.606-1.607h3.345c.889 0 1.606.718 1.606 1.607 0 .888-.717 1.607-1.606 1.607z" fill="#242650"/></svg>