<svg width="102" height="76" fill="none" xmlns="http://www.w3.org/2000/svg"><path fill-rule="evenodd" clip-rule="evenodd" d="M65.344 11.23h35.062c.882 0 1.594-.718 1.594-1.605v-8.02C102 .716 101.288 0 100.406 0H55.781c-.881 0-1.593.717-1.593 1.604v8.021c0 .887.712 1.604 1.593 1.604h9.563zm14.372-3.21h9.534V3.209h-9.534v4.813zm19.097 0h-6.376V3.209h6.376v4.813zm-22.284 0V3.209h-9.591v4.813h9.59zM57.375 3.209h6.375v4.813h-6.375V3.208zm-1.594 20.855h44.625c.882 0 1.594-.718 1.594-1.605v-8.02c0-.888-.712-1.605-1.594-1.605H55.781c-.881 0-1.593.717-1.593 1.604v8.021c0 .887.712 1.605 1.593 1.605zm43.032-3.209h-6.376v-4.812h6.376v4.812zm-9.563 0v-4.812H66.937v4.812H89.25zm-31.875-4.812h6.375v4.812h-6.375v-4.812zm20.747 20.854H55.781a1.597 1.597 0 01-1.593-1.604V27.27c0-.887.712-1.604 1.593-1.604h44.625c.882 0 1.594.717 1.594 1.604v8.02c0 .888-.712 1.605-1.594 1.605H78.122zm11.128-3.209h-9.534v-4.812h9.534v4.813zm3.188 0h6.374v-4.812h-6.374v4.813zm-15.91-4.812v4.813h-9.59v-4.813h9.59zm-12.778 0h-6.375v4.813h6.375v-4.813zM78.122 49.73H55.781a1.598 1.598 0 01-1.593-1.604v-8.02c0-.888.712-1.605 1.593-1.605h44.625c.882 0 1.594.717 1.594 1.604v8.021c0 .887-.712 1.604-1.594 1.604H78.122zm11.128-3.208h-9.534v-4.813h9.534v4.813zm3.188 0h6.374v-4.813h-6.374v4.813zm-15.91-4.813v4.813h-9.59v-4.813h9.59zm-12.778 0h-6.375v4.813h6.375v-4.813zm14.372 20.855H55.781a1.598 1.598 0 01-1.593-1.605v-8.02c0-.888.712-1.605 1.593-1.605h44.625c.882 0 1.594.717 1.594 1.605v8.02c0 .887-.712 1.605-1.594 1.605H78.122zm11.128-3.209h-9.534v-4.812h9.534v4.812zm3.188 0h6.374v-4.812h-6.374v4.812zm-15.91-4.812v4.812h-9.59v-4.812h9.59zm-12.778 0h-6.375v4.812h6.375v-4.812zm1.594 20.854H55.78a1.597 1.597 0 01-1.593-1.604V65.77c0-.887.712-1.604 1.593-1.604h44.625c.882 0 1.594.717 1.594 1.604v8.02c0 .888-.712 1.605-1.594 1.605H65.344zm-1.594-3.209h-6.375v-4.812h6.375v4.813zm3.188 0h9.59v-4.812h-9.59v4.813zm12.778-4.812v4.813h9.534v-4.813h-9.534zm12.722 0v4.813h6.374v-4.813h-6.374zM.007 38.606C.04 46.632 4 53.744 10.048 58.092c.105.098.224.182.353.25a23.664 23.664 0 0013.507 4.22h.008C37.096 62.56 47.82 51.767 47.82 38.5c0-.034-.001-.069-.003-.102v-7.919c0-13.268-10.725-24.062-23.907-24.062S.003 17.21.003 30.479V38.5c0 .036.001.071.004.106zM23.909 9.625c11.424 0 20.72 9.355 20.72 20.854a20.884 20.884 0 01-8.69 16.97 1.592 1.592 0 00-.412.29 20.508 20.508 0 01-11.618 3.594c-11.424 0-20.718-9.355-20.718-20.854 0-11.498 9.294-20.854 20.718-20.854zm1.594 44.864a23.616 23.616 0 009.537-2.718v4.313a20.493 20.493 0 01-9.537 3.21v-4.805zm12.725-4.752v3.825a20.895 20.895 0 005.816-10.123 24.198 24.198 0 01-5.816 6.298zM3.785 43.455a20.893 20.893 0 005.752 10.049v-3.808a24.199 24.199 0 01-5.752-6.24zm8.94 12.59a20.493 20.493 0 009.59 3.248v-4.804a23.617 23.617 0 01-9.59-2.747v4.303zm6.429-15.94h6.375c2.636 0 4.78-2.16 4.78-4.813 0-2.51-1.918-4.577-4.356-4.794h-6.8v9.606zm-3.188-9.613v9.612c-.881 0-1.594.717-1.594 1.604 0 .887.713 1.605 1.594 1.605h1.594c0 .887.712 1.604 1.594 1.604.88 0 1.593-.717 1.593-1.605h1.594c0 .888.713 1.605 1.594 1.605.88 0 1.594-.717 1.594-1.605h.797c.221 0 .433-.045.625-.127 3.716-.677 6.546-3.96 6.546-7.893a8.033 8.033 0 00-3.51-6.646 6.418 6.418 0 001.917-4.584c0-3.538-2.86-6.416-6.375-6.416 0-.887-.713-1.604-1.594-1.604-.881 0-1.594.717-1.594 1.604h-1.594c0-.887-.712-1.604-1.593-1.604-.882 0-1.594.717-1.594 1.604h-1.594c-.881 0-1.594.717-1.594 1.604 0 .887.713 1.604 1.594 1.604v6.35c-.894.075-1.594.781-1.594 1.644 0 .863.7 1.57 1.594 1.643zm3.188-3.294v-6.344h6.375c1.758 0 3.187 1.44 3.187 3.209a3.209 3.209 0 01-2.51 3.135h-7.052zm-7.995 48.198h35.063c.881 0 1.594-.717 1.594-1.604V65.77c0-.887-.713-1.604-1.594-1.604H1.597c-.881 0-1.594.717-1.594 1.604v8.02c0 .888.713 1.605 1.594 1.605h9.562zm14.373-3.209h9.534v-4.812h-9.534v4.813zm19.096 0h-6.375v-4.812h6.375v4.813zm-22.284 0v-4.812h-9.59v4.813h9.59zM3.191 67.376h6.375v4.813H3.19v-4.813z" fill="#242650"/></svg>