<svg width="1033" height="698" fill="none" xmlns="http://www.w3.org/2000/svg"><path opacity=".142" fill-rule="evenodd" clip-rule="evenodd" d="M662.852 161.724C736.076 162.981 795 222.523 795 295.885c0 74.225-60.172 134.256-134.355 134.256h-76.774v-14.384c0-44.967-36.564-81.513-81.573-81.513-45.095 0-81.572 36.546-81.572 81.513v14.384H305.565C247.226 430.141 200 382.96 200 324.654c0-58.2 47.226-105.487 105.565-105.487h10.662c9.5-91.582 87.042-163.026 181.283-163.026 73.223 0 136.466 43.154 165.342 105.583z" fill="url(#paint0_linear)"/><g opacity=".66"><mask id="a" maskUnits="userSpaceOnUse" x="233" y="12" width="65" height="61"><path fill-rule="evenodd" clip-rule="evenodd" d="M233.287 12.579h63.954v59.687h-63.954V12.58z" fill="#fff"/></mask><g mask="url(#a)"><path fill-rule="evenodd" clip-rule="evenodd" d="M297.241 18.405L292.686 22l-24.412-8.701c-1.656-.956-4.341-.96-5.997-.009L237.707 22l-4.42-3.594v35.456h.004c.02.61.43 1.215 1.237 1.681l27.726 16.005c1.656.956 4.341.96 5.997.009l27.746-15.924c.849-.487 1.26-1.13 1.24-1.77h.004V18.404z" fill="#090A98"/></g><mask id="b" maskUnits="userSpaceOnUse" x="233" y="0" width="65" height="37"><path fill-rule="evenodd" clip-rule="evenodd" d="M233.287 0h63.954v36.81h-63.954V0z" fill="#fff"/></mask><g mask="url(#b)"><path fill-rule="evenodd" clip-rule="evenodd" d="M295.997 20.176L268.251 36.1c-1.656.951-4.341.947-5.997-.008l-27.726-16.006c-1.655-.955-1.654-2.5.002-3.451L262.277.71c1.656-.951 4.341-.947 5.997.008L296 16.724c1.655.956 1.654 2.501-.003 3.452z" fill="#fff"/></g><mask id="c" maskUnits="userSpaceOnUse" x="279" y="40" width="7" height="11"><path fill-rule="evenodd" clip-rule="evenodd" d="M285.172 40.608l-5.016 2.912c-.299.174-.542.596-.542.943v5.804c0 .346.243.486.542.312l5.016-2.912c.3-.174.543-.596.543-.943V40.92c0-.245-.122-.387-.3-.387a.494.494 0 00-.243.075z" fill="#fff"/></mask><g mask="url(#c)"><path fill-rule="evenodd" clip-rule="evenodd" d="M281.4 37.689l-3.107 5.38 7.606 4.392 3.107-5.381-7.606-4.391z" fill="#AAB8CC"/></g><mask id="d" maskUnits="userSpaceOnUse" x="279" y="40" width="7" height="11"><path fill-rule="evenodd" clip-rule="evenodd" d="M285.172 40.608l-5.016 2.912c-.299.174-.542.596-.542.943v5.804c0 .346.243.486.542.312l5.016-2.912c.3-.174.543-.596.543-.943V40.92c0-.245-.122-.387-.3-.387a.494.494 0 00-.243.075z" fill="#fff"/></mask><g mask="url(#d)"><path fill-rule="evenodd" clip-rule="evenodd" d="M278.293 43.07l-3.108 5.381 7.607 4.39 3.107-5.38-7.606-4.391z" fill="#fff"/></g><mask id="e" maskUnits="userSpaceOnUse" x="244" y="40" width="7" height="11"><path fill-rule="evenodd" clip-rule="evenodd" d="M245.177 40.812l5.017 2.913c.299.173.542.595.542.942v5.804c0 .347-.243.486-.542.313l-5.017-2.913c-.299-.174-.542-.596-.542-.942v-5.804c0-.246.122-.388.299-.388a.49.49 0 01.243.075z" fill="#fff"/></mask><g mask="url(#e)"><path fill-rule="evenodd" clip-rule="evenodd" d="M248.95 37.893l3.107 5.381-7.606 4.391-3.108-5.381 7.607-4.39z" fill="#AAB8CC"/></g><mask id="f" maskUnits="userSpaceOnUse" x="244" y="40" width="7" height="11"><path fill-rule="evenodd" clip-rule="evenodd" d="M245.177 40.812l5.017 2.913c.299.173.542.595.542.942v5.804c0 .347-.243.486-.542.313l-5.017-2.913c-.299-.174-.542-.596-.542-.942v-5.804c0-.246.122-.388.299-.388a.49.49 0 01.243.075z" fill="#fff"/></mask><g mask="url(#f)"><path fill-rule="evenodd" clip-rule="evenodd" d="M252.057 43.274l3.107 5.381-7.606 4.391-3.107-5.381 7.606-4.39z" fill="#fff"/></g><path opacity=".502" d="M249.103 45.35l-25.042 93.735" stroke="url(#paint1_linear)" stroke-width="4.8" stroke-linecap="round" stroke-linejoin="round"/><mask id="g" maskUnits="userSpaceOnUse" x="0" y="122" width="65" height="61"><path fill-rule="evenodd" clip-rule="evenodd" d="M0 122.904h64.353v60.062H0v-60.062z" fill="#fff"/></mask><g mask="url(#g)"><path fill-rule="evenodd" clip-rule="evenodd" d="M64.353 128.767l-4.583 3.616-24.565-8.756c-1.666-.961-4.367-.965-6.034-.008l-24.724 8.764L0 128.767v35.678h.004c.02.613.433 1.223 1.245 1.691l27.9 16.106c1.665.961 4.367.965 6.034.009l27.92-16.024c.854-.491 1.267-1.138 1.246-1.782h.004v-35.678z" fill="#090A98"/></g><mask id="h" maskUnits="userSpaceOnUse" x="0" y="110" width="65" height="38"><path fill-rule="evenodd" clip-rule="evenodd" d="M0 110.246h64.353v37.042H0v-37.042z" fill="#fff"/></mask><g mask="url(#h)"><path fill-rule="evenodd" clip-rule="evenodd" d="M63.102 130.549l-27.92 16.024c-1.666.957-4.368.952-6.034-.009l-27.9-16.106c-1.665-.961-1.664-2.516.003-3.473l27.92-16.024c1.667-.957 4.368-.953 6.034.009l27.9 16.105c1.665.962 1.665 2.517-.002 3.474z" fill="#fff"/></g><mask id="i" maskUnits="userSpaceOnUse" x="46" y="151" width="7" height="11"><path fill-rule="evenodd" clip-rule="evenodd" d="M52.21 151.108l-5.048 2.931c-.301.175-.546.6-.546.948v5.841c0 .349.245.489.546.314l5.048-2.93c.301-.175.545-.6.545-.949v-5.84c0-.247-.122-.39-.3-.39a.494.494 0 00-.245.075z" fill="#fff"/></mask><g mask="url(#i)"><path fill-rule="evenodd" clip-rule="evenodd" d="M48.414 148.171l-3.127 5.415 7.654 4.418 3.127-5.414-7.654-4.419z" fill="#AAB8CC"/></g><mask id="j" maskUnits="userSpaceOnUse" x="46" y="151" width="7" height="11"><path fill-rule="evenodd" clip-rule="evenodd" d="M52.21 151.108l-5.048 2.931c-.301.175-.546.6-.546.948v5.841c0 .349.245.489.546.314l5.048-2.93c.301-.175.545-.6.545-.949v-5.84c0-.247-.122-.39-.3-.39a.494.494 0 00-.245.075z" fill="#fff"/></mask><g mask="url(#j)"><path fill-rule="evenodd" clip-rule="evenodd" d="M45.287 153.586l-3.127 5.415 7.654 4.418 3.127-5.415-7.654-4.418z" fill="#fff"/></g><mask id="k" maskUnits="userSpaceOnUse" x="11" y="151" width="7" height="11"><path fill-rule="evenodd" clip-rule="evenodd" d="M11.964 151.314l5.048 2.931c.302.175.546.599.546.948v5.84c0 .349-.244.49-.546.315l-5.048-2.931c-.301-.175-.545-.599-.545-.948v-5.841c0-.247.122-.389.3-.389.074 0 .157.024.245.075z" fill="#fff"/></mask><g mask="url(#k)"><path fill-rule="evenodd" clip-rule="evenodd" d="M15.76 148.377l3.127 5.415-7.654 4.418-3.127-5.415 7.654-4.418z" fill="#AAB8CC"/></g><mask id="l" maskUnits="userSpaceOnUse" x="11" y="151" width="7" height="11"><path fill-rule="evenodd" clip-rule="evenodd" d="M11.964 151.314l5.048 2.931c.302.175.546.599.546.948v5.84c0 .349-.244.49-.546.315l-5.048-2.931c-.301-.175-.545-.599-.545-.948v-5.841c0-.247.122-.389.3-.389.074 0 .157.024.245.075z" fill="#fff"/></mask><g mask="url(#l)"><path fill-rule="evenodd" clip-rule="evenodd" d="M18.887 153.792l3.127 5.414-7.654 4.419-3.127-5.415 7.654-4.418z" fill="#fff"/></g><path opacity=".502" d="M50.226 155.965l145.137-9.467" stroke="url(#paint2_linear)" stroke-width="4.8" stroke-linecap="round" stroke-linejoin="round"/><mask id="m" maskUnits="userSpaceOnUse" x="180" y="134" width="65" height="62"><path fill-rule="evenodd" clip-rule="evenodd" d="M180.163 134.98h64.353v60.062h-64.353V134.98z" fill="#fff"/></mask><g mask="url(#m)"><path fill-rule="evenodd" clip-rule="evenodd" d="M244.516 140.844l-4.583 3.616-24.565-8.756c-1.666-.962-4.367-.966-6.034-.009l-24.724 8.765-4.447-3.616v35.678h.004c.02.612.433 1.222 1.245 1.691l27.899 16.105c1.666.962 4.368.966 6.035.009l27.919-16.024c.855-.49 1.268-1.137 1.247-1.781h.004v-35.678z" fill="#090A98"/></g><mask id="n" maskUnits="userSpaceOnUse" x="180" y="122" width="65" height="38"><path fill-rule="evenodd" clip-rule="evenodd" d="M180.163 122.323h64.353v37.041h-64.353v-37.041z" fill="#fff"/></mask><g mask="url(#n)"><path fill-rule="evenodd" clip-rule="evenodd" d="M243.265 142.625l-27.919 16.024c-1.667.957-4.369.953-6.035-.008l-27.899-16.106c-1.666-.961-1.665-2.516.002-3.473l27.92-16.024c1.667-.957 4.368-.953 6.034.009l27.9 16.105c1.665.962 1.664 2.517-.003 3.473z" fill="#fff"/></g><mask id="o" maskUnits="userSpaceOnUse" x="226" y="163" width="7" height="11"><path fill-rule="evenodd" clip-rule="evenodd" d="M232.373 163.185l-5.048 2.931c-.302.175-.546.599-.546.948v5.841c0 .348.244.489.546.314l5.048-2.931c.301-.175.545-.599.545-.948v-5.84c0-.247-.122-.39-.301-.39a.495.495 0 00-.244.075z" fill="#fff"/></mask><g mask="url(#o)"><path fill-rule="evenodd" clip-rule="evenodd" d="M228.577 160.248l-3.127 5.415 7.654 4.418 3.127-5.415-7.654-4.418z" fill="#AAB8CC"/></g><mask id="p" maskUnits="userSpaceOnUse" x="226" y="163" width="7" height="11"><path fill-rule="evenodd" clip-rule="evenodd" d="M232.373 163.185l-5.048 2.931c-.302.175-.546.599-.546.948v5.841c0 .348.244.489.546.314l5.048-2.931c.301-.175.545-.599.545-.948v-5.84c0-.247-.122-.39-.301-.39a.495.495 0 00-.244.075z" fill="#fff"/></mask><g mask="url(#p)"><path fill-rule="evenodd" clip-rule="evenodd" d="M225.45 165.663l-3.127 5.415 7.654 4.418 3.127-5.415-7.654-4.418z" fill="#fff"/></g><mask id="q" maskUnits="userSpaceOnUse" x="191" y="163" width="7" height="11"><path fill-rule="evenodd" clip-rule="evenodd" d="M192.127 163.391l5.048 2.93c.301.175.546.6.546.949v5.84c0 .349-.245.49-.546.315l-5.048-2.931c-.301-.175-.545-.6-.545-.948l-.001-5.841c0-.247.123-.39.302-.39.073 0 .156.025.244.076z" fill="#fff"/></mask><g mask="url(#q)"><path fill-rule="evenodd" clip-rule="evenodd" d="M195.923 160.453l3.127 5.415-7.654 4.419-3.127-5.415 7.654-4.419z" fill="#AAB8CC"/></g><mask id="r" maskUnits="userSpaceOnUse" x="191" y="163" width="7" height="11"><path fill-rule="evenodd" clip-rule="evenodd" d="M192.127 163.391l5.048 2.93c.301.175.546.6.546.949v5.84c0 .349-.245.49-.546.315l-5.048-2.931c-.301-.175-.545-.6-.545-.948l-.001-5.841c0-.247.123-.39.302-.39.073 0 .156.025.244.076z" fill="#fff"/></mask><g mask="url(#r)"><path fill-rule="evenodd" clip-rule="evenodd" d="M199.05 165.868l3.127 5.415-7.654 4.418-3.127-5.414 7.654-4.419z" fill="#fff"/></g><path d="M229.333 168.13l114.198 65.733" stroke="url(#paint3_linear)" stroke-width="4.8" stroke-linecap="round" stroke-linejoin="round"/></g><g opacity=".66"><mask id="s" maskUnits="userSpaceOnUse" x="770" y="391" width="65" height="61"><path fill-rule="evenodd" clip-rule="evenodd" d="M770.46 391.282h64.416v60.052H770.46v-60.052z" fill="#fff"/></mask><g mask="url(#s)"><path fill-rule="evenodd" clip-rule="evenodd" d="M834.876 397.145l-4.588 3.615-24.589-8.754c-1.667-.962-4.372-.965-6.04-.009l-24.747 8.763-4.452-3.615v35.672h.004c.019.612.433 1.222 1.246 1.691l27.926 16.102c1.668.962 4.372.966 6.041.009l27.947-16.021c.855-.49 1.269-1.137 1.248-1.781h.004v-35.672z" fill="#090A98"/></g><mask id="t" maskUnits="userSpaceOnUse" x="770" y="378" width="65" height="38"><path fill-rule="evenodd" clip-rule="evenodd" d="M770.46 378.627h64.416v37.035H770.46v-37.035z" fill="#fff"/></mask><g mask="url(#t)"><path fill-rule="evenodd" clip-rule="evenodd" d="M833.624 398.926l-27.947 16.022c-1.669.956-4.373.952-6.041-.009l-27.926-16.103c-1.668-.961-1.667-2.516.002-3.473l27.947-16.021c1.669-.957 4.373-.953 6.04.009l27.927 16.102c1.667.962 1.667 2.517-.002 3.473z" fill="#fff"/></g><mask id="u" maskUnits="userSpaceOnUse" x="817" y="419" width="7" height="11"><path fill-rule="evenodd" clip-rule="evenodd" d="M822.72 419.482l-5.052 2.93c-.302.175-.546.6-.546.949v5.839c0 .349.244.489.546.314l5.052-2.93c.302-.175.547-.599.547-.948v-5.839c0-.247-.123-.39-.302-.39a.498.498 0 00-.245.075z" fill="#fff"/></mask><g mask="url(#u)"><path fill-rule="evenodd" clip-rule="evenodd" d="M818.921 416.545l-3.13 5.414 7.661 4.418 3.13-5.414-7.661-4.418z" fill="#AAB8CC"/></g><mask id="v" maskUnits="userSpaceOnUse" x="817" y="419" width="7" height="11"><path fill-rule="evenodd" clip-rule="evenodd" d="M822.72 419.482l-5.052 2.93c-.302.175-.546.6-.546.949v5.839c0 .349.244.489.546.314l5.052-2.93c.302-.175.547-.599.547-.948v-5.839c0-.247-.123-.39-.302-.39a.498.498 0 00-.245.075z" fill="#fff"/></mask><g mask="url(#v)"><path fill-rule="evenodd" clip-rule="evenodd" d="M815.791 421.959l-3.13 5.415 7.662 4.417 3.129-5.414-7.661-4.418z" fill="#fff"/></g><mask id="w" maskUnits="userSpaceOnUse" x="781" y="419" width="8" height="11"><path fill-rule="evenodd" clip-rule="evenodd" d="M782.436 419.688l5.052 2.93c.302.175.547.599.547.948v5.84c0 .348-.245.489-.547.314l-5.052-2.93c-.302-.175-.547-.6-.547-.948v-5.84c0-.247.123-.389.302-.389.074 0 .157.024.245.075z" fill="#fff"/></mask><g mask="url(#w)"><path fill-rule="evenodd" clip-rule="evenodd" d="M786.235 416.751l3.13 5.414-7.661 4.418-3.13-5.414 7.661-4.418z" fill="#AAB8CC"/></g><mask id="x" maskUnits="userSpaceOnUse" x="781" y="419" width="8" height="11"><path fill-rule="evenodd" clip-rule="evenodd" d="M782.436 419.688l5.052 2.93c.302.175.547.599.547.948v5.84c0 .348-.245.489-.547.314l-5.052-2.93c-.302-.175-.547-.6-.547-.948v-5.84c0-.247.123-.389.302-.389.074 0 .157.024.245.075z" fill="#fff"/></mask><g mask="url(#x)"><path fill-rule="evenodd" clip-rule="evenodd" d="M789.365 422.165l3.13 5.414-7.661 4.418-3.13-5.414 7.661-4.418z" fill="#fff"/></g><path d="M785.443 424.621L657 500.204" stroke="url(#paint4_linear)" stroke-width="4.8" stroke-linecap="round" stroke-linejoin="round"/></g><g opacity=".66"><mask id="y" maskUnits="userSpaceOnUse" x="465" y="400" width="66" height="61"><path fill-rule="evenodd" clip-rule="evenodd" d="M465.661 400.579h64.396v59.77h-64.396v-59.77z" fill="#fff"/></mask><g mask="url(#y)"><path fill-rule="evenodd" clip-rule="evenodd" d="M530.057 406.414l-4.586 3.599-24.581-8.714c-1.667-.957-4.371-.961-6.039-.009l-24.739 8.723-4.451-3.599v35.504h.004c.02.61.433 1.217 1.246 1.683l27.918 16.027c1.666.957 4.37.961 6.038.009l27.938-15.946c.855-.488 1.269-1.132 1.248-1.773h.004v-35.504z" fill="#090A98"/></g><mask id="z" maskUnits="userSpaceOnUse" x="465" y="387" width="66" height="38"><path fill-rule="evenodd" clip-rule="evenodd" d="M465.661 387.983h64.396v36.862h-64.396v-36.862z" fill="#fff"/></mask><g mask="url(#z)"><path fill-rule="evenodd" clip-rule="evenodd" d="M528.805 408.187l-27.938 15.946c-1.668.952-4.372.948-6.038-.009l-27.918-16.027c-1.667-.957-1.666-2.504.002-3.456l27.938-15.946c1.668-.952 4.372-.949 6.039.008l27.917 16.027c1.667.957 1.666 2.505-.002 3.457z" fill="#3182FF"/></g><g filter="url(#filter0_f)"><path fill-rule="evenodd" clip-rule="evenodd" d="M528.805 400.922l-27.938 15.946c-1.668.952-4.372.948-6.038-.009l-27.918-16.027c-1.667-.957-1.666-2.505.002-3.457l27.938-15.946c1.668-.952 4.372-.948 6.039.009l27.917 16.027c1.667.957 1.666 2.505-.002 3.457z" fill="#00FFFB"/></g><mask id="A" maskUnits="userSpaceOnUse" x="512" y="428" width="7" height="11"><path fill-rule="evenodd" clip-rule="evenodd" d="M517.905 428.646l-5.051 2.917c-.301.174-.546.596-.546.944v5.812c0 .347.245.487.546.313l5.051-2.917c.302-.174.546-.597.546-.944v-5.812c0-.245-.122-.387-.301-.387a.503.503 0 00-.245.074z" fill="#fff"/></mask><g mask="url(#A)"><path fill-rule="evenodd" clip-rule="evenodd" d="M514.107 425.723l-3.129 5.389 7.659 4.397 3.129-5.389-7.659-4.397z" fill="#AAB8CC"/></g><mask id="B" maskUnits="userSpaceOnUse" x="512" y="428" width="7" height="11"><path fill-rule="evenodd" clip-rule="evenodd" d="M517.905 428.646l-5.051 2.917c-.301.174-.546.596-.546.944v5.812c0 .347.245.487.546.313l5.051-2.917c.302-.174.546-.597.546-.944v-5.812c0-.245-.122-.387-.301-.387a.503.503 0 00-.245.074z" fill="#fff"/></mask><g mask="url(#B)"><path fill-rule="evenodd" clip-rule="evenodd" d="M510.978 431.112l-3.129 5.389 7.659 4.397 3.129-5.389-7.659-4.397z" fill="#fff"/></g><mask id="C" maskUnits="userSpaceOnUse" x="477" y="428" width="7" height="11"><path fill-rule="evenodd" clip-rule="evenodd" d="M477.633 428.851l5.052 2.917c.301.174.546.596.546.943v5.812c0 .347-.245.488-.546.313l-5.052-2.916c-.301-.174-.546-.597-.546-.944v-5.812c0-.246.123-.388.302-.388.073 0 .157.024.244.075z" fill="#fff"/></mask><g mask="url(#C)"><path fill-rule="evenodd" clip-rule="evenodd" d="M481.432 425.928l3.129 5.389-7.659 4.397-3.129-5.389 7.659-4.397z" fill="#AAB8CC"/></g><mask id="D" maskUnits="userSpaceOnUse" x="477" y="428" width="7" height="11"><path fill-rule="evenodd" clip-rule="evenodd" d="M477.633 428.851l5.052 2.917c.301.174.546.596.546.943v5.812c0 .347-.245.488-.546.313l-5.052-2.916c-.301-.174-.546-.597-.546-.944v-5.812c0-.246.123-.388.302-.388.073 0 .157.024.244.075z" fill="#fff"/></mask><g mask="url(#D)"><path fill-rule="evenodd" clip-rule="evenodd" d="M484.561 431.317l3.129 5.388-7.659 4.397-3.129-5.388 7.659-4.397z" fill="#fff"/></g><path d="M513.799 432.622l111.744 63.696" stroke="url(#paint5_linear)" stroke-width="4.8" stroke-linecap="round" stroke-linejoin="round"/><mask id="E" maskUnits="userSpaceOnUse" x="610" y="484" width="65" height="61"><path fill-rule="evenodd" clip-rule="evenodd" d="M610.333 484.856h64.395v59.77h-64.395v-59.77z" fill="#fff"/></mask><g mask="url(#E)"><path fill-rule="evenodd" clip-rule="evenodd" d="M674.728 490.691l-4.586 3.599-24.581-8.714c-1.667-.957-4.37-.961-6.038-.009l-24.74 8.723-4.45-3.599v35.504h.004c.02.61.433 1.217 1.245 1.683l27.918 16.027c1.667.957 4.37.961 6.039.009l27.937-15.946c.855-.488 1.269-1.132 1.248-1.773h.004v-35.504z" fill="#090A98"/></g><mask id="F" maskUnits="userSpaceOnUse" x="610" y="472" width="65" height="38"><path fill-rule="evenodd" clip-rule="evenodd" d="M610.333 472.26h64.395v36.861h-64.395V472.26z" fill="#fff"/></mask><g mask="url(#F)"><path fill-rule="evenodd" clip-rule="evenodd" d="M673.477 492.464l-27.939 15.946c-1.668.952-4.371.948-6.038-.009l-27.918-16.027c-1.667-.957-1.666-2.504.002-3.456l27.939-15.946c1.668-.953 4.371-.949 6.038.008l27.918 16.027c1.667.957 1.666 2.505-.002 3.457z" fill="#fff"/></g><mask id="G" maskUnits="userSpaceOnUse" x="656" y="512" width="8" height="11"><path fill-rule="evenodd" clip-rule="evenodd" d="M662.577 512.923l-5.051 2.917c-.302.174-.546.597-.546.944v5.812c0 .347.244.487.546.313l5.051-2.917c.301-.174.546-.596.546-.944v-5.812c0-.245-.123-.387-.302-.387a.503.503 0 00-.244.074z" fill="#fff"/></mask><g mask="url(#G)"><path fill-rule="evenodd" clip-rule="evenodd" d="M658.778 510l-3.129 5.389 7.659 4.397 3.129-5.389-7.659-4.397z" fill="#AAB8CC"/></g><mask id="H" maskUnits="userSpaceOnUse" x="656" y="512" width="8" height="11"><path fill-rule="evenodd" clip-rule="evenodd" d="M662.577 512.923l-5.051 2.917c-.302.174-.546.597-.546.944v5.812c0 .347.244.487.546.313l5.051-2.917c.301-.174.546-.596.546-.944v-5.812c0-.245-.123-.387-.302-.387a.503.503 0 00-.244.074z" fill="#fff"/></mask><g mask="url(#H)"><path fill-rule="evenodd" clip-rule="evenodd" d="M655.649 515.389l-3.128 5.389 7.659 4.397 3.128-5.389-7.659-4.397z" fill="#fff"/></g><mask id="I" maskUnits="userSpaceOnUse" x="621" y="513" width="7" height="11"><path fill-rule="evenodd" clip-rule="evenodd" d="M622.305 513.128l5.051 2.917c.302.174.546.596.546.943v5.812c0 .347-.244.487-.546.313l-5.051-2.916c-.302-.174-.546-.597-.546-.944v-5.812c0-.246.123-.388.301-.388.074 0 .157.024.245.075z" fill="#fff"/></mask><g mask="url(#I)"><path fill-rule="evenodd" clip-rule="evenodd" d="M626.103 510.205l3.129 5.389-7.659 4.397-3.129-5.389 7.659-4.397z" fill="#AAB8CC"/></g><mask id="J" maskUnits="userSpaceOnUse" x="621" y="513" width="7" height="11"><path fill-rule="evenodd" clip-rule="evenodd" d="M622.305 513.128l5.051 2.917c.302.174.546.596.546.943v5.812c0 .347-.244.487-.546.313l-5.051-2.916c-.302-.174-.546-.597-.546-.944v-5.812c0-.246.123-.388.301-.388.074 0 .157.024.245.075z" fill="#fff"/></mask><g mask="url(#J)"><path fill-rule="evenodd" clip-rule="evenodd" d="M629.232 515.594l3.129 5.388-7.659 4.397-3.129-5.388 7.659-4.397z" fill="#fff"/></g><path d="M575.272 610.007l50.328-91.542" stroke="url(#paint6_linear)" stroke-width="4.8" stroke-linecap="round" stroke-linejoin="round"/><mask id="K" maskUnits="userSpaceOnUse" x="531" y="603" width="65" height="61"><path fill-rule="evenodd" clip-rule="evenodd" d="M531.2 603.6h64.396v59.769H531.2V603.6z" fill="#fff"/></mask><g mask="url(#K)"><path fill-rule="evenodd" clip-rule="evenodd" d="M595.596 609.434l-4.586 3.599-24.581-8.713c-1.667-.957-4.371-.961-6.039-.009l-24.739 8.722-4.451-3.599v35.505h.004c.02.61.433 1.217 1.246 1.683l27.918 16.027c1.667.957 4.37.961 6.038.009l27.938-15.946c.855-.488 1.269-1.132 1.248-1.773h.004v-35.505z" fill="#090A98"/></g><mask id="L" maskUnits="userSpaceOnUse" x="531" y="591" width="65" height="37"><path fill-rule="evenodd" clip-rule="evenodd" d="M531.201 591.004h64.395v36.861h-64.395v-36.861z" fill="#fff"/></mask><g mask="url(#L)"><path fill-rule="evenodd" clip-rule="evenodd" d="M594.344 611.208l-27.938 15.946c-1.668.952-4.371.948-6.038-.009l-27.918-16.027c-1.667-.957-1.666-2.505.002-3.457l27.938-15.946c1.668-.952 4.372-.948 6.039.009l27.918 16.027c1.666.957 1.665 2.504-.003 3.457z" fill="#fff"/></g><mask id="M" maskUnits="userSpaceOnUse" x="577" y="631" width="7" height="11"><path fill-rule="evenodd" clip-rule="evenodd" d="M583.444 631.667l-5.051 2.917c-.301.174-.546.596-.546.943v5.812c0 .347.245.487.546.313l5.051-2.916c.302-.174.546-.597.546-.944v-5.812c0-.246-.122-.388-.301-.388a.495.495 0 00-.245.075z" fill="#fff"/></mask><g mask="url(#M)"><path fill-rule="evenodd" clip-rule="evenodd" d="M579.646 628.744l-3.129 5.389 7.659 4.397 3.129-5.389-7.659-4.397z" fill="#AAB8CC"/></g><mask id="N" maskUnits="userSpaceOnUse" x="577" y="631" width="7" height="11"><path fill-rule="evenodd" clip-rule="evenodd" d="M583.444 631.667l-5.051 2.917c-.301.174-.546.596-.546.943v5.812c0 .347.245.487.546.313l5.051-2.916c.302-.174.546-.597.546-.944v-5.812c0-.246-.122-.388-.301-.388a.495.495 0 00-.245.075z" fill="#fff"/></mask><g mask="url(#N)"><path fill-rule="evenodd" clip-rule="evenodd" d="M576.517 634.133l-3.129 5.388 7.659 4.397 3.129-5.388-7.659-4.397z" fill="#fff"/></g><mask id="O" maskUnits="userSpaceOnUse" x="542" y="631" width="7" height="11"><path fill-rule="evenodd" clip-rule="evenodd" d="M543.173 631.872l5.051 2.916c.301.174.546.597.546.944v5.812c0 .347-.245.487-.546.313l-5.051-2.917c-.302-.174-.546-.596-.546-.943v-5.812c0-.246.122-.388.301-.388.074 0 .157.024.245.075z" fill="#fff"/></mask><g mask="url(#O)"><path fill-rule="evenodd" clip-rule="evenodd" d="M546.971 628.949l3.129 5.388-7.659 4.397-3.129-5.388 7.659-4.397z" fill="#AAB8CC"/></g><mask id="P" maskUnits="userSpaceOnUse" x="542" y="631" width="7" height="11"><path fill-rule="evenodd" clip-rule="evenodd" d="M543.173 631.872l5.051 2.916c.301.174.546.597.546.944v5.812c0 .347-.245.487-.546.313l-5.051-2.917c-.302-.174-.546-.596-.546-.943v-5.812c0-.246.122-.388.301-.388.074 0 .157.024.245.075z" fill="#fff"/></mask><g mask="url(#P)"><path fill-rule="evenodd" clip-rule="evenodd" d="M550.1 634.337l3.129 5.389-7.659 4.397-3.129-5.389 7.659-4.397z" fill="#fff"/></g><mask id="Q" maskUnits="userSpaceOnUse" x="784" y="227" width="65" height="61"><path fill-rule="evenodd" clip-rule="evenodd" d="M784.828 227.161h63.995v60.182h-63.995v-60.182z" fill="#fff"/></mask><g mask="url(#Q)"><path fill-rule="evenodd" clip-rule="evenodd" d="M848.823 233.036l-4.557 3.624-24.429-8.774c-1.656-.963-4.343-.967-6.001-.009l-24.585 8.783-4.423-3.624v35.749h.004c.02.614.43 1.225 1.238 1.695l27.744 16.137c1.657.964 4.343.968 6.001.009l27.764-16.056c.85-.491 1.261-1.14 1.24-1.785h.004v-35.749z" fill="#090A98"/></g><mask id="R" maskUnits="userSpaceOnUse" x="784" y="214" width="65" height="38"><path fill-rule="evenodd" clip-rule="evenodd" d="M784.828 214.478h63.995v37.116h-63.995v-37.116z" fill="#fff"/></mask><g mask="url(#R)"><path fill-rule="evenodd" clip-rule="evenodd" d="M847.579 234.821l-27.764 16.056c-1.658.959-4.345.955-6.001-.008l-27.744-16.138c-1.657-.963-1.656-2.522.002-3.48l27.764-16.056c1.658-.959 4.345-.955 6.001.009l27.745 16.137c1.656.963 1.655 2.522-.003 3.48z" fill="#fff"/></g><mask id="S" maskUnits="userSpaceOnUse" x="831" y="255" width="7" height="11"><path fill-rule="evenodd" clip-rule="evenodd" d="M836.747 255.422l-5.02 2.936c-.299.176-.542.601-.542.951v5.852c0 .349.243.49.542.315l5.02-2.937c.3-.175.543-.601.543-.95v-5.852c0-.248-.122-.391-.3-.391a.494.494 0 00-.243.076z" fill="#fff"/></mask><g mask="url(#S)"><path fill-rule="evenodd" clip-rule="evenodd" d="M832.972 252.479l-3.109 5.425 7.611 4.427 3.11-5.425-7.612-4.427z" fill="#AAB8CC"/></g><mask id="T" maskUnits="userSpaceOnUse" x="831" y="255" width="7" height="11"><path fill-rule="evenodd" clip-rule="evenodd" d="M836.747 255.422l-5.02 2.936c-.299.176-.542.601-.542.951v5.852c0 .349.243.49.542.315l5.02-2.937c.3-.175.543-.601.543-.95v-5.852c0-.248-.122-.391-.3-.391a.494.494 0 00-.243.076z" fill="#fff"/></mask><g mask="url(#T)"><path fill-rule="evenodd" clip-rule="evenodd" d="M829.863 257.904l-3.109 5.426 7.611 4.427 3.109-5.426-7.611-4.427z" fill="#fff"/></g><mask id="U" maskUnits="userSpaceOnUse" x="796" y="255" width="7" height="11"><path fill-rule="evenodd" clip-rule="evenodd" d="M796.726 255.628l5.02 2.937c.299.175.542.6.542.95v5.852c0 .349-.243.49-.542.315l-5.02-2.937c-.3-.175-.543-.6-.543-.95v-5.852c0-.247.122-.39.3-.39.073 0 .155.024.243.075z" fill="#fff"/></mask><g mask="url(#U)"><path fill-rule="evenodd" clip-rule="evenodd" d="M800.501 252.685l3.109 5.426-7.611 4.427-3.11-5.426 7.612-4.427z" fill="#AAB8CC"/></g><mask id="V" maskUnits="userSpaceOnUse" x="796" y="255" width="7" height="11"><path fill-rule="evenodd" clip-rule="evenodd" d="M796.726 255.628l5.02 2.937c.299.175.542.6.542.95v5.852c0 .349-.243.49-.542.315l-5.02-2.937c-.3-.175-.543-.6-.543-.95v-5.852c0-.247.122-.39.3-.39.073 0 .155.024.243.075z" fill="#fff"/></mask><g mask="url(#V)"><path fill-rule="evenodd" clip-rule="evenodd" d="M803.61 258.111l3.109 5.425-7.611 4.428-3.109-5.426 7.611-4.427z" fill="#fff"/></g><mask id="W" maskUnits="userSpaceOnUse" x="613" y="82" width="65" height="61"><path fill-rule="evenodd" clip-rule="evenodd" d="M613.375 82.03h63.995v60.182h-63.995V82.03z" fill="#fff"/></mask><g mask="url(#W)"><path fill-rule="evenodd" clip-rule="evenodd" d="M677.37 87.905l-4.558 3.624-24.428-8.774c-1.656-.963-4.343-.967-6.001-.009l-24.585 8.783-4.423-3.624v35.749h.004c.02.614.43 1.225 1.238 1.695l27.744 16.137c1.656.964 4.343.968 6.001.009l27.764-16.055c.85-.492 1.261-1.14 1.24-1.786h.004V87.905z" fill="#090A98"/></g><mask id="X" maskUnits="userSpaceOnUse" x="613" y="69" width="65" height="38"><path fill-rule="evenodd" clip-rule="evenodd" d="M613.375 69.347h63.995v37.116h-63.995V69.347z" fill="#fff"/></mask><g mask="url(#X)"><path fill-rule="evenodd" clip-rule="evenodd" d="M676.126 89.69l-27.764 16.057c-1.658.958-4.345.954-6.001-.009L614.617 89.6c-1.657-.963-1.656-2.522.002-3.48l27.764-16.056c1.658-.959 4.345-.955 6.001.009l27.744 16.137c1.657.964 1.656 2.522-.002 3.48z" fill="#fff"/></g><mask id="Y" maskUnits="userSpaceOnUse" x="659" y="110" width="7" height="11"><path fill-rule="evenodd" clip-rule="evenodd" d="M665.294 110.291l-5.02 2.937c-.299.175-.542.6-.542.95v5.852c0 .349.243.49.542.315l5.02-2.937c.3-.175.543-.6.543-.95v-5.852c0-.247-.122-.39-.3-.39a.488.488 0 00-.243.075z" fill="#fff"/></mask><g mask="url(#Y)"><path fill-rule="evenodd" clip-rule="evenodd" d="M661.519 107.348l-3.109 5.425 7.611 4.428 3.109-5.426-7.611-4.427z" fill="#AAB8CC"/></g><mask id="Z" maskUnits="userSpaceOnUse" x="659" y="110" width="7" height="11"><path fill-rule="evenodd" clip-rule="evenodd" d="M665.294 110.291l-5.02 2.937c-.299.175-.542.6-.542.95v5.852c0 .349.243.49.542.315l5.02-2.937c.3-.175.543-.6.543-.95v-5.852c0-.247-.122-.39-.3-.39a.488.488 0 00-.243.075z" fill="#fff"/></mask><g mask="url(#Z)"><path fill-rule="evenodd" clip-rule="evenodd" d="M658.41 112.773l-3.11 5.426 7.612 4.427 3.109-5.425-7.611-4.428z" fill="#fff"/></g><mask id="aa" maskUnits="userSpaceOnUse" x="624" y="110" width="7" height="11"><path fill-rule="evenodd" clip-rule="evenodd" d="M625.273 110.497l5.019 2.937c.3.175.543.601.543.95v5.852c0 .349-.243.491-.543.315l-5.019-2.936c-.3-.176-.543-.601-.543-.951v-5.852c0-.247.122-.39.299-.39.074 0 .156.024.244.075z" fill="#fff"/></mask><g mask="url(#aa)"><path fill-rule="evenodd" clip-rule="evenodd" d="M629.047 107.554l3.11 5.426-7.612 4.427-3.109-5.426 7.611-4.427z" fill="#AAB8CC"/></g><mask id="ab" maskUnits="userSpaceOnUse" x="624" y="110" width="7" height="11"><path fill-rule="evenodd" clip-rule="evenodd" d="M625.273 110.497l5.019 2.937c.3.175.543.601.543.95v5.852c0 .349-.243.491-.543.315l-5.019-2.936c-.3-.176-.543-.601-.543-.951v-5.852c0-.247.122-.39.299-.39.074 0 .156.024.244.075z" fill="#fff"/></mask><g mask="url(#ab)"><path fill-rule="evenodd" clip-rule="evenodd" d="M632.157 112.98l3.109 5.425-7.611 4.428-3.11-5.426 7.612-4.427z" fill="#fff"/></g><path d="M628.094 115.716l15.615 160.319 155.539-14.781" stroke="url(#paint7_linear)" stroke-width="4.8" stroke-linecap="round" stroke-linejoin="round"/><mask id="ac" maskUnits="userSpaceOnUse" x="613" y="266" width="65" height="61"><path fill-rule="evenodd" clip-rule="evenodd" d="M613.375 266.742h63.995v60.182h-63.995v-60.182z" fill="#fff"/></mask><g mask="url(#ac)"><path fill-rule="evenodd" clip-rule="evenodd" d="M677.37 272.617l-4.558 3.624-24.428-8.774c-1.656-.963-4.343-.967-6.001-.008l-24.585 8.782-4.423-3.624v35.749h.004c.02.614.43 1.225 1.238 1.695l27.744 16.138c1.656.963 4.343.967 6.001.008l27.764-16.055c.85-.492 1.261-1.14 1.24-1.786h.004v-35.749z" fill="#090A98"/></g><mask id="ad" maskUnits="userSpaceOnUse" x="613" y="254" width="65" height="38"><path fill-rule="evenodd" clip-rule="evenodd" d="M613.375 254.06h63.995v37.115h-63.995V254.06z" fill="#fff"/></mask><g mask="url(#ad)"><path fill-rule="evenodd" clip-rule="evenodd" d="M676.126 274.403l-27.764 16.056c-1.658.958-4.345.954-6.001-.009l-27.744-16.138c-1.657-.963-1.656-2.521.002-3.48l27.764-16.056c1.658-.959 4.345-.955 6.001.009l27.744 16.137c1.657.964 1.656 2.522-.002 3.481z" fill="#fff"/></g><mask id="ae" maskUnits="userSpaceOnUse" x="659" y="294" width="7" height="12"><path fill-rule="evenodd" clip-rule="evenodd" d="M665.294 295.003l-5.02 2.937c-.299.175-.542.6-.542.95v5.852c0 .349.243.49.542.315l5.02-2.937c.3-.175.543-.6.543-.95v-5.852c0-.247-.122-.39-.3-.39a.488.488 0 00-.243.075z" fill="#fff"/></mask><g mask="url(#ae)"><path fill-rule="evenodd" clip-rule="evenodd" d="M661.519 292.06l-3.109 5.426 7.611 4.427 3.109-5.426-7.611-4.427z" fill="#AAB8CC"/></g><mask id="af" maskUnits="userSpaceOnUse" x="659" y="294" width="7" height="12"><path fill-rule="evenodd" clip-rule="evenodd" d="M665.294 295.003l-5.02 2.937c-.299.175-.542.6-.542.95v5.852c0 .349.243.49.542.315l5.02-2.937c.3-.175.543-.6.543-.95v-5.852c0-.247-.122-.39-.3-.39a.488.488 0 00-.243.075z" fill="#fff"/></mask><g mask="url(#af)"><path fill-rule="evenodd" clip-rule="evenodd" d="M658.41 297.486l-3.11 5.425 7.612 4.428 3.109-5.426-7.611-4.427z" fill="#fff"/></g><mask id="ag" maskUnits="userSpaceOnUse" x="624" y="295" width="7" height="11"><path fill-rule="evenodd" clip-rule="evenodd" d="M625.273 295.209l5.019 2.937c.3.175.543.601.543.95v5.852c0 .35-.243.491-.543.315l-5.019-2.936c-.3-.176-.543-.601-.543-.95v-5.852c0-.248.122-.391.299-.391.074 0 .156.024.244.075z" fill="#fff"/></mask><g mask="url(#ag)"><path fill-rule="evenodd" clip-rule="evenodd" d="M629.047 292.266l3.11 5.426-7.612 4.427-3.109-5.426 7.611-4.427z" fill="#AAB8CC"/></g><mask id="ah" maskUnits="userSpaceOnUse" x="624" y="295" width="7" height="11"><path fill-rule="evenodd" clip-rule="evenodd" d="M625.273 295.209l5.019 2.937c.3.175.543.601.543.95v5.852c0 .35-.243.491-.543.315l-5.019-2.936c-.3-.176-.543-.601-.543-.95v-5.852c0-.248.122-.391.299-.391.074 0 .156.024.244.075z" fill="#fff"/></mask><g mask="url(#ah)"><path fill-rule="evenodd" clip-rule="evenodd" d="M632.157 297.692l3.109 5.426-7.611 4.427-3.11-5.426 7.612-4.427z" fill="#fff"/></g><path d="M629.201 300.031l-108.147 63.33" stroke="url(#paint8_linear)" stroke-width="4.8" stroke-linecap="round" stroke-linejoin="round"/><mask id="ai" maskUnits="userSpaceOnUse" x="465" y="350" width="65" height="61"><path fill-rule="evenodd" clip-rule="evenodd" d="M465.661 350.402h63.995v59.649h-63.995v-59.649z" fill="#fff"/></mask><g mask="url(#ai)"><path fill-rule="evenodd" clip-rule="evenodd" d="M529.656 356.225l-4.557 3.592-24.429-8.696c-1.656-.955-4.343-.959-6-.009l-24.586 8.705-4.423-3.592v35.433h.004c.02.609.431 1.214 1.238 1.68l27.744 15.994c1.657.955 4.343.959 6.001.009l27.764-15.914c.85-.486 1.261-1.129 1.24-1.769h.004v-35.433z" fill="#090A98"/></g><mask id="aj" maskUnits="userSpaceOnUse" x="465" y="337" width="65" height="38"><path fill-rule="evenodd" clip-rule="evenodd" d="M465.661 337.832h63.995v36.787h-63.995v-36.787z" fill="#fff"/></mask><g mask="url(#aj)"><path fill-rule="evenodd" clip-rule="evenodd" d="M528.412 357.995l-27.764 15.914c-1.658.95-4.344.946-6.001-.009l-27.744-15.995c-1.656-.955-1.655-2.499.002-3.449l27.765-15.914c1.657-.95 4.344-.946 6.001.009l27.744 15.994c1.656.955 1.655 2.5-.003 3.45z" fill="#3678FF"/></g><g filter="url(#filter1_f)"><path fill-rule="evenodd" clip-rule="evenodd" d="M528.412 350.744l-27.764 15.914c-1.658.95-4.344.946-6.001-.009l-27.744-15.994c-1.656-.955-1.655-2.5.002-3.45l27.765-15.914c1.657-.95 4.344-.946 6.001.009l27.744 15.995c1.656.955 1.655 2.499-.003 3.449z" fill="#00FFFB"/></g><mask id="ak" maskUnits="userSpaceOnUse" x="512" y="378" width="7" height="11"><path fill-rule="evenodd" clip-rule="evenodd" d="M517.58 378.413l-5.019 2.911c-.3.173-.543.595-.543.941v5.801c0 .346.243.486.543.312l5.019-2.911c.3-.173.543-.595.543-.941v-5.801c0-.245-.122-.387-.3-.387a.491.491 0 00-.243.075z" fill="#fff"/></mask><g mask="url(#ak)"><path fill-rule="evenodd" clip-rule="evenodd" d="M513.805 375.496l-3.109 5.378 7.611 4.388 3.11-5.378-7.612-4.388z" fill="#AAB8CC"/></g><mask id="al" maskUnits="userSpaceOnUse" x="512" y="378" width="7" height="11"><path fill-rule="evenodd" clip-rule="evenodd" d="M517.58 378.413l-5.019 2.911c-.3.173-.543.595-.543.941v5.801c0 .346.243.486.543.312l5.019-2.911c.3-.173.543-.595.543-.941v-5.801c0-.245-.122-.387-.3-.387a.491.491 0 00-.243.075z" fill="#fff"/></mask><g mask="url(#al)"><path fill-rule="evenodd" clip-rule="evenodd" d="M510.696 380.874l-3.109 5.378 7.611 4.388 3.109-5.378-7.611-4.388z" fill="#fff"/></g><mask id="am" maskUnits="userSpaceOnUse" x="477" y="378" width="7" height="11"><path fill-rule="evenodd" clip-rule="evenodd" d="M477.559 378.617l5.02 2.911c.299.174.542.595.542.942v5.8c0 .346-.243.486-.542.312l-5.02-2.91c-.3-.174-.543-.596-.543-.942v-5.8c0-.246.122-.388.3-.388.073 0 .156.024.243.075z" fill="#fff"/></mask><g mask="url(#am)"><path fill-rule="evenodd" clip-rule="evenodd" d="M481.334 375.7l3.109 5.378-7.611 4.388-3.109-5.378 7.611-4.388z" fill="#AAB8CC"/></g><mask id="an" maskUnits="userSpaceOnUse" x="477" y="378" width="7" height="11"><path fill-rule="evenodd" clip-rule="evenodd" d="M477.559 378.617l5.02 2.911c.299.174.542.595.542.942v5.8c0 .346-.243.486-.542.312l-5.02-2.91c-.3-.174-.543-.596-.543-.942v-5.8c0-.246.122-.388.3-.388.073 0 .156.024.243.075z" fill="#fff"/></mask><g mask="url(#an)"><path fill-rule="evenodd" clip-rule="evenodd" d="M484.443 381.078l3.11 5.378-7.612 4.388-3.109-5.378 7.611-4.388z" fill="#fff"/></g><path d="M481.488 383.152l-167.497 11.874" stroke="url(#paint9_linear)" stroke-width="4.8" stroke-linecap="round" stroke-linejoin="round"/><mask id="ao" maskUnits="userSpaceOnUse" x="70" y="348" width="65" height="61"><path fill-rule="evenodd" clip-rule="evenodd" d="M70 348.509h64.396v60.023H70v-60.023z" fill="#fff"/></mask><g mask="url(#ao)"><path fill-rule="evenodd" clip-rule="evenodd" d="M134.396 354.369l-4.587 3.614-24.581-8.75c-1.667-.961-4.37-.965-6.038-.009l-24.74 8.759-4.45-3.614v35.655h.004c.02.612.433 1.222 1.245 1.69l27.918 16.095c1.667.961 4.371.965 6.039.009l27.938-16.014c.855-.49 1.269-1.137 1.248-1.78h.004v-35.655z" fill="#090A98"/></g><mask id="ap" maskUnits="userSpaceOnUse" x="70" y="335" width="65" height="38"><path fill-rule="evenodd" clip-rule="evenodd" d="M70 335.86h64.396v37.018H70V335.86z" fill="#fff"/></mask><g mask="url(#ap)"><path fill-rule="evenodd" clip-rule="evenodd" d="M133.144 356.149l-27.938 16.014c-1.668.956-4.372.952-6.039-.009L71.25 356.059c-1.667-.961-1.666-2.515.002-3.471l27.938-16.014c1.668-.956 4.371-.952 6.038.009l27.918 16.095c1.667.961 1.666 2.515-.002 3.471z" fill="#fff"/></g><mask id="aq" maskUnits="userSpaceOnUse" x="116" y="376" width="7" height="11"><path fill-rule="evenodd" clip-rule="evenodd" d="M122.244 376.696l-5.051 2.929c-.302.175-.546.599-.546.947v5.837c0 .348.244.489.546.314l5.051-2.929c.302-.174.546-.599.546-.947v-5.837c0-.247-.123-.389-.301-.389a.495.495 0 00-.245.075z" fill="#fff"/></mask><g mask="url(#aq)"><path fill-rule="evenodd" clip-rule="evenodd" d="M118.445 373.76l-3.128 5.412 7.659 4.415 3.128-5.411-7.659-4.416z" fill="#AAB8CC"/></g><mask id="ar" maskUnits="userSpaceOnUse" x="116" y="376" width="7" height="11"><path fill-rule="evenodd" clip-rule="evenodd" d="M122.244 376.696l-5.051 2.929c-.302.175-.546.599-.546.947v5.837c0 .348.244.489.546.314l5.051-2.929c.302-.174.546-.599.546-.947v-5.837c0-.247-.123-.389-.301-.389a.495.495 0 00-.245.075z" fill="#fff"/></mask><g mask="url(#ar)"><path fill-rule="evenodd" clip-rule="evenodd" d="M115.317 379.172l-3.129 5.411 7.659 4.416 3.129-5.412-7.659-4.415z" fill="#fff"/></g><mask id="as" maskUnits="userSpaceOnUse" x="81" y="376" width="7" height="12"><path fill-rule="evenodd" clip-rule="evenodd" d="M81.972 376.901l5.051 2.929c.302.175.546.599.546.948v5.836c0 .349-.244.489-.546.315L81.973 384c-.302-.175-.547-.599-.547-.948v-5.837c0-.246.123-.389.302-.389.073 0 .156.024.244.075z" fill="#fff"/></mask><g mask="url(#as)"><path fill-rule="evenodd" clip-rule="evenodd" d="M85.77 373.966l3.13 5.411-7.66 4.416-3.128-5.412 7.659-4.415z" fill="#AAB8CC"/></g><mask id="at" maskUnits="userSpaceOnUse" x="81" y="376" width="7" height="12"><path fill-rule="evenodd" clip-rule="evenodd" d="M81.972 376.901l5.051 2.929c.302.175.546.599.546.948v5.836c0 .349-.244.489-.546.315L81.973 384c-.302-.175-.547-.599-.547-.948v-5.837c0-.246.123-.389.302-.389.073 0 .156.024.244.075z" fill="#fff"/></mask><g mask="url(#at)"><path fill-rule="evenodd" clip-rule="evenodd" d="M88.9 379.377l3.128 5.412-7.659 4.415-3.129-5.411 7.66-4.416z" fill="#fff"/></g><path d="M119.128 381.647l166.94 13.4" stroke="url(#paint10_linear)" stroke-width="4.8" stroke-linecap="round" stroke-linejoin="round"/><mask id="au" maskUnits="userSpaceOnUse" x="267" y="388" width="66" height="61"><path fill-rule="evenodd" clip-rule="evenodd" d="M267.831 388.09h64.395v60.024h-64.395V388.09z" fill="#fff"/></mask><g mask="url(#au)"><path fill-rule="evenodd" clip-rule="evenodd" d="M332.226 393.95l-4.586 3.614-24.581-8.75c-1.667-.961-4.37-.965-6.038-.009l-24.74 8.759-4.45-3.614v35.655h.004c.02.612.433 1.222 1.245 1.69l27.918 16.095c1.667.961 4.37.965 6.038.009l27.938-16.014c.855-.489 1.269-1.136 1.248-1.78h.004V393.95z" fill="#090A98"/></g><mask id="av" maskUnits="userSpaceOnUse" x="267" y="375" width="66" height="38"><path fill-rule="evenodd" clip-rule="evenodd" d="M267.831 375.441h64.395v37.018h-64.395v-37.018z" fill="#fff"/></mask><g mask="url(#av)"><path fill-rule="evenodd" clip-rule="evenodd" d="M330.974 395.73l-27.938 16.014c-1.668.956-4.371.952-6.038-.009L269.08 395.64c-1.667-.961-1.666-2.515.002-3.471l27.938-16.014c1.669-.956 4.372-.952 6.039.009l27.918 16.095c1.666.961 1.666 2.515-.003 3.471z" fill="#fff"/></g><mask id="aw" maskUnits="userSpaceOnUse" x="314" y="416" width="7" height="11"><path fill-rule="evenodd" clip-rule="evenodd" d="M320.075 416.277l-5.052 2.929c-.301.175-.546.599-.546.947v5.837c0 .348.245.489.546.314l5.052-2.929c.301-.174.546-.599.546-.947v-5.837c0-.247-.123-.389-.302-.389a.495.495 0 00-.244.075z" fill="#fff"/></mask><g mask="url(#aw)"><path fill-rule="evenodd" clip-rule="evenodd" d="M316.276 413.341l-3.129 5.412 7.659 4.415 3.129-5.411-7.659-4.416z" fill="#AAB8CC"/></g><mask id="ax" maskUnits="userSpaceOnUse" x="314" y="416" width="7" height="11"><path fill-rule="evenodd" clip-rule="evenodd" d="M320.075 416.277l-5.052 2.929c-.301.175-.546.599-.546.947v5.837c0 .348.245.489.546.314l5.052-2.929c.301-.174.546-.599.546-.947v-5.837c0-.247-.123-.389-.302-.389a.495.495 0 00-.244.075z" fill="#fff"/></mask><g mask="url(#ax)"><path fill-rule="evenodd" clip-rule="evenodd" d="M313.147 418.753l-3.129 5.411 7.659 4.416 3.129-5.412-7.659-4.415z" fill="#fff"/></g><mask id="ay" maskUnits="userSpaceOnUse" x="279" y="416" width="7" height="11"><path fill-rule="evenodd" clip-rule="evenodd" d="M279.803 416.482l5.051 2.929c.301.175.546.599.546.948v5.836c0 .349-.245.49-.546.315l-5.051-2.929c-.302-.175-.546-.599-.546-.948v-5.837c0-.246.122-.389.301-.389.074 0 .157.024.245.075z" fill="#fff"/></mask><g mask="url(#ay)"><path fill-rule="evenodd" clip-rule="evenodd" d="M283.601 413.547l3.129 5.411-7.659 4.416-3.129-5.412 7.659-4.415z" fill="#AAB8CC"/></g><mask id="az" maskUnits="userSpaceOnUse" x="279" y="416" width="7" height="11"><path fill-rule="evenodd" clip-rule="evenodd" d="M279.803 416.482l5.051 2.929c.301.175.546.599.546.948v5.836c0 .349-.245.49-.546.315l-5.051-2.929c-.302-.175-.546-.599-.546-.948v-5.837c0-.246.122-.389.301-.389.074 0 .157.024.245.075z" fill="#fff"/></mask><g mask="url(#az)"><path fill-rule="evenodd" clip-rule="evenodd" d="M286.73 418.958l3.129 5.412-7.659 4.415-3.129-5.411 7.659-4.416z" fill="#fff"/></g><path d="M281.421 422.408l-27.078 219.794" stroke="url(#paint11_linear)" stroke-width="4.8" stroke-linecap="round" stroke-linejoin="round"/><mask id="aA" maskUnits="userSpaceOnUse" x="211" y="637" width="65" height="61"><path fill-rule="evenodd" clip-rule="evenodd" d="M211.119 637.452h64.396v60.023h-64.396v-60.023z" fill="#fff"/></mask><g mask="url(#aA)"><path fill-rule="evenodd" clip-rule="evenodd" d="M275.515 643.311l-4.586 3.614-24.582-8.75c-1.666-.961-4.37-.965-6.038-.009l-24.739 8.759-4.451-3.614v35.655h.004c.02.613.433 1.222 1.246 1.691l27.917 16.095c1.667.961 4.371.964 6.039.008l27.938-16.013c.855-.49 1.269-1.137 1.248-1.781h.004v-35.655z" fill="#090A98"/></g><mask id="aB" maskUnits="userSpaceOnUse" x="211" y="624" width="65" height="38"><path fill-rule="evenodd" clip-rule="evenodd" d="M211.119 624.802h64.396v37.018h-64.396v-37.018z" fill="#fff"/></mask><g mask="url(#aB)"><path fill-rule="evenodd" clip-rule="evenodd" d="M274.263 645.092l-27.938 16.014c-1.668.956-4.372.952-6.038-.009l-27.918-16.095c-1.667-.961-1.666-2.515.002-3.472l27.938-16.013c1.668-.956 4.372-.952 6.039.009l27.917 16.095c1.667.961 1.666 2.515-.002 3.471z" fill="#fff"/></g><mask id="aC" maskUnits="userSpaceOnUse" x="257" y="665" width="7" height="11"><path fill-rule="evenodd" clip-rule="evenodd" d="M263.363 665.638l-5.051 2.929c-.302.175-.546.599-.546.948v5.836c0 .349.244.49.546.315l5.051-2.929c.302-.175.546-.599.546-.948v-5.837c0-.246-.123-.389-.301-.389a.495.495 0 00-.245.075z" fill="#fff"/></mask><g mask="url(#aC)"><path fill-rule="evenodd" clip-rule="evenodd" d="M259.565 662.703l-3.129 5.411 7.659 4.416 3.129-5.412-7.659-4.415z" fill="#AAB8CC"/></g><mask id="aD" maskUnits="userSpaceOnUse" x="257" y="665" width="7" height="11"><path fill-rule="evenodd" clip-rule="evenodd" d="M263.363 665.638l-5.051 2.929c-.302.175-.546.599-.546.948v5.836c0 .349.244.49.546.315l5.051-2.929c.302-.175.546-.599.546-.948v-5.837c0-.246-.123-.389-.301-.389a.495.495 0 00-.245.075z" fill="#fff"/></mask><g mask="url(#aD)"><path fill-rule="evenodd" clip-rule="evenodd" d="M256.436 668.114l-3.129 5.412 7.659 4.415 3.129-5.411-7.659-4.416z" fill="#fff"/></g><mask id="aE" maskUnits="userSpaceOnUse" x="222" y="665" width="7" height="11"><path fill-rule="evenodd" clip-rule="evenodd" d="M223.091 665.843l5.051 2.929c.302.175.546.599.546.948v5.837c0 .348-.244.489-.546.314l-5.051-2.929c-.301-.175-.546-.599-.546-.948v-5.836c0-.247.123-.39.302-.39.073 0 .156.024.244.075z" fill="#fff"/></mask><g mask="url(#aE)"><path fill-rule="evenodd" clip-rule="evenodd" d="M226.89 662.908l3.129 5.411-7.659 4.416-3.129-5.412 7.659-4.415z" fill="#AAB8CC"/></g><mask id="aF" maskUnits="userSpaceOnUse" x="222" y="665" width="7" height="11"><path fill-rule="evenodd" clip-rule="evenodd" d="M223.091 665.843l5.051 2.929c.302.175.546.599.546.948v5.837c0 .348-.244.489-.546.314l-5.051-2.929c-.301-.175-.546-.599-.546-.948v-5.836c0-.247.123-.39.302-.39.073 0 .156.024.244.075z" fill="#fff"/></mask><g mask="url(#aF)"><path fill-rule="evenodd" clip-rule="evenodd" d="M230.019 668.32l3.129 5.411-7.66 4.416-3.128-5.412 7.659-4.415z" fill="#fff"/></g><path d="M315.969 420.269l111.743 63.966" stroke="url(#paint12_linear)" stroke-width="4.8" stroke-linecap="round" stroke-linejoin="round"/><mask id="aG" maskUnits="userSpaceOnUse" x="412" y="472" width="65" height="61"><path fill-rule="evenodd" clip-rule="evenodd" d="M412.502 472.725h64.396v60.023h-64.396v-60.023z" fill="#fff"/></mask><g mask="url(#aG)"><path fill-rule="evenodd" clip-rule="evenodd" d="M476.898 478.584l-4.586 3.615-24.582-8.751c-1.666-.961-4.37-.965-6.038-.009l-24.739 8.76-4.451-3.615v35.655h.004c.02.613.433 1.222 1.246 1.691l27.917 16.095c1.667.961 4.371.965 6.039.009l27.938-16.014c.855-.49 1.269-1.137 1.248-1.781h.004v-35.655z" fill="#090A98"/></g><mask id="aH" maskUnits="userSpaceOnUse" x="412" y="460" width="65" height="38"><path fill-rule="evenodd" clip-rule="evenodd" d="M412.502 460.075h64.396v37.018h-64.396v-37.018z" fill="#fff"/></mask><g mask="url(#aH)"><path fill-rule="evenodd" clip-rule="evenodd" d="M475.646 480.365l-27.938 16.014c-1.668.956-4.372.952-6.039-.009l-27.917-16.095c-1.667-.961-1.666-2.515.002-3.471l27.938-16.014c1.668-.956 4.371-.952 6.038.009l27.918 16.095c1.667.961 1.666 2.515-.002 3.471z" fill="#fff"/></g><mask id="aI" maskUnits="userSpaceOnUse" x="459" y="500" width="7" height="12"><path fill-rule="evenodd" clip-rule="evenodd" d="M464.746 500.911l-5.051 2.929c-.302.175-.546.599-.546.948v5.837c0 .348.244.489.546.314l5.051-2.929c.302-.175.546-.599.546-.948v-5.836c0-.247-.123-.39-.301-.39a.495.495 0 00-.245.075z" fill="#fff"/></mask><g mask="url(#aI)"><path fill-rule="evenodd" clip-rule="evenodd" d="M460.948 497.976l-3.129 5.411 7.659 4.416 3.129-5.412-7.659-4.415z" fill="#AAB8CC"/></g><mask id="aJ" maskUnits="userSpaceOnUse" x="459" y="500" width="7" height="12"><path fill-rule="evenodd" clip-rule="evenodd" d="M464.746 500.911l-5.051 2.929c-.302.175-.546.599-.546.948v5.837c0 .348.244.489.546.314l5.051-2.929c.302-.175.546-.599.546-.948v-5.836c0-.247-.123-.39-.301-.39a.495.495 0 00-.245.075z" fill="#fff"/></mask><g mask="url(#aJ)"><path fill-rule="evenodd" clip-rule="evenodd" d="M457.819 503.387l-3.129 5.412 7.659 4.415 3.129-5.411-7.659-4.416z" fill="#fff"/></g><mask id="aK" maskUnits="userSpaceOnUse" x="423" y="501" width="8" height="11"><path fill-rule="evenodd" clip-rule="evenodd" d="M424.474 501.117l5.051 2.929c.302.174.546.599.546.947v5.837c0 .348-.244.489-.546.314l-5.051-2.929c-.301-.175-.546-.599-.546-.947v-5.837c0-.247.123-.389.302-.389.073 0 .156.024.244.075z" fill="#fff"/></mask><g mask="url(#aK)"><path fill-rule="evenodd" clip-rule="evenodd" d="M428.273 498.181l3.129 5.412-7.659 4.415-3.129-5.411 7.659-4.416z" fill="#AAB8CC"/></g><mask id="aL" maskUnits="userSpaceOnUse" x="423" y="501" width="8" height="11"><path fill-rule="evenodd" clip-rule="evenodd" d="M424.474 501.117l5.051 2.929c.302.174.546.599.546.947v5.837c0 .348-.244.489-.546.314l-5.051-2.929c-.301-.175-.546-.599-.546-.947v-5.837c0-.247.123-.389.302-.389.073 0 .156.024.244.075z" fill="#fff"/></mask><g mask="url(#aL)"><path fill-rule="evenodd" clip-rule="evenodd" d="M431.402 503.593l3.128 5.411-7.659 4.416-3.128-5.412 7.659-4.415z" fill="#fff"/></g><mask id="aM" maskUnits="userSpaceOnUse" x="321" y="216" width="66" height="61"><path fill-rule="evenodd" clip-rule="evenodd" d="M321.904 216.572H386.3v60.023h-64.396v-60.023z" fill="#fff"/></mask><g mask="url(#aM)"><path fill-rule="evenodd" clip-rule="evenodd" d="M386.3 222.432l-4.586 3.614-24.581-8.75c-1.667-.961-4.371-.965-6.039-.009l-24.739 8.759-4.451-3.614v35.655h.004c.02.612.433 1.222 1.246 1.69l27.918 16.095c1.667.961 4.37.965 6.038.009l27.938-16.014c.855-.49 1.269-1.137 1.248-1.78h.004v-35.655z" fill="#090A98"/></g><mask id="aN" maskUnits="userSpaceOnUse" x="321" y="203" width="66" height="38"><path fill-rule="evenodd" clip-rule="evenodd" d="M321.904 203.923H386.3v37.018h-64.396v-37.018z" fill="#fff"/></mask><g mask="url(#aN)"><path fill-rule="evenodd" clip-rule="evenodd" d="M385.048 224.212l-27.938 16.014c-1.668.956-4.372.952-6.038-.009l-27.918-16.095c-1.667-.961-1.666-2.515.002-3.471l27.938-16.014c1.668-.956 4.372-.952 6.039.009l27.917 16.095c1.667.961 1.666 2.515-.002 3.471z" fill="#fff"/></g><mask id="aO" maskUnits="userSpaceOnUse" x="368" y="244" width="7" height="11"><path fill-rule="evenodd" clip-rule="evenodd" d="M374.148 244.759l-5.051 2.929c-.301.175-.546.599-.546.947v5.837c0 .348.245.489.546.314l5.051-2.929c.302-.175.546-.599.546-.947v-5.837c0-.247-.122-.389-.301-.389a.495.495 0 00-.245.075z" fill="#fff"/></mask><g mask="url(#aO)"><path fill-rule="evenodd" clip-rule="evenodd" d="M370.35 241.823l-3.129 5.412 7.659 4.415 3.129-5.411-7.659-4.416z" fill="#AAB8CC"/></g><mask id="aP" maskUnits="userSpaceOnUse" x="368" y="244" width="7" height="11"><path fill-rule="evenodd" clip-rule="evenodd" d="M374.148 244.759l-5.051 2.929c-.301.175-.546.599-.546.947v5.837c0 .348.245.489.546.314l5.051-2.929c.302-.175.546-.599.546-.947v-5.837c0-.247-.122-.389-.301-.389a.495.495 0 00-.245.075z" fill="#fff"/></mask><g mask="url(#aP)"><path fill-rule="evenodd" clip-rule="evenodd" d="M367.221 247.235l-3.129 5.411 7.659 4.416 3.129-5.412-7.659-4.415z" fill="#fff"/></g><mask id="aQ" maskUnits="userSpaceOnUse" x="333" y="244" width="7" height="12"><path fill-rule="evenodd" clip-rule="evenodd" d="M333.877 244.964l5.051 2.929c.301.175.546.599.546.948v5.836c0 .349-.245.489-.546.315l-5.051-2.929c-.302-.175-.547-.599-.547-.948v-5.837c0-.246.123-.389.302-.389.074 0 .157.024.245.075z" fill="#fff"/></mask><g mask="url(#aQ)"><path fill-rule="evenodd" clip-rule="evenodd" d="M337.675 242.029l3.129 5.411-7.659 4.416-3.129-5.412 7.659-4.415z" fill="#AAB8CC"/></g><mask id="aR" maskUnits="userSpaceOnUse" x="333" y="244" width="7" height="12"><path fill-rule="evenodd" clip-rule="evenodd" d="M333.877 244.964l5.051 2.929c.301.175.546.599.546.948v5.836c0 .349-.245.489-.546.315l-5.051-2.929c-.302-.175-.547-.599-.547-.948v-5.837c0-.246.123-.389.302-.389.074 0 .157.024.245.075z" fill="#fff"/></mask><g mask="url(#aR)"><path fill-rule="evenodd" clip-rule="evenodd" d="M340.804 247.44l3.129 5.412-7.659 4.415-3.129-5.411 7.659-4.416z" fill="#fff"/></g><path d="M370.043 248.75l111.743 63.966" stroke="url(#paint13_linear)" stroke-width="4.8" stroke-linecap="round" stroke-linejoin="round"/><mask id="aS" maskUnits="userSpaceOnUse" x="466" y="301" width="65" height="61"><path fill-rule="evenodd" clip-rule="evenodd" d="M466.576 301.207h64.395v60.023h-64.395v-60.023z" fill="#fff"/></mask><g mask="url(#aS)"><path fill-rule="evenodd" clip-rule="evenodd" d="M530.971 307.066l-4.586 3.614-24.581-8.75c-1.667-.961-4.37-.965-6.038-.009l-24.74 8.759-4.45-3.614v35.655h.004c.02.613.433 1.222 1.245 1.69l27.918 16.095c1.667.961 4.37.965 6.039.009l27.938-16.013c.854-.49 1.268-1.137 1.247-1.781h.004v-35.655z" fill="#090A98"/></g><mask id="aT" maskUnits="userSpaceOnUse" x="466" y="288" width="65" height="38"><path fill-rule="evenodd" clip-rule="evenodd" d="M466.576 288.557h64.395v37.018h-64.395v-37.018z" fill="#fff"/></mask><g mask="url(#aT)"><path fill-rule="evenodd" clip-rule="evenodd" d="M529.72 308.847l-27.939 16.013c-1.667.956-4.371.952-6.038-.008l-27.918-16.096c-1.667-.96-1.666-2.515.002-3.471l27.939-16.013c1.668-.956 4.371-.953 6.038.008l27.918 16.095c1.667.961 1.666 2.516-.002 3.472z" fill="#fff"/></g><mask id="aU" maskUnits="userSpaceOnUse" x="513" y="329" width="7" height="11"><path fill-rule="evenodd" clip-rule="evenodd" d="M518.82 329.393l-5.051 2.929c-.302.175-.546.599-.546.948v5.836c0 .349.244.489.546.315l5.051-2.929c.301-.175.546-.599.546-.948v-5.837c0-.247-.123-.389-.302-.389a.495.495 0 00-.244.075z" fill="#fff"/></mask><g mask="url(#aU)"><path fill-rule="evenodd" clip-rule="evenodd" d="M515.021 326.458l-3.129 5.411 7.659 4.415 3.129-5.411-7.659-4.415z" fill="#AAB8CC"/></g><mask id="aV" maskUnits="userSpaceOnUse" x="513" y="329" width="7" height="11"><path fill-rule="evenodd" clip-rule="evenodd" d="M518.82 329.393l-5.051 2.929c-.302.175-.546.599-.546.948v5.836c0 .349.244.489.546.315l5.051-2.929c.301-.175.546-.599.546-.948v-5.837c0-.247-.123-.389-.302-.389a.495.495 0 00-.244.075z" fill="#fff"/></mask><g mask="url(#aV)"><path fill-rule="evenodd" clip-rule="evenodd" d="M511.892 331.869l-3.128 5.412 7.659 4.415 3.128-5.411-7.659-4.416z" fill="#fff"/></g><mask id="aW" maskUnits="userSpaceOnUse" x="478" y="329" width="7" height="11"><path fill-rule="evenodd" clip-rule="evenodd" d="M478.548 329.598l5.051 2.929c.302.175.546.599.546.948v5.837c0 .348-.244.489-.546.314l-5.051-2.929c-.302-.175-.546-.599-.546-.948v-5.836c0-.247.123-.39.301-.39.074 0 .157.024.245.075z" fill="#fff"/></mask><g mask="url(#aW)"><path fill-rule="evenodd" clip-rule="evenodd" d="M482.346 326.663l3.129 5.411-7.659 4.416-3.129-5.412 7.659-4.415z" fill="#AAB8CC"/></g><mask id="aX" maskUnits="userSpaceOnUse" x="478" y="329" width="7" height="11"><path fill-rule="evenodd" clip-rule="evenodd" d="M478.548 329.598l5.051 2.929c.302.175.546.599.546.948v5.837c0 .348-.244.489-.546.314l-5.051-2.929c-.302-.175-.546-.599-.546-.948v-5.836c0-.247.123-.39.301-.39.074 0 .157.024.245.075z" fill="#fff"/></mask><g mask="url(#aX)"><path fill-rule="evenodd" clip-rule="evenodd" d="M485.475 332.074l3.129 5.412-7.659 4.415-3.129-5.411 7.659-4.416z" fill="#fff"/></g></g><mask id="aY" maskUnits="userSpaceOnUse" x="470" y="231" width="61" height="72"><path fill-rule="evenodd" clip-rule="evenodd" d="M497.199 232.131l-26.028 14.896c-1.035.592-1.376 1.427-1.032 2.18l-.002.001.011.022c.017.036.037.072.057.108l27.015 51.429c.024-.002.825 1.982 2.826 1.982 1.273 0 2.145-.99 2.549-1.574l-.023.067.076-.145c.133-.2.202-.336.202-.338l1.253-2.436 25.77-49.115h-.001c.411-.777.08-1.653-.995-2.265l-26.048-14.82c-.775-.441-1.789-.662-2.805-.662-1.022.001-2.045.224-2.825.67z" fill="#fff"/></mask><g mask="url(#aY)" fill-rule="evenodd" clip-rule="evenodd"><path d="M500.026 306.035h41.033v-82.417h-41.033v82.417z" fill="#2331C5"/><path d="M458.993 306.035h41.033v-82.417h-41.033v82.417z" fill="#18229E"/></g><path fill-rule="evenodd" clip-rule="evenodd" d="M471.174 250.24l26.048 14.82c1.555.885 4.075.882 5.63-.008l26.028-14.896c1.554-.889 1.553-2.328-.002-3.212l-26.047-14.821c-1.556-.885-4.076-.881-5.63.008l-26.029 14.896c-1.554.89-1.553 2.328.002 3.213z" fill="#2395E0"/><path fill-rule="evenodd" clip-rule="evenodd" d="M530.045 237.1h-4.276l-22.917-13.116c-1.554-.889-4.075-.893-5.63-.008L474.156 237.1h-4.149v3.344h.004c.018.567.404 1.131 1.161 1.565l26.029 14.896c1.554.889 4.074.893 5.63.008l26.047-14.821c.797-.453 1.183-1.052 1.163-1.648h.004V237.1z" fill="#E6E6E6"/><path fill-rule="evenodd" clip-rule="evenodd" d="M528.878 238.748l-26.047 14.82c-1.556.885-4.076.882-5.63-.008l-26.029-14.896c-1.554-.889-1.553-2.327.002-3.212l26.048-14.821c1.555-.885 4.076-.881 5.63.008l26.028 14.896c1.554.89 1.553 2.328-.002 3.213z" fill="#464FFF"/><g filter="url(#filter2_f)"><path fill-rule="evenodd" clip-rule="evenodd" d="M528.878 237.349l-26.047 14.821c-1.556.885-4.076.881-5.63-.008l-26.029-14.896c-1.554-.89-1.553-2.328.002-3.213l26.048-14.82c1.555-.885 4.076-.882 5.63.008l26.028 14.896c1.554.889 1.553 2.327-.002 3.212z" fill="#1628A3"/></g><path fill-rule="evenodd" clip-rule="evenodd" d="M530.045 224.648h-4.276l-22.917-13.116c-1.554-.889-4.075-.893-5.63-.008l-23.066 13.124h-4.149v3.344h.004c.018.567.404 1.131 1.161 1.565l26.029 14.896c1.554.889 4.074.893 5.63.008l26.047-14.82c.797-.454 1.183-1.053 1.163-1.649h.004v-3.344z" fill="#E6E6E6"/><path fill-rule="evenodd" clip-rule="evenodd" d="M528.878 226.296l-26.047 14.82c-1.556.885-4.076.881-5.63-.008l-26.029-14.896c-1.554-.889-1.553-2.327.002-3.212l26.048-14.821c1.555-.885 4.076-.881 5.63.008l26.028 14.896c1.554.889 1.553 2.328-.002 3.213z" fill="#3FD3B8"/><g filter="url(#filter3_f)"><path fill-rule="evenodd" clip-rule="evenodd" d="M528.878 225.596l-26.047 14.821c-1.556.885-4.076.881-5.63-.008l-26.029-14.896c-1.554-.889-1.553-2.328.002-3.213l26.048-14.82c1.555-.885 4.076-.882 5.63.008l26.028 14.896c1.554.889 1.553 2.328-.002 3.212z" fill="#278DDF"/></g><mask id="aZ" maskUnits="userSpaceOnUse" x="470" y="163" width="61" height="72"><path fill-rule="evenodd" clip-rule="evenodd" d="M497.22 165.236l-27.015 51.429c-.02.036-.04.072-.057.109l-.011.021.002.001c-.344.753-.003 1.588 1.032 2.18l26.028 14.896c1.554.889 4.075.893 5.63.008l26.048-14.82c1.075-.612 1.406-1.488.995-2.265h.001l-25.77-49.115-1.253-2.436c0-.002-.069-.138-.202-.338l-.076-.145.023.067c-.404-.584-1.276-1.574-2.549-1.574-2.001 0-2.802 1.984-2.826 1.982z" fill="#fff"/></mask><g mask="url(#aZ)" fill-rule="evenodd" clip-rule="evenodd"><path d="M500.026 242.385h41.033v-82.417h-41.033v82.417z" fill="#2331C5"/><path d="M458.993 242.385h41.033v-82.417h-41.033v82.417z" fill="#18229D"/></g><defs><linearGradient id="paint0_linear" x1="261.304" y1="64.205" x2="271.462" y2="338.813" gradientUnits="userSpaceOnUse"><stop stop-color="#19FFF3"/><stop offset="1" stop-color="#00A4FF"/><stop offset="1" stop-color="#00A4FF"/></linearGradient><linearGradient id="paint1_linear" x1="212.763" y1="102.578" x2="249.227" y2="110.067" gradientUnits="userSpaceOnUse"><stop stop-color="#19FFF3"/><stop offset="1" stop-color="#00A4FF"/><stop offset="1" stop-color="#00A4FF"/></linearGradient><linearGradient id="paint2_linear" x1="-15.258" y1="152.278" x2="-13.684" y2="170.831" gradientUnits="userSpaceOnUse"><stop stop-color="#19FFF3"/><stop offset="1" stop-color="#00A4FF"/><stop offset="1" stop-color="#00A4FF"/></linearGradient><linearGradient id="paint3_linear" x1="177.809" y1="208.262" x2="240.059" y2="291.405" gradientUnits="userSpaceOnUse"><stop stop-color="#19FFF3"/><stop offset="1" stop-color="#00A4FF"/><stop offset="1" stop-color="#00A4FF"/></linearGradient><linearGradient id="paint4_linear" x1="599.048" y1="470.767" x2="671.057" y2="564.844" gradientUnits="userSpaceOnUse"><stop stop-color="#19FFF3"/><stop offset="1" stop-color="#00A4FF"/><stop offset="1" stop-color="#00A4FF"/></linearGradient><linearGradient id="paint5_linear" x1="463.383" y1="471.51" x2="523.536" y2="552.639" gradientUnits="userSpaceOnUse"><stop stop-color="#19FFF3"/><stop offset="1" stop-color="#00A4FF"/><stop offset="1" stop-color="#00A4FF"/></linearGradient><linearGradient id="paint6_linear" x1="552.564" y1="574.354" x2="617.363" y2="601.742" gradientUnits="userSpaceOnUse"><stop stop-color="#19FFF3"/><stop offset="1" stop-color="#00A4FF"/><stop offset="1" stop-color="#00A4FF"/></linearGradient><linearGradient id="paint7_linear" x1="550.871" y1="213.596" x2="706.061" y2="340.968" gradientUnits="userSpaceOnUse"><stop stop-color="#19FFF3"/><stop offset="1" stop-color="#00A4FF"/><stop offset="1" stop-color="#00A4FF"/></linearGradient><linearGradient id="paint8_linear" x1="472.259" y1="338.696" x2="532.517" y2="417.806" gradientUnits="userSpaceOnUse"><stop stop-color="#19FFF3"/><stop offset="1" stop-color="#00A4FF"/><stop offset="1" stop-color="#00A4FF"/></linearGradient><linearGradient id="paint9_linear" x1="238.419" y1="390.401" x2="240.562" y2="413.643" gradientUnits="userSpaceOnUse"><stop stop-color="#19FFF3"/><stop offset="1" stop-color="#00A4FF"/><stop offset="1" stop-color="#00A4FF"/></linearGradient><linearGradient id="paint10_linear" x1="43.807" y1="389.828" x2="46.539" y2="415.993" gradientUnits="userSpaceOnUse"><stop stop-color="#19FFF3"/><stop offset="1" stop-color="#00A4FF"/><stop offset="1" stop-color="#00A4FF"/></linearGradient><linearGradient id="paint11_linear" x1="242.126" y1="556.599" x2="282.852" y2="560.456" gradientUnits="userSpaceOnUse"><stop stop-color="#19FFF3"/><stop offset="1" stop-color="#00A4FF"/><stop offset="1" stop-color="#00A4FF"/></linearGradient><linearGradient id="paint12_linear" x1="265.552" y1="459.322" x2="326.034" y2="540.55" gradientUnits="userSpaceOnUse"><stop stop-color="#19FFF3"/><stop offset="1" stop-color="#00A4FF"/><stop offset="1" stop-color="#00A4FF"/></linearGradient><linearGradient id="paint13_linear" x1="319.626" y1="287.804" x2="380.108" y2="369.032" gradientUnits="userSpaceOnUse"><stop stop-color="#19FFF3"/><stop offset="1" stop-color="#00A4FF"/><stop offset="1" stop-color="#00A4FF"/></linearGradient><filter id="filter0_f" x="433.042" y="348.098" width="129.634" height="102.1" filterUnits="userSpaceOnUse" color-interpolation-filters="sRGB"><feFlood flood-opacity="0" result="BackgroundImageFix"/><feBlend in="SourceGraphic" in2="BackgroundImageFix" result="shape"/><feGaussianBlur stdDeviation="16.31" result="effect1_foregroundBlur"/></filter><filter id="filter1_f" x="433.042" y="297.962" width="129.234" height="102.026" filterUnits="userSpaceOnUse" color-interpolation-filters="sRGB"><feFlood flood-opacity="0" result="BackgroundImageFix"/><feBlend in="SourceGraphic" in2="BackgroundImageFix" result="shape"/><feGaussianBlur stdDeviation="16.31" result="effect1_foregroundBlur"/></filter><filter id="filter2_f" x="404.769" y="153.333" width="190.515" height="164.737" filterUnits="userSpaceOnUse" color-interpolation-filters="sRGB"><feFlood flood-opacity="0" result="BackgroundImageFix"/><feBlend in="SourceGraphic" in2="BackgroundImageFix" result="shape"/><feGaussianBlur stdDeviation="32.619" result="effect1_foregroundBlur"/></filter><filter id="filter3_f" x="404.769" y="141.58" width="190.515" height="164.738" filterUnits="userSpaceOnUse" color-interpolation-filters="sRGB"><feFlood flood-opacity="0" result="BackgroundImageFix"/><feBlend in="SourceGraphic" in2="BackgroundImageFix" result="shape"/><feGaussianBlur stdDeviation="32.619" result="effect1_foregroundBlur"/></filter></defs></svg>