<svg width="101" height="100" fill="none" xmlns="http://www.w3.org/2000/svg"><path fill-rule="evenodd" clip-rule="evenodd" d="M12.06 25.006H3.124A3.128 3.128 0 010 21.881V3.131A3.128 3.128 0 013.125.006H31.25a3.128 3.128 0 013.125 3.125v18.75a3.13 3.13 0 01-3.125 3.125h-8.934l.779 3.116h.343A1.56 1.56 0 0125 29.685a1.56 1.56 0 01-1.563 1.562h-12.5a1.561 1.561 0 01-1.562-1.563 1.56 1.56 0 011.563-1.562h.342l.78-3.116zm7.035 0l.78 3.116H14.5l.779-3.116h3.815zm12.15-3.125H20.503a1.536 1.536 0 00-.37 0h-5.892a1.541 1.541 0 00-.37 0H3.125V3.131H31.25l-.005 18.75zm48.88 74.988l.78-3.116h3.815l.78 3.116h-5.374zm-3.22 0h-.343A1.56 1.56 0 0075 98.431c0 .864.698 1.563 1.563 1.563h12.499c.865 0 1.563-.699 1.563-1.563s-.698-1.562-1.563-1.562h-.343l-.778-3.116h8.934A3.13 3.13 0 00100 90.628v-18.75a3.128 3.128 0 00-3.125-3.125H68.75a3.128 3.128 0 00-3.125 3.125v18.75a3.128 3.128 0 003.125 3.125h8.934l-.778 3.116zm2.957-6.24h5.9a1.54 1.54 0 01.361 0h10.746l.006-18.75H68.75v18.75h10.751c.118-.015.24-.015.361 0zm-3.3-10.938H75a1.561 1.561 0 01-1.563-1.563c0-.864.699-1.562 1.563-1.562h1.563a1.56 1.56 0 011.562 1.562c0 .864-.698 1.563-1.563 1.563zm4.688 0h9.375a1.562 1.562 0 100-3.125H81.25a1.561 1.561 0 100 3.125zm-1.563 6.25H75a1.561 1.561 0 01-1.563-1.563c0-.864.699-1.562 1.563-1.562h4.688a1.56 1.56 0 011.562 1.562c0 .864-.698 1.563-1.563 1.563zm4.688 0h6.25a1.562 1.562 0 100-3.125h-6.25a1.561 1.561 0 100 3.125zm-75-74.997h9.375c.285 0 .552-.076.781-.209.23.133.497.209.782.209H25a1.562 1.562 0 100-3.124h-4.688c-.284 0-.551.076-.78.208a1.557 1.557 0 00-.782-.208H9.375a1.561 1.561 0 100 3.125zm10.156 6.041c-.23.133-.496.209-.781.209H9.375a1.561 1.561 0 01-1.563-1.563c0-.864.699-1.562 1.563-1.562h9.375c.285 0 .552.076.781.208.23-.132.497-.208.782-.208H25a1.561 1.561 0 110 3.125h-4.688a1.55 1.55 0 01-.78-.209zM15.28 93.753l-.78 3.116h5.374l-.779-3.116H15.28zm-4.342 3.116h.342l.78-3.116H3.124A3.128 3.128 0 010 90.628v-18.75a3.128 3.128 0 013.125-3.125H31.25a3.128 3.128 0 013.125 3.125v18.75a3.13 3.13 0 01-3.125 3.125h-8.934l.779 3.116h.343A1.56 1.56 0 0125 98.431c0 .864-.698 1.563-1.563 1.563h-12.5a1.561 1.561 0 01-1.562-1.563 1.56 1.56 0 011.563-1.562zm9.198-6.24h-5.898a1.536 1.536 0 00-.36 0H3.125v-18.75H31.25l-.006 18.75H20.497a1.533 1.533 0 00-.361 0zm-12.323-12.5a1.56 1.56 0 001.562 1.562H12.5a1.562 1.562 0 100-3.125H9.375c-.864 0-1.563.698-1.563 1.562zM25 79.69h-7.813a1.561 1.561 0 01-1.562-1.563 1.56 1.56 0 011.563-1.562H25a1.561 1.561 0 110 3.125zM9.375 85.94h7.813c.864 0 1.562-.699 1.562-1.563s-.698-1.562-1.563-1.562H9.375a1.561 1.561 0 100 3.125zm17.188-1.563c0 .864-.699 1.563-1.563 1.563h-3.125a1.561 1.561 0 01-1.563-1.563c0-.864.699-1.562 1.563-1.562H25c.864 0 1.563.698 1.563 1.562zm12.5-1.569h21.874a1.56 1.56 0 001.563-1.562c0-.864-.698-1.563-1.563-1.563H39.064c-.865 0-1.563.699-1.563 1.563s.698 1.563 1.563 1.563zm0-68.75h21.874a1.56 1.56 0 001.563-1.562c0-.864-.698-1.563-1.563-1.563H39.064c-.865 0-1.563.699-1.563 1.563s.698 1.563 1.563 1.563zm42.187 50a1.56 1.56 0 001.563 1.563 1.56 1.56 0 001.562-1.563V35.945a1.561 1.561 0 10-3.125 0V64.06zm-65.625 0a1.56 1.56 0 001.563 1.563 1.56 1.56 0 001.562-1.563V35.945a1.561 1.561 0 10-3.125 0V64.06z" fill="#242650"/><path fill-rule="evenodd" clip-rule="evenodd" d="M80.5 28.116L81.28 25h3.815l.78 3.116H80.5zm-3.22 0h-.343a1.56 1.56 0 00-1.562 1.562c0 .864.698 1.563 1.563 1.563h12.499c.865 0 1.563-.699 1.563-1.563s-.698-1.562-1.563-1.562h-.343L88.316 25h8.934a3.13 3.13 0 003.125-3.125V3.125A3.128 3.128 0 0097.25 0H69.125A3.128 3.128 0 0066 3.125v18.75A3.128 3.128 0 0069.125 25h8.934l-.778 3.116zm2.957-6.241h5.9a1.54 1.54 0 01.361 0h10.746l.006-18.75H69.125v18.75h10.751c.118-.014.24-.014.361 0zm-3.3-10.938h-1.562a1.561 1.561 0 01-1.563-1.562c0-.864.699-1.563 1.563-1.563h1.563c.864 0 1.562.699 1.562 1.563s-.698 1.563-1.563 1.563zm4.688 0H91a1.561 1.561 0 100-3.125h-9.375a1.562 1.562 0 100 3.126zm-1.563 6.25h-4.687a1.561 1.561 0 01-1.563-1.562c0-.864.699-1.563 1.563-1.563h4.688c.864 0 1.562.699 1.562 1.563s-.698 1.563-1.563 1.563zm4.688 0H91a1.561 1.561 0 100-3.125h-6.25a1.562 1.562 0 100 3.126z" fill="#000"/><path fill-rule="evenodd" clip-rule="evenodd" d="M38.875 62.441h24c.332 0 .6-.265.6-.594V32.123a.59.59 0 00-.19-.404l-3.572-3.528a.6.6 0 00-.438-.188h-20.4c-.331 0-.6.266-.6.594v33.25c0 .329.269.594.6.594zm19.8-33.25h-19.2v32.063h22.8V32.746h-3a.596.596 0 01-.599-.63.644.644 0 01-.001-.037v-2.888zm1.2.838v1.53h1.55l-1.55-1.53z" fill="#242650"/><path d="M61.079 64.219a.596.596 0 01-.6-.593l-.004-1.777c0-.329.267-.595.599-.595h.001c.331 0 .6.264.6.592l.004 1.778a.596.596 0 01-.6.595z" fill="#242650"/><path d="M61.079 64.219H37.075a.597.597 0 01-.6-.594c0-.328.269-.594.6-.594h24.004c.331 0 .6.266.6.594a.596.596 0 01-.6.594zM38.875 30.972h-.001l-1.797-.003a.597.597 0 01-.598-.595c0-.328.269-.593.6-.593l1.797.004c.331 0 .6.266.599.595 0 .328-.27.592-.6.592z" fill="#242650"/><path d="M37.079 64.219a.597.597 0 01-.6-.594v-33.25c0-.328.268-.594.6-.594.33 0 .6.266.6.594v33.25a.597.597 0 01-.6.594zm22.2 1.777a.596.596 0 01-.6-.592l-.004-1.778c0-.328.267-.594.599-.595h.001c.331 0 .6.265.6.593l.004 1.777a.596.596 0 01-.6.595z" fill="#242650"/><path d="M59.279 65.996H35.275a.597.597 0 01-.6-.593c0-.329.269-.594.6-.594h24.004c.331 0 .6.265.6.594a.596.596 0 01-.6.593zM37.075 32.75h-.001l-1.797-.004a.597.597 0 01-.598-.595c0-.327.269-.592.6-.592l1.797.003c.331.001.6.267.599.595 0 .328-.27.593-.6.593z" fill="#242650"/><path d="M35.279 65.996a.597.597 0 01-.6-.593v-33.25c0-.329.268-.594.6-.594.33 0 .6.265.6.594v33.25a.597.597 0 01-.6.593z" fill="#242650"/><path fill-rule="evenodd" clip-rule="evenodd" d="M44.275 37.395a1.786 1.786 0 001.2-1.68v-1.781c0-.982-.808-1.781-1.8-1.781s-1.8.799-1.8 1.781v1.781c0 .774.502 1.435 1.2 1.68v1.984c-.698.246-1.2.906-1.2 1.68v1.781c0 .774.502 1.435 1.2 1.68v1.984c-.698.246-1.2.906-1.2 1.68v1.781c0 .774.502 1.435 1.2 1.68v1.984c-.698.246-1.2.906-1.2 1.68v1.781c0 .982.808 1.781 1.8 1.781s1.8-.799 1.8-1.78v-1.782c0-.774-.502-1.434-1.2-1.68v-1.984a1.786 1.786 0 001.2-1.68v-1.781c0-.774-.502-1.434-1.2-1.68V44.52a1.786 1.786 0 001.2-1.68v-1.78c0-.774-.502-1.434-1.2-1.68v-1.984zm-.08 12.867a.586.586 0 00.08-.297v-1.781c0-.108-.03-.21-.08-.297a.6.6 0 01-.52.297.6.6 0 01-.52-.297.586.586 0 00-.08.297v1.781c0 .108.03.21.08.297a.601.601 0 01.52-.297c.222 0 .416.12.52.297zm-1.04 4.75a.6.6 0 00.52.297.6.6 0 00.52-.297.6.6 0 01.08.297v1.781c0 .328-.27.594-.6.594-.33 0-.6-.266-.6-.594v-1.78c0-.108.03-.21.08-.297zm1.04-11.875a.586.586 0 00.08-.297v-1.78c0-.108-.03-.21-.08-.297a.6.6 0 01-.52.297.6.6 0 01-.52-.297.586.586 0 00-.08.297v1.781c0 .108.03.21.08.297a.601.601 0 01.52-.297c.222 0 .416.12.52.297zm0-7.125a.586.586 0 00.08-.297v-1.781a.598.598 0 00-.6-.594c-.33 0-.6.266-.6.594v1.781c0 .108.03.21.08.297a.601.601 0 01.52-.297c.222 0 .416.12.52.297zm15.08 3.266h-10.8a.597.597 0 01-.6-.594c0-.328.269-.594.6-.594h10.8c.332 0 .6.266.6.594a.596.596 0 01-.6.594zm0 3.562h-10.8a.597.597 0 01-.6-.594c0-.328.269-.593.6-.593h10.8c.332 0 .6.265.6.593a.596.596 0 01-.6.594zm-10.8 3.563h10.8c.332 0 .6-.266.6-.594a.596.596 0 00-.6-.594h-10.8c-.331 0-.6.266-.6.594 0 .328.269.594.6.594zm10.8 3.562h-10.8a.597.597 0 01-.6-.594c0-.328.269-.593.6-.593h10.8c.332 0 .6.265.6.593a.596.596 0 01-.6.594zm-10.8 3.563h10.8c.332 0 .6-.266.6-.594a.596.596 0 00-.6-.594h-10.8c-.331 0-.6.266-.6.594 0 .328.269.594.6.594z" fill="#242650"/></svg>