<svg width="102" height="94" fill="none" xmlns="http://www.w3.org/2000/svg"><path fill-rule="evenodd" clip-rule="evenodd" d="M1.594 91.605H17.53c.88 0 1.594-.714 1.594-1.597V51.685h12.6l24.82 4.85.032.008.026.004.019.004a4.77 4.77 0 013.94 4.715 4.792 4.792 0 01-4.78 4.79c-.087 0-.172.007-.254.02a1.609 1.609 0 00-.293-.05l-20.048-1.562a1.604 1.604 0 00-1.713 1.47 1.595 1.595 0 001.464 1.714l20.05 1.562a1.612 1.612 0 00.376-.015c.133.036.273.055.417.055 3.921 0 7.19-2.852 7.848-6.594l29.554-4.507c.154-.023.3-.068.434-.13.132.035.271.053.414.053a4.792 4.792 0 014.781 4.79c0 1.684-.89 3.254-2.33 4.117l-.019.01-43.03 23.21a1.599 1.599 0 00-.65 2.163 1.594 1.594 0 002.158.65l42.964-23.175c.038-.018.076-.038.114-.06A8.013 8.013 0 00102 62.863c0-4.402-3.575-7.984-7.969-7.984-.24 0-.469.053-.674.149a1.58 1.58 0 00-.653-.036L63.542 59.44a7.94 7.94 0 00-6.36-6.032L32.18 48.52a1.592 1.592 0 00-.382-.03H19.125v-1.596c0-.883-.714-1.597-1.594-1.597H1.594c-.88 0-1.594.714-1.594 1.597v43.113c0 .883.714 1.597 1.594 1.597zm14.344-3.194V48.492H3.188v39.92h12.75zM9.61 86.814a1.6 1.6 0 01-1.601-1.596c0-.883.706-1.597 1.585-1.597h.016c.882 0 1.594.714 1.594 1.597s-.712 1.596-1.594 1.596zM36 18.031v6.375c0 6.433 3.483 12.067 8.662 15.118.065.045.135.085.207.12a17.422 17.422 0 008.662 2.294c3.148 0 6.106-.835 8.662-2.294a1.59 1.59 0 00.208-.12c5.179-3.05 8.661-8.686 8.661-15.118v-6.375C71.063 8.365 63.197.5 53.532.5 43.864.5 36 8.365 36 18.031zm31.875 0c0-7.91-6.434-14.343-14.344-14.343-7.91 0-14.343 6.433-14.343 14.343S45.62 32.375 53.53 32.375s14.344-6.434 14.344-14.344zM47.156 37.254c1.47.732 3.081 1.22 4.782 1.408v-3.171a17.398 17.398 0 01-4.782-1.128v2.891zM43.97 32.72A17.672 17.672 0 0140 29.164c.81 2.3 2.19 4.331 3.97 5.926v-2.37zm23.095-3.556a14.39 14.39 0 01-3.97 5.926v-2.37a17.674 17.674 0 003.97-3.556zm-7.158 8.091v-2.891c-1.504.59-3.11.976-4.781 1.128v3.171c1.7-.189 3.312-.676 4.781-1.408zM50.344 26H48.75a1.592 1.592 0 01-1.594-1.594c0-.881.713-1.593 1.594-1.593V11.655a1.592 1.592 0 01-1.594-1.594c0-.88.713-1.593 1.594-1.593h3.187c0-.882.713-1.594 1.594-1.594.882 0 1.594.712 1.594 1.594a4.787 4.787 0 014.781 4.781c0 .962-.285 1.858-.776 2.609a5.58 5.58 0 012.37 4.563A5.585 5.585 0 0155.92 26h-.795c0 .881-.712 1.594-1.594 1.594A1.592 1.592 0 0151.938 26h-1.594zm5.576-3.188h-3.982V18.03l3.094-.001.093.002c.055 0 .11 0 .166-.003h.63a2.397 2.397 0 012.392 2.394 2.395 2.395 0 01-2.393 2.39zm-2.389-11.156h-1.593v3.187l3.282-.002a1.595 1.595 0 00-.095-3.185h-1.594z" fill="#242650"/><path d="M54.19 93.202a1.52 1.52 0 01-.208-.015l-36.656-4.79a1.595 1.595 0 01-1.374-1.788 1.607 1.607 0 011.786-1.377l36.657 4.79c.873.114 1.49.915 1.373 1.789a1.596 1.596 0 01-1.579 1.39zm38.75-35.037c-.764 0-1.436-.55-1.569-1.327a1.593 1.593 0 011.3-1.842 7.787 7.787 0 011.36-.117c.882 0 1.594.714 1.594 1.597s-.712 1.597-1.594 1.597c-.28 0-.554.023-.82.068-.09.016-.182.024-.272.024zM55.781 69.25c-.283 0-.562-.016-.835-.045a1.596 1.596 0 01-1.417-1.756 1.582 1.582 0 011.753-1.42c.165.018.332.027.5.027.88 0 1.593.714 1.593 1.597s-.712 1.597-1.594 1.597z" fill="#242650"/></svg>