<svg width="98" height="82" fill="none" xmlns="http://www.w3.org/2000/svg"><path fill-rule="evenodd" clip-rule="evenodd" d="M61.18 39.385a1.52 1.52 0 01-1.522-1.515c0-.838.67-1.515 1.506-1.515h.016a1.515 1.515 0 110 3.03zm6.06 0a1.52 1.52 0 01-1.522-1.515c0-.838.67-1.515 1.506-1.515h.017a1.515 1.515 0 110 3.03zm4.539-1.515a1.52 1.52 0 001.523 1.515 1.515 1.515 0 100-3.03h-.017c-.837 0-1.506.677-1.506 1.515zM61.18 45.445a1.52 1.52 0 01-1.522-1.515c0-.838.67-1.515 1.506-1.515h.016a1.515 1.515 0 110 3.03zm4.538-1.515a1.52 1.52 0 001.523 1.515 1.515 1.515 0 100-3.03h-.017c-.836 0-1.506.677-1.506 1.515zm7.584 1.515a1.52 1.52 0 01-1.523-1.515c0-.838.67-1.515 1.506-1.515h.017a1.515 1.515 0 110 3.03zm-13.644 4.546a1.52 1.52 0 001.522 1.515 1.515 1.515 0 100-3.03h-.016c-.837 0-1.506.677-1.506 1.515zm7.583 1.515a1.52 1.52 0 01-1.523-1.515c0-.838.67-1.515 1.506-1.515h.017a1.515 1.515 0 110 3.03zm4.538-1.515a1.52 1.52 0 001.523 1.515 1.515 1.515 0 100-3.03h-.017c-.837 0-1.506.677-1.506 1.515z" fill="#242650"/><path fill-rule="evenodd" clip-rule="evenodd" d="M3.532 6.06V4.546c0-.836.679-1.515 1.515-1.515.838 0 1.515-.677 1.515-1.515C6.562.677 5.885 0 5.047 0A4.551 4.551 0 00.502 4.545v3.03c0 .1.009.196.027.289v72.439c0 .838.677 1.515 1.515 1.515h93.94c.837 0 1.515-.677 1.515-1.515V7.576c0-.838-.678-1.515-1.516-1.515H15.698a1.516 1.516 0 00.002-3.03h-.017c-.836 0-1.506.677-1.506 1.514a1.52 1.52 0 001.521 1.516h-4.545a1.516 1.516 0 00.002-3.03h-.017c-.836 0-1.506.677-1.506 1.514a1.52 1.52 0 001.521 1.516H6.608a1.516 1.516 0 00.001-3.03h-.017c-.836 0-1.506.677-1.506 1.514a1.52 1.52 0 001.522 1.516H3.532zm.027 72.728h90.91V9.09H3.558v69.697z" fill="#242650"/><path fill-rule="evenodd" clip-rule="evenodd" d="M92.926 3.03H5.046a1.514 1.514 0 01-1.514-1.515C3.532.677 4.209 0 5.047 0h87.879a4.551 4.551 0 014.545 4.545v3.03c0 .839-.677 1.516-1.515 1.516a1.514 1.514 0 01-1.515-1.515v-3.03c0-.837-.679-1.516-1.515-1.516zm-78.761 40.9c0 10.86 8.837 19.697 19.697 19.697S53.56 54.791 53.56 43.93c0-10.86-8.836-19.697-19.697-19.697-10.86 0-19.697 8.837-19.697 19.697zm3.03 0c0-9.19 7.478-16.666 16.667-16.666 9.19 0 16.667 7.477 16.667 16.666 0 9.19-7.478 16.667-16.667 16.667-9.19 0-16.667-7.477-16.667-16.667z" fill="#242650"/><path fill-rule="evenodd" clip-rule="evenodd" d="M20.226 43.93c0 7.52 6.116 13.637 13.636 13.637S47.498 51.45 47.498 43.93c0-7.52-6.116-13.636-13.636-13.636S20.226 36.41 20.226 43.93zm3.03 0c0-5.847 4.76-10.606 10.606-10.606 5.847 0 10.606 4.76 10.606 10.606 0 5.847-4.759 10.606-10.606 10.606-5.847 0-10.606-4.759-10.606-10.606z" fill="#242650"/><path fill-rule="evenodd" clip-rule="evenodd" d="M8.105 75.748h81.818c.838 0 1.515-.677 1.515-1.515V13.627c0-.838-.677-1.515-1.515-1.515H8.105c-.838 0-1.516.677-1.516 1.515v60.606c0 .838.678 1.515 1.516 1.515zm80.303-3.03H9.62V15.142h78.788v57.576z" fill="#242650"/><path fill-rule="evenodd" clip-rule="evenodd" d="M95.956 25.748h-6.06a1.514 1.514 0 01-1.516-1.515c0-.838.678-1.515 1.515-1.515h6.061c.838 0 1.515.677 1.515 1.515 0 .838-.677 1.515-1.515 1.515zm0 6.061h-6.06a1.514 1.514 0 01-1.516-1.515c0-.838.678-1.515 1.515-1.515h6.061c.838 0 1.515.677 1.515 1.515 0 .838-.677 1.515-1.515 1.515zm-6.06 27.273h6.06c.838 0 1.515-.678 1.515-1.515 0-.838-.677-1.516-1.515-1.516h-6.06a1.515 1.515 0 10-.001 3.031zm6.06 6.06h-6.06a1.514 1.514 0 01-1.516-1.515c0-.838.678-1.515 1.515-1.515h6.061c.838 0 1.515.677 1.515 1.515 0 .838-.677 1.515-1.515 1.515zM83.862 28.803v30.279c0 .838-.677 1.515-1.515 1.515H43.915a1.514 1.514 0 01-1.515-1.515c0-.838.677-1.515 1.515-1.515h36.917V30.315h-36.89a1.514 1.514 0 01-1.515-1.515c0-.838.678-1.515 1.515-1.515h38.405c.838 0 1.515.677 1.515 1.515v.003zM45.6 42.415H22.126A1.514 1.514 0 0120.61 40.9c0-.838.677-1.515 1.515-1.515h23.473a1.514 1.514 0 110 3.03zm-23.473 6.06H45.6a1.514 1.514 0 100-3.03H22.126c-.838 0-1.515.678-1.515 1.516 0 .837.677 1.515 1.515 1.515z" fill="#242650"/></svg>