<svg width="205" height="205" fill="none" xmlns="http://www.w3.org/2000/svg"><path d="M156.707 51.846l-49.863 49.863-3.77-3.77 49.868-49.869.003-7.839-78.554-.182-7.869 7.868 75.336.156-6.484 6.484-75.587.095L54.24 60.2l-.108 75.595-6.484 6.484-.177-75.31-7.842 7.843.18 78.556 7.842-.005 49.865-49.866 3.77 3.771-49.865 49.865-.008 7.839 79.132-.005 7.808-7.807-75.851-.027 6.484-6.484 75.78.098 5.548-5.548-.087-75.79 6.484-6.485.01 75.867 8.608-8.608-.782-78.35-7.839.002v.011zm-94.745 76.118l.003-60.017 30.007 30.007-30.01 30.01zm14.854 14.854l30.01-30.01 30.009 30.01H76.816zm50.727-80.43l-30.01 30.01-30.01-30.01h60.02zm14.852 74.871l-30.01-30.01 30.01-30.01v60.02z" fill="#fff"/></svg>