<svg width="150" height="150" fill="none" xmlns="http://www.w3.org/2000/svg"><path fill-rule="evenodd" clip-rule="evenodd" d="M83.243 108.58v5.419h-5.466v-5.419H57.465c-9.898 0-17.95-8.336-17.95-18.582 0-4.944 1.87-9.603 5.268-13.118 2.156-2.23 4.782-3.84 7.671-4.712.857-4.953 3.19-9.585 6.672-13.19 4.545-4.703 10.562-7.293 16.943-7.293 6.382 0 12.398 2.59 16.942 7.293 3.484 3.606 5.816 8.237 6.672 13.189 7.591 2.282 12.94 9.52 12.94 17.832 0 4.95-1.87 9.613-5.268 13.128-3.397 3.516-7.901 5.453-12.682 5.453h-8.288.064-3.206zm0 0v-5.418h-5.466v5.418h5.466zm-10.932 0v-5.418h-5.466v5.418h5.466zm0-10.837v5.419h5.466v-5.419h-5.466zm-2.46-11.435h7.586c1.094 2.35 3.527 3.985 6.353 3.985 3.849 0 6.969-3.033 6.969-6.774 0-3.74-3.12-6.773-6.97-6.773-2.825 0-5.258 1.635-6.352 3.984H62.062v5.578h4.51V88.3h3.28v-1.992zm10.25-2.789c0-1.98 1.651-3.586 3.689-3.586 2.037 0 3.69 1.606 3.69 3.586 0 1.98-1.653 3.586-3.69 3.586-2.038 0-3.69-1.605-3.69-3.586zm37.002-56.084c-.499-2.81-3.212-4.692-6.046-4.196-2.834.495-4.734 3.184-4.234 5.993s3.212 4.69 6.046 4.194c2.834-.495 4.734-3.182 4.234-5.991zm27.388 83.422c-1.167-6.561-7.502-10.957-14.12-9.8-6.619 1.157-11.054 7.435-9.887 13.996 1.167 6.56 7.501 10.956 14.12 9.799 6.618-1.156 11.054-7.436 9.887-13.995zm-42.909-80.71c-1.01-5.674 2.826-11.104 8.55-12.104 5.726-1.001 11.203 2.8 12.213 8.476.38 2.135.072 4.235-.763 6.079 10.472 9.596 17.996 22.511 20.657 37.475a66 66 0 01-1.001 27.863c4.324 2.479 7.561 6.757 8.494 12.005 1.677 9.425-4.695 18.445-14.204 20.107-9.509 1.662-18.61-4.653-20.286-14.079-1.677-9.425 4.696-18.445 14.205-20.108a17.56 17.56 0 016.778.143 60.787 60.787 0 00.772-25.014c-2.429-13.657-9.251-25.463-18.757-34.277a10.51 10.51 0 01-4.447 1.91c-5.724 1-11.202-2.802-12.211-8.475zm-70.475 81.767c-1.167-6.561-7.501-10.957-14.12-9.8-6.618 1.157-11.054 7.436-9.887 13.996 1.167 6.56 7.501 10.956 14.12 9.799 6.618-1.157 11.053-7.435 9.887-13.995zm71.875 22.541c-2.834.496-4.733 3.185-4.233 5.993.5 2.809 3.212 4.693 6.046 4.197 2.834-.495 4.733-3.184 4.233-5.994-.499-2.808-3.212-4.691-6.046-4.196zM1.858 117.026C.182 107.6 6.554 98.58 16.062 96.918c9.51-1.662 18.61 4.653 20.287 14.079.978 5.499-.798 10.848-4.323 14.691 13.875 13.499 33.883 20.415 54.449 16.82a63.05 63.05 0 006.97-1.63c-.712-5.495 3.053-10.646 8.613-11.618 5.725-1.001 11.203 2.801 12.212 8.475 1.01 5.675-2.827 11.105-8.551 12.106a10.59 10.59 0 01-10.282-4.064 67.972 67.972 0 01-8.038 1.926c-22.54 3.94-44.472-3.743-59.547-18.679a17.522 17.522 0 01-5.709 2.081c-9.509 1.662-18.608-4.654-20.285-14.079zM87.384 15.262c-1.167-6.56-7.501-10.957-14.12-9.8-6.618 1.157-11.053 7.436-9.886 13.996 1.166 6.56 7.5 10.955 14.119 9.799 6.618-1.157 11.053-7.435 9.887-13.995zM15.682 76.413c-.5-2.809-3.212-4.691-6.046-4.196-2.834.495-4.733 3.184-4.233 5.993.5 2.81 3.212 4.692 6.046 4.196 2.834-.495 4.733-3.184 4.233-5.993zM57.88 17.078C58.01 8.93 63.95 1.732 72.34.265c9.509-1.662 18.61 4.655 20.286 14.08 1.676 9.425-4.696 18.446-14.205 20.108-8.83 1.543-17.295-3.796-19.804-12.111-22.195 6.246-38.604 24.076-43.615 45.513 3.003 1.397 5.303 4.164 5.922 7.642 1.009 5.674-2.827 11.105-8.551 12.105C6.648 88.602 1.17 84.8.16 79.126c-1.01-5.675 2.827-11.105 8.551-12.105.35-.061.698-.103 1.043-.13 5.43-23.598 23.592-43.198 48.125-49.813z" fill="#fff"/></svg>