<svg width="140" height="140" fill="none" xmlns="http://www.w3.org/2000/svg"><path d="M91.631 65.047c-.211-1.419-.654-2.866-1.33-4.341-1.026-2.24-2.459-3.922-2.623-4.14C83.624 51.228 77.21 47.77 70 47.77c-.186 0-.37.004-.554.01-.38-.004-.763-.006-1.141-.006-21.04 0-41.196 5.946-58.752 17.26-.869.56-2.004-.141-1.906-1.17C10.697 32.147 37.446 7.344 70 7.344c27.61 0 51.039 17.843 59.382 42.612.088.26.903 3.597 2.445 10.014.019.057.034.118.044.18.503 3.185.778 6.446.778 9.772 0 34.563-28.05 62.58-62.65 62.58a62.82 62.82 0 01-11.838-1.127 1.245 1.245 0 01-.953-1.571c4.879-16.471 14.197-31.272 27.016-42.886.384-.32.768-.666 1.145-1.029.198-.175.383-.358.558-.55a21.994 21.994 0 006.25-15.416 22.038 22.038 0 00-.546-4.875zM79.406 81.37c-13.605 12.286-23.92 28.253-29.294 46.512-.201.684-.935 1.072-1.606.827-21.955-8.01-38.118-28.476-40.745-51.708a69.867 69.867 0 01-.104-.971l.502-1.122c16.955-12.494 37.839-19.793 60.146-19.792.406 0 .816.003 1.223.007.157-.005.314-.011.472-.011 8.189 0 14.827 6.63 14.827 14.81 0 4.089-1.66 7.79-4.338 10.477-.442.419-.756.703-1.083.971zM0 69.921c0 2.028.092 4.033.262 6.016a70.58 70.58 0 00.615 5.033 71.735 71.735 0 00.97 4.933c.05.215.105.428.158.644.12.492.246.984.377 1.473.078.29.155.581.236.87a69.546 69.546 0 00.94 3.045 69.944 69.944 0 0042.383 43.653c.506.184.964.358 1.43.517 7.276 2.449 14.804 3.739 22.629 3.739 38.598 0 70-31.367 70-69.922C140 31.366 108.598 0 70 0S0 31.367 0 69.921z" fill="#fff"/></svg>